<svg width="269" height="415" viewBox="0 0 269 415" fill="none" xmlns="http://www.w3.org/2000/svg">
<path fill-rule="evenodd" clip-rule="evenodd" d="M0 16C0 7.16343 7.16344 0 16 0L247 0C255.837 0 263 7.16344 263 16V399C263 407.837 255.837 415 247 415H16C7.16344 415 0 407.837 0 399L0 16Z" fill="#262628"/>
<path d="M179.199 316.822C177.742 316.476 176.111 316.859 174.676 317.135C173.797 317.234 172.884 317.48 171.97 317.725C171.056 317.97 169.714 318.576 169.864 317.225C169.979 316.019 170.974 314.714 171.54 313.77C172.303 312.718 173.321 312.035 174.466 311.536C176.005 310.823 177.601 310.586 179.255 310.824C183.246 311.31 190.026 314.462 193.427 315.27C194.723 315.577 195.915 316.323 196.713 317.283C196.968 317.652 197.222 318.02 197.28 318.497C197.466 319.157 197.327 319.741 197.061 320.14C196.367 320.9 194.84 320.845 193.834 320.761C192.145 320.668 190.56 320.137 189.172 319.499C185.273 317.186 181.467 317.361 179.199 316.822ZM183.91 323.644C184.951 323.583 185.737 323.153 186.651 322.908C187.172 322.877 187.565 322.662 188.213 322.816C188.537 322.893 189.081 323.485 189.439 323.416C191.487 323.44 188.177 320.804 187.24 320.427C184.88 319.559 182.323 318.797 179.883 318.988C179.003 319.087 177.211 319.432 176.551 320.046C174.805 321.635 178.588 320.838 179.235 320.992C180.982 321.561 181.642 323.105 183.262 323.49C183.424 323.528 183.748 323.605 183.91 323.644ZM221.229 327.884C219.355 327.131 217.411 326.669 215.329 326.791C214.288 326.852 213.409 326.951 212.495 327.197C212.137 327.266 211.154 327.803 211.084 328.095C210.772 329.408 214.462 328.28 214.948 328.396C215.92 328.627 216.29 329.948 217.193 330.47C217.644 330.731 218.165 330.701 218.523 330.632C218.916 330.417 219.31 330.202 219.703 329.988C220.686 329.45 222.051 329.466 223.081 330.173C223.323 329.152 222.166 328.261 221.229 327.884ZM230.713 323.972C229.475 321.982 227.057 320.637 224.72 320.39C222.025 320.213 219.133 320.142 216.345 319.634C216.021 319.557 215.859 319.519 215.535 319.442C212.585 318.895 208.398 320.675 206.084 318.892C205.216 318.224 204.51 317.594 203.411 317.179C202.717 317.938 203.446 319.191 204.083 320.112C205.101 321.587 203.794 322.047 202.395 322.177C201.516 322.277 199.11 322.322 201.042 323.551C201.782 324.036 202.661 323.936 203.205 324.528C203.622 324.935 203.807 325.595 203.993 326.256C204.201 327.538 204.086 328.744 204.133 329.988C204.064 332.438 203.868 334.703 204.32 337.123C204.795 340.164 202.979 339.887 202.321 342.659C202.217 343.096 202.402 343.757 202.853 344.018C203.305 344.279 203.663 344.21 204.184 344.18C212.189 343.615 204.582 325.934 207.798 326.081C209.094 326.389 210.401 325.929 211.581 325.284C217.306 322.791 224.536 324.046 228.494 328.993C229.165 329.769 230.393 332.527 231.78 331.007C232.243 330.5 232.289 329.586 232.103 328.926C231.929 327.497 231.697 325.593 230.713 323.972ZM188.475 344.764C188.116 344.833 187.723 345.048 187.654 345.34C187.55 345.777 188.094 346.369 188.51 346.776C189.216 347.406 190.153 347.783 191.287 348.052L191.611 348.129C192.421 348.322 193.265 348.368 193.612 349.067C193.705 349.397 193.798 349.727 193.694 350.165C193.659 350.311 193.59 350.603 193.555 350.749L193.521 350.895L193.648 351.079C193.775 351.263 193.937 351.302 194.099 351.34C194.585 351.456 194.944 351.387 195.695 351.103L195.857 351.141C196.251 350.927 196.806 350.75 197.095 350.973C197.257 351.012 197.384 351.196 197.546 351.234C197.708 351.273 197.836 351.457 197.998 351.496C199.224 352.095 200.6 351.343 200.993 351.128C201.19 351.021 201.549 350.952 202.104 350.776C203.18 350.569 204.29 350.216 204.463 349.487C204.567 349.049 204.313 348.68 203.734 348.234C203.317 347.827 202.67 347.673 201.825 347.627C200.819 347.542 199.94 347.641 199.06 347.741C198.702 347.81 198.181 347.84 197.823 347.909C196.261 348.001 194.931 347.839 194.028 347.316C193.577 347.055 193.288 346.832 192.871 346.425C192.293 345.979 191.714 345.534 191.101 345.234C190.326 344.896 189.192 344.626 188.475 344.764ZM178.667 348.599C179.488 348.024 180.147 347.41 180.771 346.942C181.199 346.581 181.627 346.22 182.252 345.752C182.68 345.391 183.304 344.923 183.732 344.562C184.391 343.948 185.247 343.227 186.068 342.651L186.299 342.398C187.71 341.5 189.318 340.495 189.271 339.251C189.306 339.105 189.282 338.483 188.831 338.221C188.218 337.922 187.559 338.536 186.738 339.111C186.541 339.219 186.506 339.365 186.344 339.326C185.523 339.902 184.737 340.331 183.916 340.907C182.736 341.552 181.522 342.342 180.469 343.171C179.648 343.746 178.92 344.652 178.099 345.228L177.833 345.627C177.636 345.735 177.405 345.988 177.174 346.241C176.352 346.817 175.462 347.684 175.289 348.414C175.312 349.036 175.636 349.113 175.925 349.335L176.087 349.374C176.087 349.374 176.249 349.412 176.411 349.451L176.573 349.489L176.735 349.528C177.256 349.497 177.718 348.991 178.146 348.63C178.435 348.853 178.47 348.707 178.667 348.599ZM212.052 350.673C211.74 349.828 211.392 349.129 210.918 348.245C210.57 347.546 210.223 346.847 209.876 346.148C209.783 345.818 208.707 343.867 207.666 343.928C207.342 343.851 207.11 344.104 206.937 344.834C206.799 345.417 207.366 346.631 207.933 347.845L208.026 348.175C208.118 348.505 208.755 349.427 209.322 350.641C209.924 351.708 210.526 352.776 210.873 353.475C211.313 354.504 211.984 355.28 212.656 356.056C212.91 356.425 213.234 356.502 213.396 356.54C213.558 356.579 213.755 356.471 213.917 356.51C214.31 356.295 214.286 355.673 213.905 355.12C213.361 354.528 212.365 351.517 212.052 350.673ZM203.137 362.272C202.062 362.479 201.182 362.579 200.176 362.494C199.655 362.524 199.008 362.37 198.325 362.362C197.643 362.354 196.833 362.162 196.116 362.3C194.554 362.391 193.293 361.938 191.835 361.591C191.349 361.476 190.864 361.361 190.412 361.099C189.926 360.984 189.279 360.83 188.793 360.715C187.983 360.522 187.011 360.291 186.201 360.099C186.039 360.061 185.877 360.022 185.553 359.945C183.806 359.376 182.094 358.661 181.146 359.052C180.949 359.16 180.718 359.413 180.683 359.559C180.51 360.288 181.54 360.995 182.569 361.702C183.472 362.225 184.409 362.602 185.184 362.94C185.508 363.017 185.959 363.278 186.283 363.355C187.672 363.993 189.384 364.708 191.328 365.17C192.785 365.516 194.278 365.716 195.712 365.441C197.47 365.242 199.46 364.789 201.773 364.414C202.132 364.345 202.294 364.384 202.652 364.315C203.173 364.284 203.89 364.146 204.283 363.932C204.48 363.824 204.676 363.717 204.711 363.571C204.942 363.317 205.012 363.026 204.919 362.695C204.664 362.327 203.855 362.134 203.137 362.272ZM205.601 360.545C204.664 360.169 203.564 359.754 202.431 359.484C200.556 358.731 198.648 358.123 196.704 357.662C196.218 357.546 195.536 357.538 195.05 357.423C194.043 357.338 193.037 357.253 192.296 356.769C192.007 356.546 191.845 356.508 191.556 356.285C190.364 355.539 189.01 354.755 187.518 354.555C186.512 354.47 185.667 354.424 184.823 354.377C184.14 354.369 183.62 354.4 182.972 354.246C182.486 354.13 181.965 354.161 181.607 354.23C181.086 354.26 180.762 354.183 180.242 354.214L179.918 354.137C179.235 354.129 178.587 353.975 178.032 354.151C177.674 354.22 176.922 354.504 176.621 355.049C176.552 355.341 176.517 355.487 176.645 355.671C176.737 356.002 177.061 356.079 177.385 356.155C177.871 356.271 178.75 356.171 179.271 356.141C179.629 356.072 179.791 356.111 179.953 356.149L180.474 356.118C181.642 356.242 182.845 356.219 184.014 356.343C184.858 356.389 185.795 356.766 186.767 356.997C187.253 357.112 187.577 357.189 188.063 357.305C190.781 358.104 193.824 358.981 197.191 359.935C197.839 360.089 198.486 360.243 199.134 360.397C199.458 360.474 199.944 360.589 200.268 360.666C200.43 360.704 200.754 360.781 200.916 360.82C201.078 360.858 201.402 360.935 201.564 360.974C202.987 361.466 205.058 362.112 206.041 361.575C206.237 361.467 206.469 361.214 206.376 360.884C206.411 360.738 206.318 360.408 206.156 360.369C205.763 360.584 205.601 360.545 205.601 360.545ZM253.888 335.179C253.483 336.162 252.951 336.96 252.582 337.797L250.454 340.991C246.997 346.18 243.505 351.516 238.729 355.776L238.267 356.283C237.18 357.257 236.058 358.378 234.138 358.539C233.617 358.569 233.131 358.454 232.808 358.377C231.998 358.184 231.385 357.885 230.644 357.4C230.702 357.877 230.563 358.46 230.621 358.936C230.552 359.228 230.645 359.558 230.61 359.704C230.692 362.96 229.733 366.278 227.872 369.072C227.34 369.87 226.611 370.776 226.08 371.575C225.085 372.88 224.125 374.039 223.455 375.421C221.675 379.314 219.108 381.478 215.685 384.364L215.488 384.471C214.632 385.193 213.904 386.099 213.048 386.82C211.892 388.087 210.735 389.353 209.128 390.359C204.767 392.868 198.452 395.684 192.622 394.299C192.46 394.26 192.298 394.222 192.136 394.183C187.277 393.029 182.835 392.282 177.837 391.712C173.36 391.111 170.976 387.462 168.256 384.504C165.282 381.177 164.043 377.03 162.931 373.067C161.113 366.316 159.595 359.02 160.876 351.464C161.015 350.88 161.153 350.296 161.292 349.713C161.777 347.67 162.1 345.589 161.706 343.646C161.741 343.5 161.741 343.5 161.614 343.316C161.255 343.385 160.897 343.454 160.538 343.523C160.179 343.592 159.694 343.476 159.208 343.361C158.236 343.13 157.171 342.569 156.338 341.755C155.343 340.902 154.903 339.873 154.139 338.766C153.283 337.33 152.554 336.078 151.662 334.787C150.227 332.905 149.903 330.67 149.543 328.581C149.485 328.105 149.3 327.445 149.242 326.969C149.161 325.87 148.917 324.734 148.998 323.674C148.835 321.478 148.997 319.358 149.32 317.277C149.47 315.926 149.781 314.613 150.579 313.415C151.412 312.071 152.73 310.843 154.592 310.207C154.824 309.953 154.858 309.807 155.089 309.554C157.529 307.205 158.094 301.945 158.59 296.977C158.809 295.333 158.867 293.652 159.248 292.047C160.113 286.242 165.143 278.034 168.068 273.643C169.166 271.9 171.757 270.358 174.347 268.816C176.348 267.595 178.152 266.483 179.274 265.362C181.587 262.829 183.761 260.879 188.584 260.021C191.974 259.439 194.727 260.093 198.325 260.794C203.184 261.948 207.985 262.626 212.924 262.72C214.81 262.706 216.857 262.729 219.518 263.053C225.88 263.64 234.801 269.303 237.879 272.192C240.541 274.674 240.636 281.478 240.671 283.49C242.742 284.136 249.857 286.597 253.502 290.699C257.691 295.393 254.143 302.411 252.466 305.866L252.2 306.265C250.594 309.428 250.78 312.247 252.516 315.741C253.905 318.537 255.054 328.828 253.794 330.533C254.199 331.708 254.466 333.467 253.888 335.179ZM161.138 340.275C160.432 337.487 159.598 334.514 158.509 331.173C158.046 329.522 157.583 327.871 157.64 326.189C157.697 324.507 158.495 323.31 159.651 322.043C160.311 321.429 160.842 320.631 161.212 319.794C162.391 316.991 160.1 313.673 156.722 313.487C155.357 313.471 153.761 313.708 152.963 314.906C152.431 315.704 152.385 316.618 152.177 317.493C151.854 319.574 151.855 321.732 151.89 323.744C151.971 324.843 152.087 325.795 152.169 326.893C152.528 328.982 152.621 331.47 154.091 333.206C155.144 334.535 156.001 335.972 156.857 337.408C157.332 338.292 157.841 339.029 158.547 339.659C159.091 340.251 159.866 340.589 160.387 340.559C160.745 340.49 160.942 340.382 161.138 340.275ZM233.216 335.047C232.833 330.178 235.145 325.487 236.577 320.895C237.19 319.037 237.374 315.381 237.453 312.164C237.476 310.628 237.533 308.946 237.718 307.449C237.972 305.659 238.029 303.978 237.959 302.112C237.889 300.245 237.298 298.41 236.904 296.467C236.487 293.902 233.432 289.477 228.249 288.246C224.038 287.246 220.626 289.364 216.554 289.938C212.286 290.619 209.313 289.451 206.467 288.466C203.007 287.182 199.282 286.298 195.788 285.159C192.294 284.021 188.535 283.282 184.983 283.826C179.801 284.753 177.072 286.879 174.146 289.112C173.487 289.726 172.701 290.156 172.041 290.77C168.954 292.965 166.309 306.979 165.617 312.055C165.502 313.26 165.028 314.535 164.751 315.702C164.473 316.869 164.52 318.113 164.37 319.465C164.151 321.108 163.77 322.713 163.389 324.318L163.354 324.464C162.996 326.691 163.807 329.041 164.305 330.546C166.088 335.285 167.223 339.87 168.416 344.932C169.03 347.389 169.609 349.993 170.385 352.489C170.791 353.664 171.127 355.131 171.96 355.946C173.21 357.167 174.656 358.281 176.137 359.25C177.294 360.141 178.648 360.925 179.608 361.924C180.025 362.331 180.441 362.738 180.696 363.107C181.367 363.883 182.2 364.697 183.137 365.074C183.623 365.189 184.306 365.197 184.988 365.205C185.347 365.136 185.509 365.175 185.867 365.106C188.274 365.061 190.472 365.891 192.635 366.868C194.058 367.36 195.447 367.998 196.742 368.305C199.658 368.998 203.047 368.416 205.881 368.01C207.836 367.704 209.953 367.436 211.56 366.431C214.382 364.635 215.468 361.502 216.427 358.185C217.618 354.615 218.681 350.86 222.578 348.857C223.365 348.428 224.313 348.036 225.227 347.791C225.586 347.722 225.944 347.653 226.141 347.546C227.806 347.017 229.379 346.157 230.663 345.075C231.947 343.993 232.513 343.048 233.218 341.52C234.421 339.34 233.379 337.243 233.216 335.047ZM251.204 334.233C251.712 332.813 251.249 331.161 249.999 329.94C248.749 328.718 247.488 328.264 245.695 328.609C242.861 329.015 240.341 332.423 239.786 334.758C239.405 336.363 239.151 338.152 239.291 339.726C239.465 341.155 238.829 342.391 238.355 343.665C237.685 345.047 236.146 345.761 235.511 346.997C235.141 347.834 234.771 348.671 234.436 349.362C233.765 350.744 233.129 351.98 232.297 353.323L232.031 353.723C231.8 353.976 231.73 354.268 231.499 354.521C232.367 355.19 233.107 355.674 233.952 355.72C234.634 355.728 235.49 355.007 236.184 354.247L236.808 353.779C241.388 349.626 244.845 344.436 248.071 339.5L250.198 336.306C250.533 335.615 251.03 334.963 251.204 334.233Z" fill="black"/>
</svg>
