<svg width="19" height="21" viewBox="0 0 19 21" fill="none" xmlns="http://www.w3.org/2000/svg">
<path d="M9.5 0.5C4.53 0.5 0.5 4.53 0.5 9.5C0.5 13.67 3.34 17.17 7.19 18.19L9.5 20.5L11.81 18.19C15.66 17.17 18.5 13.67 18.5 9.5C18.5 4.53 14.47 0.5 9.5 0.5ZM9.5 2.5C11.16 2.5 12.5 3.84 12.5 5.5C12.5 7.16 11.16 8.5 9.5 8.5C7.84 8.5 6.5 7.16 6.5 5.5C6.5 3.84 7.84 2.5 9.5 2.5ZM9.5 16.8C7 16.8 4.79 15.52 3.5 13.58C3.53 11.59 7.5 10.5 9.5 10.5C11.49 10.5 15.47 11.59 15.5 13.58C14.21 15.52 12 16.8 9.5 16.8Z" fill="black"/>
</svg>
