<svg width="263" height="354" viewBox="0 0 263 354" fill="none" xmlns="http://www.w3.org/2000/svg">
<path fill-rule="evenodd" clip-rule="evenodd" d="M0 16C0 7.16344 7.16344 0 16 0L247 0C255.837 0 263 7.16344 263 16V338C263 346.837 255.837 354 247 354H16C7.16344 354 0 346.837 0 338L0 16Z" fill="#262D33"/>
<g opacity="0.5">
<path d="M60 222.681C60 222.681 74.0897 226.483 108.273 195.649C106.282 191.666 105.739 187.442 105.92 184.274C92.524 197.067 77.1671 210.251 60 222.681Z" fill="#4B5157"/>
<path d="M170.786 124.778C172.476 122.515 174.196 120.222 175.946 117.869L167.649 112.8C167.619 112.77 167.558 112.74 167.528 112.709C167.106 113.343 166.593 114.067 166.02 114.882C167.136 116.541 168.131 118.321 169.006 120.192C169.7 121.701 170.304 123.209 170.786 124.778Z" fill="#4B5157"/>
<path d="M169.21 110.218L178.258 115.757C178.258 115.757 181.578 119.025 190.016 116.355C198.454 113.686 203.056 104.686 204.549 99.6391C206.042 94.5925 203.24 86.9741 203.24 86.9741C204.806 85.0522 203.223 82.291 203.223 82.291C204.192 76.5293 197.332 76.4355 194.222 77.5687C191.112 78.7019 191.306 80.1398 191.306 80.1398C190.441 80.3881 190.665 81.3252 190.665 81.3252C189.802 81.7799 190.059 82.4322 190.059 82.4322L185.975 88.5547C181.372 95.2976 172.618 106.53 172.618 106.53L173.352 106.978C169.985 105.109 166.962 103.856 166.962 103.856C165.509 103.256 165.573 104.905 165.573 104.905C166.514 108.296 169.21 110.218 169.21 110.218ZM181.159 108.936C181.159 108.936 182.152 108.436 182.9 106.726C182.9 106.726 184.278 106.045 184.737 104.311C184.737 104.311 186.051 103.123 186.487 101.996C186.487 101.996 187.578 102.243 188.254 99.4699C188.254 99.4699 189.503 99.0698 189.868 97.1959C189.868 97.1959 190.783 97.3238 191.609 94.9853C191.609 94.9853 192.801 94.6335 193.424 92.5164C193.424 92.5164 194.631 91.6635 195.092 90.2208C195.092 90.2208 198.465 87.2251 199.681 84.8618C200.199 85.2776 201.357 86.6075 201.509 87.3205C201.679 88.1167 201.953 87.8813 201.953 87.8813C201.993 87.7772 202.017 87.6421 202.038 87.5012L202.04 87.5132C203.895 97.074 199.434 103.229 199.434 103.229C196.768 109.514 191.586 112.055 188.386 114.328C185.186 116.6 179.658 111.26 179.658 111.26C179.658 111.26 180.72 110.751 181.159 108.936Z" fill="#4B5157"/>
<path d="M91.2863 120.855C92.0708 118.955 93.0664 117.084 94.2431 115.304C94.4844 114.942 94.7258 114.58 94.9973 114.218L89.0537 117.869C89.808 118.864 90.5321 119.86 91.2863 120.855Z" fill="#4B5157"/>
<path d="M153.77 179.115L154.253 183.279C154.554 185.753 154.373 189.101 153.287 192.511C189.975 226.724 205 222.681 205 222.681C185.54 208.592 168.372 193.507 153.77 179.115Z" fill="#4B5157"/>
<path d="M60.4418 99.6392C61.9347 104.686 66.5372 113.685 74.975 116.355C83.4132 119.025 86.7334 115.757 86.7334 115.757L95.781 110.218C95.781 110.218 98.4771 108.296 99.4187 104.905C99.4187 104.905 99.4824 103.256 98.029 103.856C98.029 103.856 95.0056 105.11 91.6374 106.979L92.3729 106.53C92.3729 106.53 83.6192 95.2979 79.0161 88.5551L74.9322 82.4325C74.9322 82.4325 75.1889 81.7802 74.3261 81.3256C74.3261 81.3256 74.5499 80.3882 73.6849 80.1402C73.6849 80.1402 73.8789 78.7019 70.7692 77.569C67.6595 76.4355 60.7987 76.5293 61.7684 82.291C61.7684 82.291 60.1848 85.0522 61.7518 86.9741C61.7518 86.9741 58.949 94.5928 60.4418 99.6392ZM62.9505 87.5133L62.9529 87.5012C62.974 87.6421 62.9982 87.7773 63.0383 87.8813C63.0383 87.8813 63.3126 88.1167 63.4821 87.3208C63.6342 86.6078 64.7921 85.2779 65.3105 84.8622C66.5263 87.2254 69.8988 90.2211 69.8988 90.2211C70.3604 91.6638 71.5673 92.5168 71.5673 92.5168C72.19 94.6338 73.3823 94.9856 73.3823 94.9856C74.2081 97.3239 75.1235 97.1962 75.1235 97.1962C75.4879 99.0698 76.7373 99.4702 76.7373 99.4702C77.4137 102.244 78.5041 101.996 78.5041 101.996C78.9401 103.124 80.2537 104.312 80.2537 104.312C80.7126 106.045 82.0908 106.726 82.0908 106.726C82.8387 108.436 83.8316 108.937 83.8316 108.937C84.2709 110.751 85.3332 111.261 85.3332 111.261C85.3332 111.261 79.8044 116.601 76.6052 114.328C73.4059 112.056 68.2231 109.514 65.557 103.229C65.557 103.229 61.0965 97.074 62.9505 87.5133Z" fill="#4B5157"/>
<path d="M194.772 170.004C194.772 170.004 195.858 170.849 196.22 171.03C196.069 170.879 195.586 170.486 194.711 169.702C191.151 166.715 188.798 161.103 188.798 161.103C184.453 146.984 174.256 141.613 174.256 141.613C174.406 139.169 173.562 137.661 172.536 136.695C172.476 141.764 171.42 146.772 169.398 151.449C170.816 161.254 178.691 170.486 179.777 171.663C177.092 166.866 176.579 156.155 176.579 156.155C182.13 168.103 194.772 170.004 194.772 170.004Z" fill="#4B5157"/>
<path d="M163.365 116.36C156.426 106.012 144.207 99.1631 130.298 99.1631C118.592 99.1631 108.062 104.021 100.882 111.744C107.459 109.059 116.299 106.645 126.798 106.645C139.018 106.645 151.297 109.904 163.365 116.36Z" fill="#4B5157"/>
<path d="M144.495 189.631C135.769 195.084 124.507 195.084 115.782 189.631C113.417 188.153 111.07 186.204 109.016 183.637C109.016 183.637 106.94 201.322 126.08 204.474C128.763 204.916 131.514 204.916 134.197 204.474C153.337 201.322 151.261 183.637 151.261 183.637C149.207 186.204 146.86 188.153 144.495 189.631Z" fill="#4B5157"/>
<path d="M151.719 138.415C130.901 138.415 109.359 137.751 91.0459 136.514C91.0761 144.751 93.9423 152.354 98.7394 158.479H98.7696C98.7394 158.509 98.317 162.009 97.08 167.711C95.843 173.443 114.428 178.15 114.428 178.15V183.762L120.462 185.964L122.031 183.279V186.115L129.725 186.93L130.298 184.848L130.751 186.93L139.409 185.904L139.802 183.279L141.19 185.27L146.077 183.852V177.939C146.077 177.939 156.034 173.564 161.042 171.905C166.05 170.245 161.042 159.444 161.042 159.444L161.012 159.414C165.93 153.561 169.037 146.199 169.459 138.265C163.787 138.385 157.814 138.415 151.719 138.415ZM113.198 156.928C107.519 156.928 102.916 154.167 102.916 150.761C102.916 147.355 107.519 142.354 113.198 142.354C118.876 142.354 123.479 147.355 123.479 150.761C123.479 154.167 118.876 156.928 113.198 156.928ZM135.767 167.057C135.767 167.057 134.222 164.827 130.295 164.617C126.368 164.827 124.811 167.057 124.811 167.057C122.859 161.353 130.295 150.071 130.295 150.071C130.295 150.071 137.73 161.353 135.767 167.057ZM147.384 156.928C141.705 156.928 137.102 154.167 137.102 150.761C137.102 147.355 141.705 142.354 147.384 142.354C153.062 142.354 157.665 147.355 157.665 150.761C157.665 154.167 153.062 156.928 147.384 156.928Z" fill="#4B5157"/>
<path d="M96.7846 116.951C93.6167 121.839 91.6254 127.45 91.1729 133.515C115.49 135.144 144.907 135.747 169.496 135.235C169.375 130.347 168.229 125.671 166.268 121.446C134.437 102.318 108.611 110.826 96.7846 116.951Z" fill="#4B5157"/>
</g>
</svg>
