<svg width="263" height="354" viewBox="0 0 263 354" fill="none" xmlns="http://www.w3.org/2000/svg">
<path fill-rule="evenodd" clip-rule="evenodd" d="M0 16C0 7.16344 7.16344 0 16 0L247 0C255.837 0 263 7.16344 263 16V338C263 346.837 255.837 354 247 354H16C7.16344 354 0 346.837 0 338L0 16Z" fill="#3DC47E"/>
<path fill-rule="evenodd" clip-rule="evenodd" d="M157.12 244.51L139.024 275.854C138.25 277.193 138.692 278.897 140.058 279.685L144.837 282.444C146.182 283.221 147.886 282.785 148.672 281.424L166.769 250.08L195.714 266.792C198.379 268.33 199.291 271.737 197.753 274.402L174.068 315.426C162.536 335.399 136.993 342.239 117.016 330.706L112.172 327.909C92.1926 316.374 85.3448 290.84 96.8796 270.861L120.565 229.837C122.103 227.172 125.51 226.26 128.174 227.798L157.12 244.51ZM185.173 151.356L233.416 179.209C236.08 180.747 236.993 184.154 235.455 186.818L227.099 201.291C225.561 203.956 222.154 204.868 219.489 203.33L171.247 175.477C168.582 173.939 167.669 170.532 169.208 167.868L177.563 153.395C179.102 150.73 182.509 149.818 185.173 151.356ZM166.769 250.08L157.12 244.51L189.603 186.075L195.773 189.638L201.944 193.2L166.769 250.08Z" fill="#00B06C"/>
</svg>
