<svg width="263" height="354" viewBox="0 0 263 354" fill="none" xmlns="http://www.w3.org/2000/svg">
<path fill-rule="evenodd" clip-rule="evenodd" d="M0 16C0 7.16344 7.16344 0 16 0L247 0C255.837 0 263 7.16344 263 16V338C263 346.837 255.837 354 247 354H16C7.16344 354 0 346.837 0 338L0 16Z" fill="#FF4F52"/>
<path d="M126.758 235.728C126.461 235.728 126.165 235.895 125.901 236.028C125.736 236.095 125.571 236.195 125.406 236.295C125.241 236.395 125.01 236.595 124.977 236.295C124.944 236.028 125.076 235.695 125.142 235.462C125.241 235.195 125.406 234.995 125.604 234.829C125.868 234.595 126.165 234.462 126.494 234.429C127.286 234.329 128.737 234.662 129.43 234.662C129.693 234.662 129.957 234.762 130.155 234.929C130.221 234.995 130.287 235.062 130.32 235.162C130.386 235.295 130.386 235.428 130.353 235.528C130.254 235.728 129.957 235.795 129.759 235.828C129.43 235.895 129.1 235.862 128.803 235.795C127.945 235.495 127.22 235.728 126.758 235.728ZM127.847 236.961C127.934 236.961 128.022 236.95 128.1 236.909C128.164 236.875 128.223 236.835 128.281 236.794C128.407 236.704 128.537 236.607 128.688 236.571C128.713 236.565 128.74 236.561 128.77 236.561V236.561C128.955 236.561 129.217 236.566 129.09 236.432C128.952 236.286 128.599 236.116 128.473 236.095C127.978 236.028 127.451 235.995 126.989 236.162C126.824 236.228 126.494 236.395 126.395 236.561C126.132 236.995 126.824 236.628 126.956 236.628C127.319 236.661 127.517 236.961 127.847 236.961V236.961ZM135.366 235.962C134.97 235.895 134.574 235.895 134.179 236.028C133.981 236.095 133.816 236.162 133.651 236.262C133.585 236.295 133.42 236.461 133.42 236.528C133.42 236.828 134.08 236.395 134.179 236.395C134.377 236.395 134.508 236.661 134.706 236.728V236.728C134.878 236.786 135.035 236.629 135.162 236.501C135.164 236.499 135.166 236.497 135.168 236.495C135.18 236.482 135.193 236.47 135.207 236.459C135.446 236.257 135.674 236.013 135.366 235.962V235.962ZM137.015 234.629C136.685 234.262 136.157 234.096 135.696 234.162C135.168 234.262 134.607 234.395 134.047 234.429C133.981 234.429 133.948 234.429 133.882 234.429C133.288 234.462 132.563 235.062 132.035 234.795V234.795C131.694 234.623 131.402 234.845 131.666 235.122C131.679 235.136 131.692 235.149 131.705 235.162C131.969 235.428 131.738 235.595 131.474 235.695C131.309 235.762 130.848 235.895 131.276 236.062C131.441 236.128 131.606 236.062 131.738 236.162C131.837 236.228 131.903 236.361 131.969 236.495C132.068 236.761 132.101 237.028 132.167 237.295C132.266 237.828 132.332 238.328 132.53 238.827C132.761 239.46 132.398 239.494 132.398 240.127C132.398 240.227 132.464 240.36 132.563 240.394C132.662 240.427 132.728 240.394 132.826 240.36C133.923 239.975 133.039 238.076 132.7 237.002C132.539 236.491 133.011 236.275 133.387 235.895V235.895C134.377 235.062 135.828 234.962 136.817 235.828C136.982 235.962 137.345 236.495 137.543 236.095C137.609 235.962 137.576 235.762 137.51 235.628C137.411 235.328 137.279 234.929 137.015 234.629ZM129.825 241.293C129.759 241.327 129.693 241.393 129.693 241.46C129.693 241.56 129.825 241.66 129.924 241.726C130.089 241.826 130.287 241.86 130.518 241.86H130.584C130.658 241.86 130.731 241.853 130.799 241.858C130.962 241.869 131.079 242.03 131.079 242.193V242.193C131.079 242.226 131.079 242.293 131.079 242.326V242.326C131.079 242.348 131.087 242.368 131.102 242.383L131.112 242.393C131.145 242.426 131.177 242.426 131.21 242.426C131.306 242.426 131.371 242.395 131.496 242.302C131.503 242.296 131.512 242.293 131.522 242.293V242.293C131.534 242.293 131.545 242.288 131.553 242.28C131.59 242.245 131.634 242.213 131.677 242.196C131.737 242.173 131.799 242.215 131.861 242.226C131.864 242.226 131.867 242.226 131.87 242.226V242.226C131.94 242.226 132.003 242.273 132.073 242.271C132.292 242.266 132.473 242.084 132.53 242.026C132.563 241.993 132.629 241.96 132.728 241.893C132.925 241.793 133.123 241.66 133.123 241.493C133.123 241.393 133.057 241.327 132.925 241.26C132.826 241.193 132.695 241.193 132.53 241.227C132.332 241.26 132.167 241.327 132.002 241.393V241.393C131.852 241.469 131.693 241.526 131.529 241.561C131.331 241.604 131.155 241.608 131.013 241.56C130.914 241.527 130.848 241.493 130.749 241.427C130.617 241.36 130.485 241.293 130.353 241.26C130.188 241.227 129.957 241.227 129.825 241.293ZM128.11 242.626C128.242 242.46 128.341 242.293 128.44 242.16C128.506 242.06 128.572 241.96 128.671 241.826C128.737 241.726 128.836 241.593 128.902 241.493C128.996 241.335 129.119 241.148 129.244 240.986C129.258 240.969 129.27 240.95 129.28 240.93V240.93C129.292 240.906 129.307 240.883 129.324 240.863C129.478 240.685 129.641 240.493 129.706 240.308C129.762 240.15 129.753 239.914 129.594 239.86V239.86C129.463 239.827 129.364 239.994 129.232 240.16V240.16C129.188 240.204 129.144 240.255 129.104 240.303C128.993 240.436 128.881 240.553 128.77 240.693C128.572 240.893 128.374 241.127 128.209 241.36C128.087 241.515 127.993 241.727 127.874 241.89C127.856 241.915 127.842 241.941 127.832 241.969V241.969C127.82 242.007 127.798 242.041 127.778 242.074C127.766 242.094 127.754 242.116 127.742 242.139C127.723 242.175 127.702 242.209 127.678 242.241C127.58 242.374 127.489 242.538 127.46 242.676C127.449 242.731 127.452 242.79 127.481 242.837C127.51 242.883 127.547 242.896 127.586 242.913C127.606 242.921 127.627 242.926 127.649 242.926V242.926C127.649 242.926 127.649 242.926 127.649 242.926C127.649 242.926 127.682 242.926 127.715 242.926H127.748V242.926C127.769 242.926 127.792 242.923 127.811 242.913C127.864 242.882 127.907 242.824 127.947 242.762C127.984 242.704 128.062 242.675 128.11 242.626V242.626ZM134.64 241.36C134.541 241.193 134.442 241.06 134.311 240.893C134.259 240.824 134.208 240.755 134.156 240.686C134.062 240.558 133.975 240.421 133.863 240.309C133.827 240.272 133.786 240.236 133.744 240.205C133.595 240.096 133.387 240.175 133.387 240.36V240.36C133.387 240.482 133.525 240.687 133.674 240.899C133.703 240.94 133.728 240.982 133.75 241.027V241.027C133.783 241.093 133.948 241.26 134.113 241.493C134.278 241.693 134.443 241.893 134.541 242.026C134.673 242.226 134.838 242.36 135.003 242.493C135.069 242.56 135.135 242.56 135.168 242.56V242.56C135.235 242.56 135.303 242.497 135.301 242.43C135.3 242.377 135.276 242.318 135.233 242.263C135.213 242.237 135.188 242.217 135.166 242.193C135.017 242.032 134.731 241.513 134.64 241.36ZM133.453 244.326C133.381 244.362 133.313 244.394 133.246 244.422C133.019 244.516 132.768 244.532 132.53 244.592V244.592V244.592C132.244 244.664 131.961 244.755 131.667 244.763C131.528 244.767 131.39 244.759 131.243 244.759V244.759C131.045 244.759 130.845 244.726 130.647 244.726C130.636 244.726 130.626 244.726 130.617 244.726C130.452 244.726 130.254 244.726 130.089 244.726C130.056 244.726 130.023 244.726 129.957 244.726C129.594 244.692 129.232 244.626 129.067 244.759C129.034 244.792 129.001 244.859 129.001 244.892C129.001 245.059 129.232 245.159 129.463 245.259C129.619 245.311 129.775 245.343 129.915 245.371C129.987 245.385 130.06 245.393 130.132 245.407V245.407C130.212 245.424 130.294 245.435 130.374 245.451C130.647 245.508 130.966 245.559 131.309 245.559C131.606 245.559 131.903 245.525 132.167 245.392C132.497 245.259 132.859 245.059 133.288 244.859V244.859C133.394 244.805 133.512 244.777 133.616 244.72C133.669 244.691 133.717 244.658 133.75 244.626V244.626C133.807 244.568 133.847 244.488 133.84 244.408V244.408C133.835 244.351 133.796 244.301 133.742 244.286C133.662 244.264 133.549 244.277 133.453 244.326ZM133.868 243.82C133.856 243.826 133.842 243.825 133.829 243.822C133.732 243.806 133.628 243.791 133.521 243.779C133.301 243.755 133.08 243.738 132.861 243.711C132.574 243.677 132.288 243.659 132.002 243.659V243.659C131.781 243.659 131.564 243.729 131.343 243.731C131.261 243.732 131.183 243.722 131.112 243.693C131.046 243.659 131.013 243.659 130.947 243.626C130.683 243.526 130.386 243.426 130.089 243.459C129.891 243.493 129.726 243.526 129.561 243.559C129.43 243.593 129.331 243.626 129.199 243.626C129.133 243.626 129.067 243.641 129.011 243.66C128.959 243.679 128.909 243.702 128.855 243.715C128.805 243.726 128.76 243.733 128.707 243.748C128.683 243.755 128.658 243.759 128.634 243.759V243.759C128.615 243.759 128.596 243.762 128.577 243.766C128.455 243.793 128.334 243.797 128.242 243.859C128.186 243.887 128.082 243.964 128.032 244.069C128.015 244.105 128.009 244.156 128.014 244.196V244.196C128.021 244.249 128.052 244.293 128.102 244.313C128.134 244.326 128.171 244.326 128.209 244.326C128.296 244.326 128.433 244.274 128.533 244.239C128.559 244.23 128.584 244.219 128.61 244.209C128.62 244.205 128.629 244.202 128.638 244.2C128.68 244.188 128.725 244.185 128.768 244.171V244.171C128.791 244.163 128.815 244.157 128.84 244.153C129.058 244.119 129.277 244.057 129.496 244.026C129.66 243.992 129.858 244.026 130.056 244.026C130.155 244.026 130.221 244.026 130.32 244.026C130.881 244.059 131.507 244.092 132.2 244.126C132.332 244.126 132.464 244.126 132.596 244.126C132.662 244.126 132.761 244.126 132.826 244.126C132.859 244.126 132.925 244.126 132.958 244.126C132.991 244.126 133.057 244.126 133.09 244.126C133.387 244.159 133.816 244.192 133.981 244.026C134.006 244 134.032 243.954 134.027 243.903C134.023 243.873 134.015 243.843 134.003 243.815V243.815C133.982 243.767 133.93 243.784 133.885 243.811C133.878 243.815 133.873 243.818 133.868 243.82ZM141.995 235.862V235.862C141.935 236.288 141.795 236.7 141.66 237.109L141.599 237.295C141.17 238.594 140.742 239.927 140.016 241.093L139.95 241.227C139.785 241.493 139.62 241.793 139.258 241.926C139.159 241.96 139.06 241.96 138.994 241.96C138.938 241.96 138.886 241.956 138.835 241.948C138.712 241.93 138.558 242.051 138.592 242.172V242.172C138.596 242.187 138.598 242.201 138.599 242.217C138.602 242.242 138.608 242.267 138.615 242.29C138.628 242.336 138.637 242.383 138.647 242.429C138.793 243.11 138.755 243.849 138.532 244.526C138.466 244.726 138.367 244.959 138.301 245.159C138.169 245.492 138.037 245.792 137.971 246.125C137.808 247.05 137.417 247.648 136.896 248.438C136.887 248.451 136.877 248.463 136.867 248.474V248.474C136.856 248.485 136.846 248.498 136.837 248.511C136.712 248.706 136.615 248.931 136.487 249.124C136.322 249.457 136.157 249.791 135.894 250.091C135.168 250.857 134.08 251.79 132.892 251.79C132.859 251.79 132.826 251.79 132.794 251.79C131.804 251.79 130.914 251.857 129.924 251.99C129.034 252.09 128.407 251.423 127.748 250.924C127.022 250.357 126.593 249.524 126.198 248.724C125.538 247.358 124.911 245.859 124.812 244.159C124.812 244.026 124.812 243.892 124.812 243.759C124.812 243.299 124.78 242.838 124.621 242.442C124.617 242.431 124.615 242.42 124.614 242.409V242.409C124.612 242.372 124.559 242.371 124.527 242.387C124.479 242.411 124.431 242.435 124.384 242.46C124.318 242.493 124.219 242.493 124.12 242.493C123.922 242.493 123.691 242.426 123.493 242.293C123.262 242.16 123.13 241.96 122.933 241.76C122.702 241.493 122.504 241.26 122.273 241.027C121.91 240.693 121.745 240.227 121.58 239.794C121.547 239.694 121.481 239.56 121.448 239.461C121.383 239.227 121.284 238.994 121.251 238.761C121.119 238.294 121.053 237.828 121.02 237.361C120.987 237.061 120.987 236.761 121.086 236.461C121.17 236.178 121.325 235.895 121.572 235.674C121.66 235.595 121.726 235.501 121.778 235.395V235.395C122.141 234.762 122.009 233.596 121.877 232.496C121.844 232.129 121.778 231.763 121.778 231.396C121.679 230.097 122.273 228.064 122.636 226.964C122.768 226.531 123.196 226.065 123.625 225.598C123.955 225.232 124.252 224.898 124.417 224.598C124.746 223.932 125.076 223.399 125.967 222.966C126.593 222.666 127.154 222.666 127.88 222.632C128.869 222.632 129.825 222.532 130.782 222.299C131.145 222.199 131.54 222.099 132.068 222.033C133.321 221.833 135.3 222.599 136.026 223.066V223.066C137.319 223.891 138.221 225.274 139.55 226.04C139.668 226.108 139.78 226.183 139.884 226.265C140.907 227.064 140.544 228.764 140.379 229.597L140.346 229.697C140.181 230.463 140.346 231.063 140.841 231.73C141.09 232.065 141.456 233.047 141.653 233.837C141.812 234.476 142.049 235.205 141.995 235.862V235.862ZM124.236 241.817C124.316 241.773 124.325 241.672 124.287 241.59C124.039 241.064 123.761 240.507 123.427 239.894C123.262 239.56 123.097 239.227 123.031 238.861C122.966 238.494 123.064 238.194 123.229 237.861C123.328 237.694 123.394 237.494 123.427 237.295C123.526 236.628 122.933 236.028 122.273 236.162C122.009 236.228 121.712 236.361 121.613 236.661C121.547 236.861 121.58 237.061 121.58 237.261C121.613 237.728 121.712 238.194 121.811 238.627C121.877 238.861 121.943 239.061 122.009 239.294C122.174 239.727 122.306 240.26 122.669 240.56C122.933 240.793 123.163 241.06 123.394 241.327C123.526 241.493 123.658 241.627 123.823 241.726C123.949 241.822 124.104 241.856 124.204 241.831C124.214 241.828 124.227 241.822 124.236 241.817V241.817ZM138.004 236.895C137.708 235.862 137.938 234.729 138.004 233.662C138.037 233.229 137.905 232.429 137.773 231.73C137.707 231.396 137.642 231.03 137.609 230.697C137.576 230.297 137.51 229.93 137.411 229.53C137.312 229.13 137.114 228.764 136.949 228.364C136.751 227.831 135.96 227.031 134.904 227.031C134.047 227.031 133.486 227.664 132.728 227.997C131.936 228.364 131.309 228.264 130.716 228.197C129.99 228.097 129.232 228.097 128.506 228.031C127.781 227.964 127.022 227.997 126.362 228.297C125.406 228.764 124.977 229.364 124.516 229.997C124.417 230.163 124.285 230.297 124.186 230.463C123.691 231.096 123.823 234.262 123.922 235.395C123.955 235.662 123.922 235.962 123.922 236.228C123.922 236.495 123.988 236.761 124.021 237.061C124.054 237.428 124.054 237.794 124.054 238.161V238.194C124.087 238.694 124.351 239.161 124.516 239.461C125.076 240.394 125.505 241.327 125.967 242.36C126.198 242.859 126.428 243.393 126.692 243.892C126.824 244.126 126.956 244.426 127.154 244.559C127.451 244.759 127.781 244.925 128.11 245.059C128.374 245.192 128.671 245.292 128.902 245.459C129.001 245.525 129.1 245.592 129.166 245.659C129.288 245.757 129.429 245.856 129.574 245.914C129.672 245.954 129.78 245.96 129.884 245.94C129.92 245.933 129.958 245.924 129.996 245.915C130.058 245.9 130.117 245.877 130.178 245.856V245.856C130.229 245.839 130.28 245.817 130.333 245.804C130.768 245.7 131.204 245.764 131.639 245.859C131.936 245.892 132.233 245.958 132.497 245.958C133.09 245.958 133.717 245.659 134.245 245.425C134.607 245.259 135.003 245.092 135.267 244.792C135.729 244.259 135.795 243.526 135.828 242.759C135.894 241.926 135.927 241.06 136.586 240.427C136.718 240.294 136.883 240.16 137.048 240.06V240.06C137.163 240.002 137.268 239.926 137.369 239.846C137.602 239.664 137.809 239.44 137.971 239.194C138.169 238.894 138.235 238.661 138.301 238.294C138.433 237.761 138.136 237.361 138.004 236.895ZM141.434 235.795C141.467 235.462 141.302 235.129 141.005 234.929C140.709 234.729 140.445 234.695 140.115 234.862C139.587 235.095 139.258 235.962 139.258 236.495C139.258 236.861 139.291 237.261 139.389 237.594C139.488 237.894 139.422 238.194 139.389 238.494C139.324 238.827 139.06 239.061 138.994 239.361C138.961 239.56 138.928 239.76 138.895 239.927C138.829 240.26 138.763 240.56 138.664 240.893L138.631 240.993V240.993C138.579 241.098 138.648 241.239 138.757 241.281C138.875 241.327 138.984 241.349 139.093 241.327C139.192 241.302 139.291 241.182 139.376 241.039C139.433 240.944 139.489 240.849 139.554 240.76V240.76C140.247 239.627 140.676 238.328 141.071 237.095L141.335 236.295C141.368 236.128 141.434 235.962 141.434 235.795Z" fill="#FF4F52"/>
<path d="M146.199 253.822C144.742 253.476 143.111 253.859 141.676 254.135C140.797 254.234 139.884 254.48 138.97 254.725C138.056 254.97 136.714 255.576 136.864 254.225C136.979 253.019 137.974 251.714 138.54 250.77C139.303 249.718 140.321 249.035 141.466 248.536C143.005 247.823 144.601 247.586 146.255 247.824C150.246 248.31 157.026 251.462 160.427 252.27C161.723 252.577 162.915 253.323 163.713 254.283C163.968 254.652 164.222 255.02 164.28 255.497C164.466 256.157 164.327 256.741 164.061 257.14C163.367 257.9 161.84 257.845 160.834 257.761C159.145 257.668 157.56 257.137 156.172 256.499C152.273 254.186 148.467 254.361 146.199 253.822ZM150.91 260.644C151.951 260.583 152.737 260.153 153.651 259.908C154.172 259.877 154.565 259.662 155.213 259.816C155.537 259.893 156.081 260.485 156.439 260.416C158.487 260.44 155.177 257.804 154.24 257.427C151.88 256.559 149.323 255.797 146.883 255.988C146.003 256.087 144.211 256.432 143.551 257.046C141.805 258.635 145.588 257.838 146.235 257.992C147.982 258.561 148.642 260.105 150.262 260.49C150.424 260.528 150.748 260.605 150.91 260.644ZM188.229 264.884C186.355 264.131 184.411 263.669 182.329 263.791C181.288 263.852 180.409 263.951 179.495 264.197C179.137 264.266 178.154 264.803 178.084 265.095C177.772 266.408 181.462 265.28 181.948 265.396C182.92 265.627 183.29 266.948 184.193 267.47C184.644 267.731 185.165 267.701 185.523 267.632C185.916 267.417 186.31 267.202 186.703 266.988C187.686 266.45 189.051 266.466 190.081 267.173C190.323 266.152 189.166 265.261 188.229 264.884ZM197.713 260.972C196.475 258.982 194.057 257.637 191.72 257.39C189.025 257.213 186.133 257.142 183.345 256.634C183.021 256.557 182.859 256.519 182.535 256.442C179.585 255.895 175.398 257.675 173.084 255.892C172.216 255.224 171.51 254.594 170.411 254.179C169.717 254.938 170.446 256.191 171.083 257.112C172.101 258.587 170.794 259.047 169.395 259.177C168.516 259.277 166.11 259.322 168.042 260.551C168.782 261.036 169.661 260.936 170.205 261.528C170.622 261.935 170.807 262.595 170.993 263.256C171.201 264.538 171.086 265.744 171.133 266.988C171.064 269.438 170.868 271.703 171.32 274.123C171.795 277.164 169.979 276.887 169.321 279.659C169.217 280.096 169.402 280.757 169.853 281.018C170.305 281.279 170.663 281.21 171.184 281.18C179.189 280.615 171.582 262.934 174.798 263.081C176.094 263.389 177.401 262.929 178.581 262.284C184.306 259.791 191.536 261.046 195.494 265.993C196.165 266.769 197.393 269.527 198.78 268.007C199.243 267.5 199.289 266.586 199.103 265.926C198.929 264.497 198.697 262.593 197.713 260.972ZM155.475 281.764C155.116 281.833 154.723 282.048 154.654 282.34C154.55 282.777 155.094 283.369 155.51 283.776C156.216 284.406 157.153 284.783 158.287 285.052L158.611 285.129C159.421 285.322 160.265 285.368 160.612 286.067C160.705 286.397 160.798 286.727 160.694 287.165C160.659 287.311 160.59 287.603 160.555 287.749L160.521 287.895L160.648 288.079C160.775 288.263 160.937 288.302 161.099 288.34C161.585 288.456 161.944 288.387 162.695 288.103L162.857 288.141C163.251 287.927 163.806 287.75 164.095 287.973C164.257 288.012 164.384 288.196 164.546 288.234C164.708 288.273 164.836 288.457 164.998 288.496C166.224 289.095 167.6 288.343 167.993 288.128C168.19 288.021 168.549 287.952 169.104 287.776C170.18 287.569 171.29 287.216 171.463 286.487C171.567 286.049 171.313 285.68 170.734 285.234C170.317 284.827 169.67 284.673 168.825 284.627C167.819 284.542 166.94 284.641 166.06 284.741C165.702 284.81 165.181 284.84 164.823 284.909C163.261 285.001 161.931 284.839 161.028 284.316C160.577 284.055 160.288 283.832 159.871 283.425C159.293 282.979 158.714 282.534 158.101 282.234C157.326 281.896 156.192 281.626 155.475 281.764ZM145.667 285.599C146.488 285.024 147.147 284.41 147.771 283.942C148.199 283.581 148.627 283.22 149.252 282.752C149.68 282.391 150.304 281.923 150.732 281.562C151.391 280.948 152.247 280.227 153.068 279.651L153.299 279.398C154.71 278.5 156.318 277.495 156.271 276.251C156.306 276.105 156.282 275.483 155.831 275.221C155.218 274.922 154.559 275.536 153.738 276.111C153.541 276.219 153.506 276.365 153.344 276.326C152.523 276.902 151.737 277.331 150.916 277.907C149.736 278.552 148.522 279.342 147.469 280.171C146.648 280.746 145.92 281.652 145.099 282.228L144.833 282.627C144.636 282.735 144.405 282.988 144.174 283.241C143.352 283.817 142.462 284.684 142.289 285.414C142.312 286.036 142.636 286.113 142.925 286.335L143.087 286.374C143.087 286.374 143.249 286.412 143.411 286.451L143.573 286.489L143.735 286.528C144.256 286.497 144.718 285.991 145.146 285.63C145.435 285.853 145.47 285.707 145.667 285.599ZM179.052 287.673C178.74 286.828 178.392 286.129 177.918 285.245C177.57 284.546 177.223 283.847 176.876 283.148C176.783 282.818 175.707 280.867 174.666 280.928C174.342 280.851 174.11 281.104 173.937 281.834C173.799 282.417 174.366 283.631 174.933 284.845L175.026 285.175C175.118 285.505 175.755 286.427 176.322 287.641C176.924 288.708 177.526 289.776 177.873 290.475C178.313 291.504 178.984 292.28 179.656 293.056C179.91 293.425 180.234 293.502 180.396 293.54C180.558 293.579 180.755 293.471 180.917 293.51C181.31 293.295 181.286 292.673 180.905 292.12C180.361 291.528 179.365 288.517 179.052 287.673ZM170.137 299.272C169.062 299.479 168.182 299.579 167.176 299.494C166.655 299.524 166.008 299.37 165.325 299.362C164.643 299.354 163.833 299.162 163.116 299.3C161.554 299.391 160.293 298.938 158.835 298.591C158.349 298.476 157.864 298.361 157.412 298.099C156.926 297.984 156.279 297.83 155.793 297.715C154.983 297.522 154.011 297.291 153.201 297.099C153.039 297.061 152.877 297.022 152.553 296.945C150.806 296.376 149.094 295.661 148.146 296.052C147.949 296.16 147.718 296.413 147.683 296.559C147.51 297.288 148.54 297.995 149.569 298.702C150.472 299.225 151.409 299.602 152.184 299.94C152.508 300.017 152.959 300.278 153.283 300.355C154.672 300.993 156.384 301.708 158.328 302.17C159.785 302.516 161.278 302.716 162.712 302.441C164.47 302.242 166.46 301.789 168.773 301.414C169.132 301.345 169.294 301.384 169.652 301.315C170.173 301.284 170.89 301.146 171.283 300.932C171.48 300.824 171.676 300.717 171.711 300.571C171.942 300.317 172.012 300.026 171.919 299.695C171.664 299.327 170.855 299.134 170.137 299.272ZM172.601 297.545C171.664 297.169 170.564 296.754 169.431 296.484C167.556 295.731 165.648 295.123 163.704 294.662C163.218 294.546 162.536 294.538 162.05 294.423C161.043 294.338 160.037 294.253 159.296 293.769C159.007 293.546 158.845 293.508 158.556 293.285C157.364 292.539 156.01 291.755 154.518 291.555C153.512 291.47 152.667 291.424 151.823 291.377C151.14 291.369 150.62 291.4 149.972 291.246C149.486 291.13 148.965 291.161 148.607 291.23C148.086 291.26 147.762 291.183 147.242 291.214L146.918 291.137C146.235 291.129 145.587 290.975 145.032 291.151C144.674 291.22 143.922 291.504 143.621 292.049C143.552 292.341 143.517 292.487 143.645 292.671C143.737 293.002 144.061 293.079 144.385 293.155C144.871 293.271 145.75 293.171 146.271 293.141C146.629 293.072 146.791 293.111 146.953 293.149L147.474 293.118C148.642 293.242 149.845 293.219 151.014 293.343C151.858 293.389 152.795 293.766 153.767 293.997C154.253 294.112 154.577 294.189 155.063 294.305C157.781 295.104 160.824 295.981 164.191 296.935C164.839 297.089 165.486 297.243 166.134 297.397C166.458 297.474 166.944 297.589 167.268 297.666C167.43 297.704 167.754 297.781 167.916 297.82C168.078 297.858 168.402 297.935 168.564 297.974C169.987 298.466 172.058 299.112 173.041 298.575C173.237 298.467 173.469 298.214 173.376 297.884C173.411 297.738 173.318 297.408 173.156 297.369C172.763 297.584 172.601 297.545 172.601 297.545ZM220.888 272.179C220.483 273.162 219.951 273.96 219.582 274.797L217.454 277.991C213.997 283.18 210.505 288.516 205.729 292.776L205.267 293.283C204.18 294.257 203.058 295.378 201.138 295.539C200.617 295.569 200.131 295.454 199.808 295.377C198.998 295.184 198.385 294.885 197.644 294.4C197.702 294.877 197.563 295.46 197.621 295.936C197.552 296.228 197.645 296.558 197.61 296.704C197.692 299.96 196.733 303.278 194.872 306.072C194.34 306.87 193.611 307.776 193.08 308.575C192.085 309.88 191.125 311.039 190.455 312.421C188.675 316.314 186.108 318.478 182.685 321.364L182.488 321.471C181.632 322.193 180.904 323.099 180.048 323.82C178.892 325.087 177.735 326.353 176.128 327.359C171.767 329.868 165.452 332.684 159.622 331.299C159.46 331.26 159.298 331.222 159.136 331.183C154.277 330.029 149.835 329.282 144.837 328.712C140.36 328.111 137.976 324.462 135.256 321.504C132.282 318.177 131.043 314.03 129.931 310.067C128.113 303.316 126.595 296.02 127.876 288.464C128.015 287.88 128.153 287.296 128.292 286.713C128.777 284.67 129.1 282.589 128.706 280.646C128.741 280.5 128.741 280.5 128.614 280.316C128.255 280.385 127.897 280.454 127.538 280.523C127.179 280.592 126.694 280.476 126.208 280.361C125.236 280.13 124.171 279.569 123.338 278.755C122.343 277.902 121.903 276.873 121.139 275.766C120.283 274.33 119.554 273.078 118.662 271.787C117.227 269.905 116.903 267.67 116.543 265.581C116.485 265.105 116.3 264.445 116.242 263.969C116.161 262.87 115.917 261.734 115.998 260.674C115.835 258.478 115.997 256.358 116.32 254.277C116.47 252.926 116.781 251.613 117.579 250.415C118.412 249.071 119.73 247.843 121.592 247.207C121.824 246.953 121.858 246.807 122.089 246.554C124.529 244.205 125.094 238.945 125.59 233.977C125.809 232.333 125.867 230.652 126.248 229.047C127.113 223.242 132.143 215.034 135.068 210.643C136.166 208.9 138.757 207.358 141.347 205.816C143.348 204.595 145.152 203.483 146.274 202.362C148.587 199.829 150.761 197.879 155.584 197.021C158.974 196.439 161.727 197.093 165.325 197.794C170.184 198.948 174.985 199.626 179.924 199.72C181.81 199.706 183.857 199.729 186.518 200.053C192.88 200.64 201.801 206.303 204.879 209.192C207.541 211.674 207.636 218.478 207.671 220.49C209.742 221.136 216.857 223.597 220.502 227.699C224.691 232.393 221.143 239.411 219.466 242.866L219.2 243.265C217.594 246.428 217.78 249.247 219.516 252.741C220.905 255.537 222.054 265.828 220.794 267.533C221.199 268.708 221.466 270.467 220.888 272.179ZM128.138 277.275C127.432 274.487 126.598 271.514 125.509 268.173C125.046 266.522 124.583 264.871 124.64 263.189C124.697 261.507 125.495 260.31 126.651 259.043C127.311 258.429 127.842 257.631 128.212 256.794C129.391 253.991 127.1 250.673 123.722 250.487C122.357 250.471 120.761 250.708 119.963 251.906C119.431 252.704 119.385 253.618 119.177 254.493C118.854 256.574 118.855 258.732 118.89 260.744C118.971 261.843 119.087 262.795 119.169 263.893C119.528 265.982 119.621 268.47 121.091 270.206C122.144 271.535 123.001 272.972 123.857 274.408C124.332 275.292 124.841 276.029 125.547 276.659C126.091 277.251 126.866 277.589 127.387 277.559C127.745 277.49 127.942 277.382 128.138 277.275ZM200.216 272.047C199.833 267.178 202.145 262.487 203.577 257.895C204.19 256.037 204.374 252.381 204.453 249.164C204.476 247.628 204.533 245.946 204.718 244.449C204.972 242.659 205.029 240.978 204.959 239.112C204.889 237.245 204.298 235.41 203.904 233.467C203.487 230.902 200.432 226.477 195.249 225.246C191.038 224.246 187.626 226.364 183.554 226.938C179.286 227.619 176.313 226.451 173.467 225.466C170.007 224.182 166.282 223.298 162.788 222.159C159.294 221.021 155.535 220.282 151.983 220.826C146.801 221.753 144.072 223.879 141.146 226.112C140.487 226.726 139.701 227.156 139.041 227.77C135.954 229.965 133.309 243.979 132.617 249.055C132.502 250.26 132.028 251.535 131.751 252.702C131.473 253.869 131.52 255.113 131.37 256.465C131.151 258.108 130.77 259.713 130.389 261.318L130.354 261.464C129.996 263.691 130.807 266.041 131.305 267.546C133.088 272.285 134.223 276.87 135.416 281.932C136.03 284.389 136.609 286.993 137.385 289.489C137.791 290.664 138.127 292.131 138.96 292.946C140.21 294.167 141.656 295.281 143.137 296.25C144.294 297.141 145.648 297.925 146.608 298.924C147.025 299.331 147.441 299.738 147.696 300.107C148.367 300.883 149.2 301.697 150.137 302.074C150.623 302.189 151.306 302.197 151.988 302.205C152.347 302.136 152.509 302.175 152.867 302.106C155.274 302.061 157.472 302.891 159.635 303.868C161.058 304.36 162.447 304.998 163.742 305.305C166.658 305.998 170.047 305.416 172.881 305.01C174.836 304.704 176.953 304.436 178.56 303.431C181.382 301.635 182.468 298.502 183.427 295.185C184.618 291.615 185.681 287.86 189.578 285.857C190.365 285.428 191.313 285.036 192.227 284.791C192.586 284.722 192.944 284.653 193.141 284.546C194.806 284.017 196.379 283.157 197.663 282.075C198.947 280.993 199.513 280.048 200.218 278.52C201.421 276.34 200.379 274.243 200.216 272.047ZM218.204 271.233C218.712 269.813 218.249 268.161 216.999 266.94C215.749 265.718 214.488 265.264 212.695 265.609C209.861 266.015 207.341 269.423 206.786 271.758C206.405 273.363 206.151 275.152 206.291 276.726C206.465 278.155 205.829 279.391 205.355 280.665C204.685 282.047 203.146 282.761 202.511 283.997C202.141 284.834 201.771 285.671 201.436 286.362C200.765 287.744 200.129 288.98 199.297 290.323L199.031 290.723C198.8 290.976 198.73 291.268 198.499 291.521C199.367 292.19 200.107 292.674 200.952 292.72C201.634 292.728 202.49 292.007 203.184 291.247L203.808 290.779C208.388 286.626 211.845 281.436 215.071 276.5L217.198 273.306C217.533 272.615 218.03 271.963 218.204 271.233Z" fill="#FF0000"/>
</svg>
