<svg width="65" height="24" viewBox="0 0 65 24" fill="none" xmlns="http://www.w3.org/2000/svg">
<path d="M29.136 8.684H26.098V7.088H33.938V8.684H30.9V17H29.136V8.684ZM33.0965 13.64C33.0965 13.108 33.1898 12.6273 33.3765 12.198C33.5725 11.7593 33.8338 11.386 34.1605 11.078C34.4871 10.77 34.8745 10.532 35.3225 10.364C35.7705 10.196 36.2465 10.112 36.7505 10.112C37.2545 10.112 37.7305 10.196 38.1785 10.364C38.6265 10.532 39.0138 10.77 39.3405 11.078C39.6671 11.386 39.9238 11.7593 40.1105 12.198C40.3065 12.6273 40.4045 13.108 40.4045 13.64C40.4045 14.172 40.3065 14.6573 40.1105 15.096C39.9238 15.5253 39.6671 15.894 39.3405 16.202C39.0138 16.51 38.6265 16.748 38.1785 16.916C37.7305 17.084 37.2545 17.168 36.7505 17.168C36.2465 17.168 35.7705 17.084 35.3225 16.916C34.8745 16.748 34.4871 16.51 34.1605 16.202C33.8338 15.894 33.5725 15.5253 33.3765 15.096C33.1898 14.6573 33.0965 14.172 33.0965 13.64ZM34.7765 13.64C34.7765 13.9013 34.8185 14.1533 34.9025 14.396C34.9958 14.6387 35.1265 14.8533 35.2945 15.04C35.4718 15.2267 35.6818 15.376 35.9245 15.488C36.1671 15.6 36.4425 15.656 36.7505 15.656C37.0585 15.656 37.3338 15.6 37.5765 15.488C37.8191 15.376 38.0245 15.2267 38.1925 15.04C38.3698 14.8533 38.5005 14.6387 38.5845 14.396C38.6778 14.1533 38.7245 13.9013 38.7245 13.64C38.7245 13.3787 38.6778 13.1267 38.5845 12.884C38.5005 12.6413 38.3698 12.4267 38.1925 12.24C38.0245 12.0533 37.8191 11.904 37.5765 11.792C37.3338 11.68 37.0585 11.624 36.7505 11.624C36.4425 11.624 36.1671 11.68 35.9245 11.792C35.6818 11.904 35.4718 12.0533 35.2945 12.24C35.1265 12.4267 34.9958 12.6413 34.9025 12.884C34.8185 13.1267 34.7765 13.3787 34.7765 13.64ZM41.9774 6.416H43.6574V13.066L46.2474 10.28H48.4034L45.5194 13.332L48.5854 17H46.3594L43.6854 13.57H43.6574V17H41.9774V6.416ZM50.8409 14.228C50.8969 14.732 51.0929 15.124 51.4289 15.404C51.7649 15.684 52.1709 15.824 52.6469 15.824C53.0669 15.824 53.4169 15.74 53.6969 15.572C53.9863 15.3947 54.2383 15.1753 54.4529 14.914L55.6569 15.824C55.2649 16.3093 54.8263 16.6547 54.3409 16.86C53.8556 17.0653 53.3469 17.168 52.8149 17.168C52.3109 17.168 51.8349 17.084 51.3869 16.916C50.9389 16.748 50.5516 16.51 50.2249 16.202C49.8983 15.894 49.6369 15.5253 49.4409 15.096C49.2543 14.6573 49.1609 14.172 49.1609 13.64C49.1609 13.108 49.2543 12.6273 49.4409 12.198C49.6369 11.7593 49.8983 11.386 50.2249 11.078C50.5516 10.77 50.9389 10.532 51.3869 10.364C51.8349 10.196 52.3109 10.112 52.8149 10.112C53.2816 10.112 53.7063 10.196 54.0889 10.364C54.4809 10.5227 54.8123 10.756 55.0829 11.064C55.3629 11.372 55.5776 11.7547 55.7269 12.212C55.8856 12.66 55.9649 13.178 55.9649 13.766V14.228H50.8409ZM54.2849 12.968C54.2756 12.4733 54.1216 12.086 53.8229 11.806C53.5243 11.5167 53.1089 11.372 52.5769 11.372C52.0729 11.372 51.6716 11.5167 51.3729 11.806C51.0836 12.0953 50.9063 12.4827 50.8409 12.968H54.2849ZM57.536 10.28H59.132V11.358H59.16C59.3187 11.022 59.5613 10.7327 59.888 10.49C60.2147 10.238 60.658 10.112 61.218 10.112C61.666 10.112 62.044 10.1867 62.352 10.336C62.6693 10.4853 62.926 10.6813 63.122 10.924C63.318 11.1667 63.458 11.4467 63.542 11.764C63.626 12.0813 63.668 12.4127 63.668 12.758V17H61.988V13.598C61.988 13.4113 61.9787 13.206 61.96 12.982C61.9413 12.7487 61.89 12.534 61.806 12.338C61.7313 12.1327 61.61 11.9647 61.442 11.834C61.274 11.694 61.0453 11.624 60.756 11.624C60.476 11.624 60.238 11.6707 60.042 11.764C59.8553 11.8573 59.6967 11.9833 59.566 12.142C59.4447 12.3007 59.356 12.4827 59.3 12.688C59.244 12.8933 59.216 13.108 59.216 13.332V17H57.536V10.28Z" fill="black"/>
<path d="M12.8329 15.3091C12.8329 15.3091 12.844 14.2096 11.958 13.9069C11.1744 13.639 10.8928 14.2275 10.8928 14.2275C10.8928 14.2275 10.8943 13.3368 9.9547 13.0348C9.06916 12.7498 8.68908 13.5176 8.68908 13.5176C8.68908 13.5176 8.5209 12.6518 7.59052 12.425C6.80733 12.2343 6.25056 13.0072 6.25056 13.0072L6.08458 7.33096C6.07155 6.88506 5.79757 6.14105 4.86716 6.16779C3.93721 6.19405 3.7473 6.97257 3.75977 7.39894L4.03848 16.9307C4.05208 17.3956 3.58711 17.4092 3.57352 16.9443L3.53727 15.7047C3.48572 13.9415 2.50616 12.8761 2.16582 12.5841C1.82546 12.2915 1.37742 12.1515 0.844647 12.2811C-0.0591778 12.5007 0.159822 13.1946 0.434773 13.7808C1.09828 15.1938 1.58428 17.2207 1.7422 18.1812C2.18961 20.8938 4.58422 22.9262 7.40895 22.8464C10.4898 22.7582 12.9741 20.2182 12.8864 17.1373L12.8329 15.3091Z" fill="#FFDC5D"/>
<path d="M7.01755 8.4612C7.01755 8.4612 7.01648 9.57117 7.91367 9.86847C8.70712 10.1317 8.98589 9.535 8.98589 9.535C8.98589 9.535 8.9927 10.4342 9.94389 10.7303C10.8404 11.0098 11.217 10.2312 11.217 10.2312C11.217 10.2312 11.3947 11.1036 12.336 11.324C13.1283 11.5093 13.6832 10.7239 13.6832 10.7239L13.9032 16.4521C13.9205 16.9021 14.2039 17.6506 15.1428 17.615C16.0813 17.5799 16.2658 16.7923 16.2493 16.362L15.8798 6.74305C15.8618 6.27383 16.331 6.25581 16.3491 6.72503L16.3971 7.97596C16.4654 9.75524 17.4641 10.8216 17.8103 11.1133C18.1566 11.4055 18.6102 11.5426 19.1467 11.4069C20.0571 11.1769 19.8296 10.4784 19.5466 9.88924C18.8638 8.46908 18.3545 6.42762 18.1862 5.45949C17.7095 2.72553 15.2735 0.696041 12.4229 0.802706C9.31383 0.92024 6.82962 3.50711 6.94669 6.61624L7.01755 8.4612Z" fill="#FFDC5D"/>
</svg>
