<svg width="260" height="260" viewBox="0 0 260 260" fill="none" xmlns="http://www.w3.org/2000/svg">
<path d="M172.905 33.1916C161.559 39.6812 153.556 50.596 143.858 59.358C131.796 70.2134 117.114 77.7404 101.26 81.198C88.2595 84.0112 74.6771 84.0528 62.1503 88.478C37.7103 97.0528 20.9715 122.502 20.5503 148.377C20.1291 174.252 34.8503 199.337 56.4875 213.522C63.8566 218.356 71.9238 222.03 80.4075 224.416C96.3195 228.894 113.194 228.696 129.636 226.985C158.038 224.026 187.814 207.896 205.717 185.156C213.698 174.993 220.443 163.917 225.81 152.162C234.677 132.834 239.713 111.97 240.64 90.7244C241.394 72.5244 240.64 52.3484 226.2 39.0832C211.76 25.818 189.831 23.504 172.905 33.1916Z" fill="#E9CB99"/>
<path opacity="0.7" d="M172.905 33.1916C161.559 39.6812 153.556 50.596 143.858 59.358C131.796 70.2134 117.114 77.7404 101.26 81.198C88.2595 84.0112 74.6771 84.0528 62.1503 88.478C37.7103 97.0528 20.9715 122.502 20.5503 148.377C20.1291 174.252 34.8503 199.337 56.4875 213.522C63.8566 218.356 71.9238 222.03 80.4075 224.416C96.3195 228.894 113.194 228.696 129.636 226.985C158.038 224.026 187.814 207.896 205.717 185.156C213.698 174.993 220.443 163.917 225.81 152.162C234.677 132.834 239.713 111.97 240.64 90.7244C241.394 72.5244 240.64 52.3484 226.2 39.0832C211.76 25.818 189.831 23.504 172.905 33.1916Z" fill="white"/>
<path d="M143.052 241.566C194.553 241.566 236.303 230.321 236.303 216.45C236.303 202.579 194.553 191.334 143.052 191.334C91.5505 191.334 49.8003 202.579 49.8003 216.45C49.8003 230.321 91.5505 241.566 143.052 241.566Z" fill="#E9CB99"/>
<path opacity="0.5" d="M143.052 241.566C194.553 241.566 236.303 230.321 236.303 216.45C236.303 202.579 194.553 191.334 143.052 191.334C91.5505 191.334 49.8003 202.579 49.8003 216.45C49.8003 230.321 91.5505 241.566 143.052 241.566Z" fill="white"/>
<path d="M154.419 35.516H44.7875C42.2172 35.516 40.1335 37.5997 40.1335 40.17V101.629C40.1335 104.199 42.2172 106.283 44.7875 106.283H154.419C156.989 106.283 159.073 104.199 159.073 101.629V40.17C159.073 37.5997 156.989 35.516 154.419 35.516Z" fill="white"/>
<path d="M159.073 40.17V42.0108H40.1335V40.17C40.1335 38.9332 40.623 37.7468 41.4951 36.8699C42.3671 35.9929 43.5508 35.4968 44.7875 35.49H154.44C155.052 35.492 155.657 35.6148 156.221 35.8513C156.786 36.0878 157.298 36.4333 157.728 36.8681C158.159 37.3029 158.499 37.8184 158.73 38.385C158.961 38.9516 159.077 39.5582 159.073 40.17V40.17Z" fill="#E9CB99"/>
<path d="M154.419 35.516H44.7875C42.2172 35.516 40.1335 37.5997 40.1335 40.17V101.629C40.1335 104.199 42.2172 106.283 44.7875 106.283H154.419C156.989 106.283 159.073 104.199 159.073 101.629V40.17C159.073 37.5997 156.989 35.516 154.419 35.516Z" stroke="#263238" stroke-linecap="round" stroke-linejoin="round"/>
<path d="M159.073 40.17V42.0108H40.1335V40.17C40.1335 38.9332 40.623 37.7468 41.4951 36.8699C42.3671 35.9929 43.5508 35.4968 44.7875 35.49H154.44C155.052 35.492 155.657 35.6148 156.221 35.8513C156.786 36.0878 157.298 36.4333 157.728 36.8681C158.159 37.3029 158.499 37.8184 158.73 38.385C158.961 38.9516 159.077 39.5582 159.073 40.17V40.17Z" stroke="#263238" stroke-linecap="round" stroke-linejoin="round"/>
<path d="M53.4924 38.7608C53.4935 38.9965 53.4245 39.2273 53.2943 39.4238C53.1641 39.6203 52.9784 39.7737 52.7609 39.8647C52.5434 39.9556 52.3039 39.9799 52.0725 39.9346C51.8412 39.8892 51.6285 39.7762 51.4615 39.6099C51.2944 39.4435 51.1805 39.2314 51.1341 39.0002C51.0877 38.7691 51.111 38.5294 51.201 38.3115C51.291 38.0936 51.4436 37.9073 51.6395 37.7762C51.8355 37.6452 52.0659 37.5752 52.3016 37.5752C52.6165 37.5752 52.9186 37.6999 53.1418 37.9221C53.365 38.1443 53.4911 38.4459 53.4924 38.7608Z" fill="#263238"/>
<path d="M59.7063 38.7608C59.7073 38.9965 59.6384 39.2273 59.5081 39.4238C59.3779 39.6203 59.1923 39.7737 58.9748 39.8647C58.7573 39.9556 58.5177 39.9799 58.2864 39.9346C58.0551 39.8892 57.8424 39.7762 57.6753 39.6099C57.5083 39.4435 57.3943 39.2314 57.348 39.0002C57.3016 38.7691 57.3249 38.5294 57.4149 38.3115C57.5048 38.0936 57.6575 37.9073 57.8534 37.7762C58.0493 37.6452 58.2798 37.5752 58.5155 37.5752C58.8304 37.5752 59.1325 37.6999 59.3557 37.9221C59.5789 38.1443 59.7049 38.4459 59.7063 38.7608V38.7608Z" fill="#263238"/>
<path d="M64.7294 39.9516C65.387 39.9516 65.9202 39.4185 65.9202 38.7608C65.9202 38.1031 65.387 37.57 64.7294 37.57C64.0717 37.57 63.5386 38.1031 63.5386 38.7608C63.5386 39.4185 64.0717 39.9516 64.7294 39.9516Z" fill="#263238"/>
<path d="M82.732 47.164H49.1036C48.0439 47.164 47.1848 48.023 47.1848 49.0828V65.26C47.1848 66.3197 48.0439 67.1788 49.1036 67.1788H82.732C83.7917 67.1788 84.6508 66.3197 84.6508 65.26V49.0828C84.6508 48.023 83.7917 47.164 82.732 47.164Z" stroke="#263238" stroke-linecap="round" stroke-linejoin="round"/>
<path d="M49.3896 64.662H81.874" stroke="#263238" stroke-linecap="round" stroke-linejoin="round"/>
<path d="M55.5725 60.84H51.8025V64.61H55.5725V60.84Z" fill="#E9CB99" stroke="#263238" stroke-miterlimit="10"/>
<path d="M61.0898 55.8844H57.3198V64.662H61.0898V55.8844Z" fill="#E9CB99" stroke="#263238" stroke-miterlimit="10"/>
<path d="M67.3037 57.3924H63.5337V64.7504H67.3037V57.3924Z" fill="#E9CB99" stroke="#263238" stroke-miterlimit="10"/>
<path d="M73.8349 50.0656H70.0649V64.4956H73.8349V50.0656Z" fill="#E9CB99" stroke="#263238" stroke-miterlimit="10"/>
<path d="M80.3608 50.18H76.5908V64.61H80.3608V50.18Z" fill="#E9CB99" stroke="#263238" stroke-miterlimit="10"/>
<path d="M131.102 68.2136C136.924 68.2136 141.643 63.4945 141.643 57.6732C141.643 51.8519 136.924 47.1328 131.102 47.1328C125.281 47.1328 120.562 51.8519 120.562 57.6732C120.562 63.4945 125.281 68.2136 131.102 68.2136Z" fill="#E9CB99" stroke="#263238" stroke-miterlimit="10"/>
<path d="M131.966 64.246V65.3276H130.198V64.246C129.472 64.0703 128.829 63.6472 128.381 63.0493C127.934 62.4514 127.708 61.7162 127.743 60.97V60.4812L129.745 60.2628V60.7828C129.745 61.7864 130.265 62.3948 131.082 62.3948C131.259 62.4095 131.437 62.3857 131.604 62.325C131.771 62.2643 131.923 62.1681 132.05 62.0431C132.176 61.9182 132.274 61.7673 132.337 61.6009C132.4 61.4345 132.426 61.2565 132.413 61.0792C132.413 60.1172 131.513 59.2904 130.453 58.4116C129.194 57.3716 127.941 56.134 127.941 54.3868C127.941 52.6396 128.763 51.4592 130.198 51.1056V50.0188H131.966V51.0952C133.417 51.4332 134.259 52.6552 134.259 54.3972V54.7508L132.257 54.964V54.6C132.257 53.56 131.846 52.988 131.118 52.988C130.39 52.988 129.979 53.4404 129.979 54.3036C129.979 55.2656 130.905 56.0716 131.945 56.9712C133.183 58.0112 134.457 59.2488 134.457 60.996C134.487 61.7435 134.255 62.4781 133.8 63.0719C133.344 63.6657 132.696 64.0812 131.966 64.246V64.246Z" fill="#263238"/>
<path d="M46.3113 77.402H49.3897" stroke="#263238" stroke-linecap="round" stroke-linejoin="round"/>
<path d="M46.3113 83.3508H49.3897" stroke="#263238" stroke-linecap="round" stroke-linejoin="round"/>
<path d="M46.3113 89.3048H49.3897" stroke="#263238" stroke-linecap="round" stroke-linejoin="round"/>
<path d="M46.3113 95.2536H49.3897" stroke="#263238" stroke-linecap="round" stroke-linejoin="round"/>
<path d="M56.1758 99.7464V97.3544" stroke="#263238" stroke-linecap="round" stroke-linejoin="round"/>
<path d="M61.0532 99.7464V97.3544" stroke="#263238" stroke-linecap="round" stroke-linejoin="round"/>
<path d="M65.9307 99.7464V97.3544" stroke="#263238" stroke-linecap="round" stroke-linejoin="round"/>
<path d="M70.8135 99.7464V97.3544" stroke="#263238" stroke-linecap="round" stroke-linejoin="round"/>
<path d="M75.6914 99.7464V97.3544" stroke="#263238" stroke-linecap="round" stroke-linejoin="round"/>
<path d="M80.5688 99.7464V97.3544" stroke="#263238" stroke-linecap="round" stroke-linejoin="round"/>
<path d="M85.4463 99.7464V97.3544" stroke="#263238" stroke-linecap="round" stroke-linejoin="round"/>
<path d="M90.3291 99.7464V97.3544" stroke="#263238" stroke-linecap="round" stroke-linejoin="round"/>
<path d="M95.2065 99.7464V97.3544" stroke="#263238" stroke-linecap="round" stroke-linejoin="round"/>
<path d="M100.084 99.7464V97.3544" stroke="#263238" stroke-linecap="round" stroke-linejoin="round"/>
<path d="M104.962 99.7464V97.3544" stroke="#263238" stroke-linecap="round" stroke-linejoin="round"/>
<path d="M109.845 99.7464V97.3544" stroke="#263238" stroke-linecap="round" stroke-linejoin="round"/>
<path d="M114.722 99.7464V97.3544" stroke="#263238" stroke-linecap="round" stroke-linejoin="round"/>
<path d="M119.6 99.7464V97.3544" stroke="#263238" stroke-linecap="round" stroke-linejoin="round"/>
<path d="M124.478 99.7464V97.3544" stroke="#263238" stroke-linecap="round" stroke-linejoin="round"/>
<path d="M129.173 99.7464V97.3544" stroke="#263238" stroke-linecap="round" stroke-linejoin="round"/>
<path d="M133.869 99.7464V97.3544" stroke="#263238" stroke-linecap="round" stroke-linejoin="round"/>
<path d="M138.559 99.7464V97.3544" stroke="#263238" stroke-linecap="round" stroke-linejoin="round"/>
<path d="M150.977 73.762V96.8812C150.977 98.4672 149.365 99.7464 147.378 99.7464H49.92C49.3266 99.7674 48.7363 99.6512 48.1952 99.4068C47.654 99.1623 47.1766 98.7963 46.8 98.3372C46.4747 97.9203 46.2924 97.4098 46.28 96.8812V73.762C46.28 72.202 47.892 70.8968 49.8784 70.8968H147.378C149.365 70.8968 150.977 72.176 150.977 73.762Z" stroke="#E9CB99" stroke-linecap="round" stroke-linejoin="round"/>
<path d="M121.316 28.9848L90.2044 70.8968L78.3068 86.9232L65.3068 78.6448L49.4 99.7464H49.1712C48.6724 99.7468 48.1822 99.617 47.749 99.3699C47.3158 99.1227 46.9546 98.7667 46.7012 98.3372L64.5736 74.62L77.5736 82.8828L86.4708 70.9228L118.914 27.2428L121.316 28.9848Z" fill="#263238"/>
<path d="M113.422 29.5152L124.857 22.5836L121.696 34.5748L119.678 29.0264L113.422 29.5152Z" fill="#263238"/>
<path d="M221.64 161.47H38.7608L18.2625 179.696" stroke="#263238" stroke-linecap="round" stroke-linejoin="round"/>
<path d="M38.8752 148.71V113.272" stroke="#263238" stroke-linecap="round" stroke-linejoin="round"/>
<path d="M38.8752 159.411V152.558" stroke="#263238" stroke-linecap="round" stroke-linejoin="round"/>
<path d="M210.632 75.2544C210.632 75.2544 210.632 73.112 207.631 70.1168C204.631 67.1216 202.707 65.4056 202.707 65.4056C202.707 65.4056 201.204 70.33 203.991 73.3304C206.038 75.444 208.26 77.3817 210.632 79.1232V75.2544Z" fill="#E9CB99"/>
<path d="M206.279 88.634C206.279 88.634 206.279 86.4916 203.279 83.4912C200.278 80.4908 198.354 78.78 198.354 78.78C198.354 78.78 196.857 83.7044 199.639 86.7048C201.688 88.8173 203.909 90.7566 206.279 92.5028V88.634Z" fill="#E9CB99"/>
<path d="M210.439 78.9048C210.439 78.9048 210.668 76.7728 213.964 74.1052C217.261 71.4376 219.362 69.9452 219.362 69.9452C219.362 69.9452 220.329 75.0152 217.246 77.688C214.986 79.569 212.574 81.2579 210.033 82.7372L210.439 78.9048Z" fill="#E9CB99"/>
<path d="M205.182 94.7024C205.182 94.7024 205.634 92.6224 209.191 90.3032C212.748 87.984 214.989 86.7256 214.989 86.7256C214.989 86.7256 215.421 91.858 212.087 94.2084C209.644 95.8414 207.068 97.266 204.386 98.4672L205.182 94.7024Z" fill="#E9CB99"/>
<path d="M206.175 111.92C206.175 111.92 206.175 109.777 209.17 106.782C212.166 103.787 214.095 102.071 214.095 102.071C214.095 102.071 215.598 107 212.811 109.996C210.766 112.112 208.547 114.052 206.175 115.794V111.92Z" fill="#E9CB99"/>
<path d="M206.123 116.126C206.123 116.126 206.425 114.005 203.882 110.614C201.339 107.224 199.68 105.248 199.68 105.248C199.68 105.248 197.507 109.928 199.831 113.277C201.559 115.655 203.483 117.885 205.582 119.943L206.123 116.126Z" fill="#E9CB99"/>
<path d="M203.164 128.58C203.164 128.58 203.164 126.443 206.164 123.443C209.165 120.442 211.089 118.763 211.089 118.763C211.089 118.763 212.592 123.687 209.804 126.682C207.757 128.798 205.536 130.737 203.164 132.48V128.58Z" fill="#E9CB99"/>
<path d="M205.166 139.88C205.166 139.88 204.646 137.8 206.773 134.16C208.9 130.52 210.346 128.362 210.346 128.362C210.346 128.362 213.039 132.751 211.11 136.354C209.663 138.915 208.003 141.351 206.149 143.634L205.166 139.88Z" fill="#E9CB99"/>
<path d="M210.902 74.724C210.75 76.9526 210.476 79.1712 210.08 81.3696C208.895 87.4952 205.92 91.4472 204.745 96.9696C203.57 102.492 206.965 109.632 206.055 116.73C205.145 123.828 202.374 127.785 203.154 132.527C203.934 137.27 208.094 150.103 208.094 150.103" stroke="#263238" stroke-width="1.17749" stroke-linecap="round" stroke-linejoin="round"/>
<path d="M210.413 80.3296L213.642 77.844" stroke="#263238" stroke-width="1.17749" stroke-linecap="round" stroke-linejoin="round"/>
<path d="M210.559 77.4748L209.212 75.0672" stroke="#263238" stroke-width="1.17749" stroke-linecap="round" stroke-linejoin="round"/>
<path d="M204.927 96.72C204.927 96.72 207.631 94.6868 210.413 92.6588" stroke="#263238" stroke-width="1.17749" stroke-linecap="round" stroke-linejoin="round"/>
<path d="M206.279 92.4768C206.279 92.4768 204.022 88.0568 201.469 85.124" stroke="#263238" stroke-width="1.17749" stroke-linecap="round" stroke-linejoin="round"/>
<path d="M206.279 114.967C207.829 112.121 209.781 109.515 212.077 107.229" stroke="#263238" stroke-width="1.17749" stroke-linecap="round" stroke-linejoin="round"/>
<path d="M205.754 117.972C204.925 116.038 203.937 114.175 202.8 112.403C201.24 110.074 200.991 109.772 200.991 109.772" stroke="#263238" stroke-width="1.17749" stroke-linecap="round" stroke-linejoin="round"/>
<path d="M203.164 132.522C203.851 130.819 204.666 129.171 205.603 127.592C206.538 126.122 207.592 124.731 208.754 123.432" stroke="#263238" stroke-width="1.17749" stroke-linecap="round" stroke-linejoin="round"/>
<path d="M206.144 143.608C205.987 141.984 206.267 140.346 206.955 138.866C208.084 136.687 209.358 133.827 209.888 132.704" stroke="#263238" stroke-width="1.17749" stroke-linecap="round" stroke-linejoin="round"/>
<path d="M190.996 103.865C190.996 103.865 190.762 102.528 192.317 100.318C193.872 98.1084 194.917 96.824 194.917 96.824C194.917 96.824 196.389 99.7464 194.969 101.93C193.915 103.476 192.732 104.93 191.433 106.278L190.996 103.865Z" fill="#E9CB99"/>
<path d="M195.177 111.8C195.177 111.8 194.943 110.453 196.498 108.248C198.053 106.044 199.098 104.759 199.098 104.759C199.098 104.759 200.569 107.687 199.15 109.866C198.097 111.412 196.914 112.867 195.614 114.213L195.177 111.8Z" fill="#E9CB99"/>
<path d="M191.511 106.132C191.511 106.132 191.147 104.822 188.781 103.532C186.415 102.242 184.943 101.504 184.943 101.504C184.943 101.504 184.886 104.764 187.117 106.132C188.737 107.067 190.433 107.863 192.187 108.514L191.511 106.132Z" fill="#E9CB99"/>
<path d="M196.524 115.466C196.524 115.466 196.004 114.202 193.529 113.147C191.053 112.091 189.499 111.535 189.499 111.535C189.499 111.535 189.785 114.795 192.14 115.908C193.85 116.666 195.621 117.28 197.434 117.744L196.524 115.466Z" fill="#E9CB99"/>
<path d="M197.772 126.36C197.772 126.36 197.538 125.018 195.333 123.464C193.128 121.909 191.729 121.04 191.729 121.04C191.729 121.04 191.324 124.301 193.399 125.871C194.911 126.97 196.513 127.939 198.188 128.768L197.772 126.36Z" fill="#E9CB99"/>
<path d="M198.255 129.007C198.255 129.007 197.834 127.712 199.061 125.31C200.289 122.907 201.141 121.488 201.141 121.488C201.141 121.488 203.013 124.171 201.921 126.537C201.089 128.216 200.118 129.823 199.02 131.342L198.255 129.007Z" fill="#E9CB99"/>
<path d="M202.02 139.838C202.02 139.838 202.176 138.486 204.287 136.807C206.399 135.127 207.745 134.207 207.745 134.207C207.745 134.207 208.338 137.431 206.357 139.126C204.91 140.309 203.367 141.37 201.745 142.298L202.02 139.838Z" fill="#E9CB99"/>
<path d="M201.464 136.5C201.464 136.5 201.23 135.153 199.025 133.598C196.82 132.044 195.427 131.18 195.427 131.18C195.427 131.18 195.021 134.441 197.091 136.011C198.605 137.109 200.209 138.078 201.885 138.908L201.464 136.5Z" fill="#E9CB99"/>
<path d="M201.433 143.801C201.433 143.801 201.552 142.438 199.81 140.379C198.068 138.32 196.94 137.119 196.94 137.119C196.94 137.119 195.723 140.161 197.33 142.215C198.517 143.663 199.821 145.011 201.23 146.245L201.433 143.801Z" fill="#E9CB99"/>
<path d="M190.762 103.553C191.101 104.935 191.516 106.298 192.005 107.635C193.409 111.342 195.697 113.5 197.039 116.839C198.38 120.177 197.039 125.018 198.365 129.371C199.691 133.723 201.875 135.892 201.89 138.965C201.906 142.038 200.72 150.53 200.72 150.53" stroke="#263238" stroke-width="1.17749" stroke-linecap="round" stroke-linejoin="round"/>
<path d="M191.683 107.021L189.39 105.82" stroke="#263238" stroke-width="1.17749" stroke-linecap="round" stroke-linejoin="round"/>
<path d="M191.277 105.248L191.865 103.594" stroke="#263238" stroke-width="1.17749" stroke-linecap="round" stroke-linejoin="round"/>
<path d="M196.904 116.698C196.904 116.698 194.985 115.721 193.024 114.748" stroke="#263238" stroke-width="1.17749" stroke-linecap="round" stroke-linejoin="round"/>
<path d="M195.593 114.213C196.157 112.433 196.901 110.715 197.814 109.086" stroke="#263238" stroke-width="1.17749" stroke-linecap="round" stroke-linejoin="round"/>
<path d="M198.037 128.294C196.757 126.679 195.251 125.257 193.565 124.072" stroke="#263238" stroke-width="1.17749" stroke-linecap="round" stroke-linejoin="round"/>
<path d="M198.692 130.125C198.996 128.825 199.408 127.554 199.925 126.324C200.648 124.686 200.772 124.472 200.772 124.472" stroke="#263238" stroke-width="1.17749" stroke-linecap="round" stroke-linejoin="round"/>
<path d="M201.792 141.284C202.536 140.36 203.36 139.504 204.256 138.726C204.827 138.303 205.362 137.835 205.858 137.327" stroke="#263238" stroke-width="1.17749" stroke-linecap="round" stroke-linejoin="round"/>
<path d="M201.89 138.965C201.269 137.973 200.573 137.029 199.81 136.141C199.064 135.326 198.251 134.573 197.382 133.89" stroke="#263238" stroke-width="1.17749" stroke-linecap="round" stroke-linejoin="round"/>
<path d="M201.24 146.245C201.158 145.204 200.799 144.204 200.2 143.348C199.254 142.1 198.12 140.447 197.694 139.797" stroke="#263238" stroke-width="1.17749" stroke-linecap="round" stroke-linejoin="round"/>
<path d="M211.214 165.173H197.559C197.287 165.173 197.026 165.067 196.832 164.877C196.638 164.688 196.525 164.43 196.519 164.159L194.558 149.048H214.173L212.212 164.159C212.206 164.423 212.099 164.675 211.913 164.863C211.728 165.052 211.478 165.162 211.214 165.173Z" fill="#263238"/>
<path d="M214.017 151.601H194.579C194.175 151.602 193.786 151.443 193.499 151.159C193.211 150.874 193.048 150.487 193.045 150.082V150.082C193.052 149.679 193.215 149.293 193.5 149.007C193.785 148.721 194.17 148.556 194.574 148.548H214.017C214.218 148.548 214.418 148.587 214.604 148.663C214.79 148.74 214.959 148.852 215.101 148.994C215.244 149.136 215.357 149.305 215.434 149.491C215.511 149.677 215.551 149.876 215.551 150.077V150.077C215.55 150.278 215.51 150.477 215.433 150.662C215.355 150.847 215.242 151.015 215.1 151.157C214.957 151.298 214.788 151.41 214.602 151.486C214.417 151.563 214.218 151.601 214.017 151.601V151.601Z" fill="#263238"/>
<path d="M170.196 91.1612C170.195 95.4288 168.749 99.5703 166.093 102.91C163.436 106.251 159.727 108.592 155.569 109.554H155.511C155.017 109.663 154.523 109.762 154.014 109.834C153.12 109.962 152.218 110.026 151.315 110.027C146.38 110.009 141.647 108.06 138.131 104.596C134.615 101.132 132.596 96.4289 132.505 91.4942C132.414 86.5595 134.258 81.7853 137.644 78.194C141.03 74.6027 145.687 72.4798 150.618 72.28C150.79 72.28 150.972 72.28 151.138 72.28C151.194 72.2748 151.249 72.2748 151.305 72.28C151.369 72.2748 151.433 72.2748 151.497 72.28C154.045 72.2964 156.561 72.8363 158.891 73.866C162.253 75.3385 165.112 77.7584 167.12 80.83C169.127 83.9016 170.196 87.4917 170.196 91.1612Z" fill="#E9CB99"/>
<path opacity="0.4" d="M158.902 73.8712C137.098 72.7376 136.994 96.9436 136.994 96.9436C136.994 96.9436 133.666 89.0448 139.1 80.3036C142.137 75.4104 147.42 73.2524 151.507 72.2956C154.054 72.3088 156.571 72.8451 158.902 73.8712V73.8712Z" fill="white"/>
<path d="M170.196 91.1612C170.196 95.4393 168.743 99.5906 166.075 102.935C163.407 106.279 159.682 108.618 155.511 109.569C154.135 109.886 152.727 110.045 151.315 110.042C146.307 110.135 141.468 108.234 137.862 104.759C134.256 101.283 132.178 96.5172 132.085 91.5096C131.993 86.502 133.894 81.6628 137.369 78.0565C140.845 74.4503 145.61 72.3724 150.618 72.28C150.847 72.28 151.081 72.28 151.315 72.28C156.322 72.2814 161.124 74.2711 164.664 77.8117C168.205 81.3523 170.195 86.154 170.196 91.1612V91.1612Z" stroke="#263238" stroke-linecap="round" stroke-linejoin="round"/>
<path d="M170.196 91.1612C170.196 95.4393 168.743 99.5906 166.075 102.935C163.407 106.279 159.683 108.618 155.511 109.569C155.283 109.569 155.049 109.569 154.815 109.569C150.18 109.557 145.712 107.841 142.26 104.748C138.809 101.655 136.615 97.4006 136.097 92.795C135.578 88.1893 136.772 83.5539 139.449 79.7711C142.127 75.9882 146.102 73.322 150.618 72.28C150.847 72.28 151.081 72.28 151.315 72.28C156.322 72.2814 161.124 74.2711 164.665 77.8117C168.205 81.3523 170.195 86.154 170.196 91.1612V91.1612Z" stroke="#263238" stroke-linecap="round" stroke-linejoin="round"/>
<path d="M157.82 102.96L158.309 104.957L155.043 105.752L154.554 103.761C151.632 103.761 149.287 101.863 148.538 98.8156L148.314 97.9108L151.918 96.6056L152.147 97.5468C152.599 99.398 153.821 100.287 155.345 99.9128C155.679 99.8608 155.998 99.7368 156.28 99.5495C156.562 99.3621 156.8 99.1158 156.977 98.8276C157.155 98.5394 157.268 98.2162 157.308 97.8801C157.349 97.5441 157.316 97.2033 157.212 96.8812C156.775 95.1028 154.736 93.99 152.376 92.8408C149.583 91.4888 146.702 89.7728 145.912 86.5436C145.142 83.3924 146.11 80.7664 148.6 79.4664L148.112 77.4696L151.372 76.674L151.861 78.6656C154.695 78.624 156.806 80.4908 157.581 83.7148L157.742 84.37L154.144 85.6752L153.962 84.9524C153.483 82.992 152.474 82.1652 151.133 82.4928C149.791 82.8204 149.235 83.8448 149.625 85.436C150.062 87.2144 152.126 88.2856 154.461 89.4816C157.222 90.8804 160.134 92.5496 160.924 95.7736C161.72 98.878 160.451 101.644 157.82 102.96Z" stroke="#263238" stroke-miterlimit="10"/>
<path opacity="0.3" d="M157.82 102.96L158.309 104.957L155.043 105.752L154.554 103.761C151.632 103.761 149.287 101.863 148.538 98.8156L148.314 97.9108L151.918 96.6056L152.147 97.5468C152.599 99.398 153.821 100.287 155.345 99.9128C155.679 99.8608 155.998 99.7368 156.28 99.5495C156.562 99.3621 156.8 99.1158 156.977 98.8276C157.155 98.5394 157.268 98.2162 157.308 97.8801C157.349 97.5441 157.316 97.2033 157.212 96.8812C156.775 95.1028 154.736 93.99 152.376 92.8408C149.583 91.4888 146.702 89.7728 145.912 86.5436C145.142 83.3924 146.11 80.7664 148.6 79.4664L148.112 77.4696L151.372 76.674L151.861 78.6656C154.695 78.624 156.806 80.4908 157.581 83.7148L157.742 84.37L154.144 85.6752L153.962 84.9524C153.483 82.992 152.474 82.1652 151.133 82.4928C149.791 82.8204 149.235 83.8448 149.625 85.436C150.062 87.2144 152.126 88.2856 154.461 89.4816C157.222 90.8804 160.134 92.5496 160.924 95.7736C161.72 98.878 160.451 101.644 157.82 102.96Z" fill="black"/>
<path d="M141.664 107.396L145.652 107.214" stroke="#263238" stroke-linecap="round" stroke-linejoin="round"/>
<path d="M139.745 106.07L143.224 105.773" stroke="#263238" stroke-linecap="round" stroke-linejoin="round"/>
<path d="M138.185 104.671L141.664 104.374" stroke="#263238" stroke-linecap="round" stroke-linejoin="round"/>
<path d="M137.707 78.0676H140.686" stroke="#263238" stroke-linecap="round" stroke-linejoin="round"/>
<path d="M139.178 76.6948L142.147 76.5596" stroke="#263238" stroke-linecap="round" stroke-linejoin="round"/>
<path d="M141.04 75.3168L144.17 75.0204" stroke="#263238" stroke-linecap="round" stroke-linejoin="round"/>
<path opacity="0.3" d="M155.569 109.554H155.511C154.135 109.87 152.727 110.029 151.315 110.027C146.38 110.009 141.647 108.06 138.131 104.596C134.615 101.132 132.596 96.4289 132.505 91.4942C132.414 86.5595 134.258 81.7853 137.644 78.194C141.03 74.6027 145.687 72.4798 150.618 72.28C150.79 72.28 150.972 72.28 151.138 72.28C146.536 73.7308 138.814 77.4384 136.75 85.1708C133.833 96.1584 140.4 108.633 155.569 109.554Z" fill="black"/>
<path opacity="0.1" d="M170.196 91.1612C170.195 95.4288 168.749 99.5703 166.092 102.91C163.436 106.251 159.726 108.592 155.568 109.554H155.511C155.017 109.663 154.523 109.762 154.014 109.834L158.902 73.8556C162.262 75.3303 165.121 77.7526 167.127 80.8261C169.132 83.8996 170.199 87.4911 170.196 91.1612Z" fill="black"/>
<path d="M180.908 61.438C179.413 63.5498 177.246 65.0924 174.761 65.8139C172.276 66.5355 169.62 66.3934 167.227 65.4108L167.159 65.3796C166.804 65.2235 166.457 65.05 166.119 64.8596C165.737 64.6544 165.369 64.4252 165.017 64.1732C162.713 62.4141 161.163 59.8461 160.68 56.9883C160.197 54.1304 160.817 51.1957 162.414 48.7771C164.011 46.3585 166.467 44.6363 169.285 43.9585C172.103 43.2807 175.073 43.6979 177.595 45.1256L177.85 45.2868C177.97 45.3544 178.084 45.4376 178.204 45.5208C178.323 45.604 178.552 45.7756 178.724 45.9108C180.997 47.734 182.489 50.3559 182.894 53.2414C183.3 56.1269 182.59 59.0585 180.908 61.438Z" fill="#E9CB99"/>
<path opacity="0.4" d="M163.675 61.594C163.675 61.594 161.808 56.0976 164.289 52.052C167.409 46.982 172.187 44.668 178.693 45.916C178.693 45.916 175.167 43.5344 169.265 45.2244C163.363 46.9144 160.196 55.0368 163.675 61.594Z" fill="white"/>
<path d="M180.908 61.4432C179.411 63.5532 177.244 65.0937 174.759 65.8133C172.274 66.533 169.619 66.3892 167.227 65.4056C166.437 65.083 165.687 64.6713 164.991 64.1784C162.673 62.4003 161.123 59.8029 160.659 56.9186C160.195 54.0344 160.852 51.0819 162.495 48.6665C164.138 46.2512 166.643 44.556 169.497 43.9285C172.35 43.3011 175.335 43.7889 177.84 45.292C177.954 45.3596 178.074 45.4376 178.188 45.5208C180.656 47.2747 182.329 49.9355 182.838 52.92C183.348 55.9046 182.654 58.9696 180.908 61.4432Z" stroke="#263238" stroke-linecap="round" stroke-linejoin="round"/>
<path d="M180.908 61.4432C179.411 63.5532 177.244 65.0937 174.759 65.8133C172.274 66.533 169.619 66.3892 167.227 65.4056L166.878 65.1768C164.619 63.5393 163.036 61.1326 162.428 58.4095C161.819 55.6865 162.227 52.835 163.574 50.3915C164.921 47.9479 167.114 46.0809 169.742 45.1418C172.369 44.2026 175.249 44.2561 177.84 45.292C177.954 45.3596 178.074 45.4376 178.188 45.5208C180.656 47.2747 182.329 49.9354 182.838 52.92C183.348 55.9046 182.654 58.9696 180.908 61.4432Z" stroke="#263238" stroke-linecap="round" stroke-linejoin="round"/>
<path d="M170.669 62.9616L170.217 64.116L168.324 63.3724L168.777 62.2128C168.074 61.7183 167.566 60.9951 167.338 60.1669C167.11 59.3388 167.178 58.4572 167.529 57.6732L167.737 57.1532L169.973 57.7616L169.759 58.3128C169.338 59.384 169.624 60.2472 170.508 60.5956C170.692 60.6869 170.893 60.7373 171.098 60.7432C171.302 60.7491 171.506 60.7104 171.695 60.6297C171.883 60.5491 172.052 60.4285 172.189 60.2763C172.326 60.124 172.429 59.9438 172.489 59.748C172.895 58.708 172.276 57.4548 171.512 56.0664C170.607 54.4232 169.785 52.572 170.519 50.7C171.252 48.828 172.635 47.9128 174.315 48.1416L174.772 46.9872L176.66 47.7308L176.207 48.88C177.622 49.8472 178.012 51.48 177.279 53.378L177.128 53.7524L174.892 53.144L175.058 52.7228C175.505 51.5892 175.297 50.8248 174.538 50.518C173.779 50.2112 173.129 50.518 172.765 51.4488C172.359 52.4888 173.009 53.7264 173.743 55.1304C174.621 56.7892 175.474 58.63 174.741 60.4968C174.463 61.3225 173.901 62.0231 173.156 62.4742C172.411 62.9254 171.53 63.0981 170.669 62.9616V62.9616Z" stroke="#263238" stroke-miterlimit="10"/>
<path opacity="0.3" d="M170.669 62.9616L170.217 64.116L168.324 63.3724L168.777 62.2128C168.074 61.7183 167.566 60.9951 167.338 60.1669C167.11 59.3388 167.178 58.4572 167.529 57.6732L167.737 57.1532L169.973 57.7616L169.759 58.3128C169.338 59.384 169.624 60.2472 170.508 60.5956C170.692 60.6869 170.893 60.7373 171.098 60.7432C171.302 60.7491 171.506 60.7104 171.695 60.6297C171.883 60.5491 172.052 60.4285 172.189 60.2763C172.326 60.124 172.429 59.9438 172.489 59.748C172.895 58.708 172.276 57.4548 171.512 56.0664C170.607 54.4232 169.785 52.572 170.519 50.7C171.252 48.828 172.635 47.9128 174.315 48.1416L174.772 46.9872L176.66 47.7308L176.207 48.88C177.622 49.8472 178.012 51.48 177.279 53.378L177.128 53.7524L174.892 53.144L175.058 52.7228C175.505 51.5892 175.297 50.8248 174.538 50.518C173.779 50.2112 173.129 50.518 172.765 51.4488C172.359 52.4888 173.009 53.7264 173.743 55.1304C174.621 56.7892 175.474 58.63 174.741 60.4968C174.463 61.3225 173.901 62.0231 173.156 62.4742C172.411 62.9254 171.53 63.0981 170.669 62.9616V62.9616Z" fill="black"/>
<path opacity="0.3" d="M177.57 45.1308C174.45 44.5744 170.498 44.2676 168.366 45.6508C164.45 48.1624 162.011 51.3292 162.048 56.4616C162.084 61.594 166.878 65.1924 166.878 65.1924L167.159 65.3952C166.394 65.0758 165.667 64.673 164.991 64.194C162.687 62.4348 161.137 59.8669 160.654 57.0091C160.171 54.1512 160.791 51.2165 162.388 48.7979C163.985 46.3793 166.441 44.6571 169.259 43.9793C172.077 43.3015 175.047 43.7187 177.57 45.1464V45.1308Z" fill="black"/>
<path opacity="0.1" d="M180.908 61.438C179.413 63.5498 177.246 65.0924 174.761 65.8139C172.276 66.5355 169.62 66.3934 167.227 65.4108L167.159 65.3796C166.804 65.2235 166.457 65.05 166.119 64.8596L178.693 45.916C180.969 47.7346 182.466 50.3533 182.878 53.2378C183.289 56.1223 182.585 59.0552 180.908 61.438Z" fill="black"/>
<path d="M175.021 207.875C170.181 213.697 164.411 218.679 157.945 222.617C155.93 223.823 153.846 224.91 151.705 225.872C136.931 232.513 120.094 232.944 104.348 229.128C71.2398 221.104 53.6742 191.88 51.4434 159.437C50.8454 150.67 49.5038 141.201 53.0554 132.86C56.607 124.519 63.7882 119.34 71.9106 115.742C77.8074 113.116 84.1774 111.353 89.965 109.912C100.439 107.325 111.487 108.465 121.212 113.136C128.019 116.366 132.865 121.976 138.59 126.703C139.197 127.202 139.807 127.7 140.421 128.196C146.204 132.851 152.283 137.125 158.621 140.993C168.246 146.864 178.1 152.402 184.251 162.261C194.064 177.975 185.785 195.083 175.021 207.875Z" fill="#E9CB99"/>
<path opacity="0.4" d="M175.021 207.875C170.181 213.697 164.411 218.679 157.945 222.617C155.93 223.823 153.846 224.91 151.705 225.872C136.931 232.513 120.094 232.944 104.348 229.128C71.2398 221.104 53.6742 191.88 51.4434 159.437C50.8454 150.67 49.5038 141.201 53.0554 132.86C56.607 124.519 63.7882 119.34 71.9106 115.742C77.8074 113.116 84.1774 111.353 89.965 109.912C100.439 107.325 111.487 108.465 121.212 113.136C128.019 116.366 132.865 121.976 138.59 126.703C139.197 127.202 139.807 127.7 140.421 128.196C146.204 132.851 152.283 137.125 158.621 140.993C168.246 146.864 178.1 152.402 184.251 162.261C194.064 177.975 185.785 195.083 175.021 207.875Z" fill="white"/>
<path d="M140.4 128.196C139.786 127.703 139.176 127.204 138.569 126.698C132.849 121.961 127.993 116.366 121.191 113.136C111.465 108.467 100.418 107.328 89.9442 109.912C76.1798 113.329 59.1082 118.591 53.0242 132.865C49.4726 141.185 50.8142 150.67 51.4174 159.437C53.6742 191.88 71.2398 221.104 104.348 229.128C122.361 233.496 141.788 232.3 157.945 222.617C164.411 218.679 170.181 213.697 175.021 207.875C185.785 195.083 194.064 177.975 184.262 162.261C178.115 152.381 168.261 146.864 158.631 140.993C152.283 137.127 146.193 132.852 140.4 128.196V128.196Z" stroke="#263238" stroke-miterlimit="10"/>
<path d="M90.2458 186.046C87.4894 186.88 84.8143 187.962 82.2534 189.28" stroke="#263238" stroke-linecap="round" stroke-linejoin="round"/>
<path d="M107.12 182.832C103.093 183.18 99.0963 183.815 95.1597 184.73" stroke="#263238" stroke-linecap="round" stroke-linejoin="round"/>
<path d="M103.61 182C103.61 182 88.0725 172.962 69.3213 180.206" stroke="#263238" stroke-linecap="round" stroke-linejoin="round"/>
<path opacity="0.1" d="M175.021 207.875C170.181 213.697 164.411 218.679 157.944 222.617C155.929 223.823 153.846 224.91 151.704 225.872C150.014 225.355 148.352 224.745 146.728 224.047C137.025 219.887 128.882 212.852 120.926 205.915C116.126 201.755 111.248 197.491 105.502 194.75C97.7321 191.076 88.8922 190.348 80.6256 192.702C84.901 187.876 90.7138 184.677 97.0784 183.648C92.9704 179.91 87.2556 178.339 81.702 178.24C76.1484 178.142 73.0908 178.823 67.662 180.04C69.4768 176.701 74.292 173.68 78.0932 173.768C74.4796 173.721 70.8718 173.465 67.2876 173.004C62.384 172.214 60.1896 166.442 59.4564 161.533C57.4284 148.013 59.4824 133.614 66.8612 122.122C68.322 119.83 70.012 117.692 71.9052 115.742C77.802 113.116 84.172 111.353 89.9596 109.912C100.433 107.325 111.481 108.465 121.206 113.136C128.013 116.366 132.86 121.976 138.585 126.703C139.191 127.202 139.802 127.7 140.415 128.196C146.199 132.851 152.278 137.125 158.615 140.993C168.24 146.864 178.094 152.402 184.246 162.261C194.064 177.975 185.785 195.083 175.021 207.875Z" fill="black"/>
<path d="M180.44 207.48C183.355 209.904 186.406 212.161 189.576 214.24C195.759 214.656 192.987 222.128 192.987 222.128L187.694 225.534C187.694 225.534 178.63 218.332 173.68 215.998C168.729 213.663 180.44 207.48 180.44 207.48Z" fill="white"/>
<path opacity="0.3" d="M136.505 128.804C136.505 128.804 135.657 120.416 134.305 118.061L113.776 113.88V112.289C113.776 112.289 114.249 109.522 109.673 107.791C105.097 106.059 95.5599 108.311 93.1003 110.172C90.6407 112.034 91.5403 115.237 91.5403 115.237C91.5403 115.237 83.2723 119.413 79.5595 121.004C76.5202 122.406 73.5573 123.969 70.6831 125.684C70.6831 125.684 68.9983 144.966 69.3311 149.443C69.6639 153.92 69.0607 158.132 69.4455 160.612C69.8303 163.093 70.1319 164.502 72.7319 166.613C75.3319 168.724 77.6979 171.813 84.5151 168.75L83.5635 167.996L128.44 152.88L136.505 128.804Z" fill="black"/>
<path d="M136.505 128.804C136.505 128.804 135.657 120.416 134.305 118.061L113.776 113.88V112.289C113.776 112.289 114.249 109.522 109.673 107.791C105.097 106.059 95.5599 108.311 93.1003 110.172C90.6407 112.034 91.5403 115.237 91.5403 115.237C91.5403 115.237 83.2723 119.413 79.5595 121.004C76.5202 122.406 73.5573 123.969 70.6831 125.684C70.6831 125.684 68.9983 144.966 69.3311 149.443C69.6639 153.92 69.0607 158.132 69.4455 160.612C69.8303 163.093 70.1319 164.502 72.7319 166.613C75.3319 168.724 77.6979 171.813 84.5151 168.75L83.5635 167.996L128.44 152.88L136.505 128.804Z" fill="#E9CB99"/>
<path opacity="0.05" d="M136.505 128.804C136.505 128.804 135.657 120.416 134.305 118.061L113.776 113.88V112.289C113.776 112.289 114.249 109.522 109.673 107.791C105.097 106.059 95.5599 108.311 93.1003 110.172C90.6407 112.034 91.5403 115.237 91.5403 115.237C91.5403 115.237 83.2723 119.413 79.5595 121.004C76.5202 122.406 73.5573 123.969 70.6831 125.684C70.6831 125.684 68.9983 144.966 69.3311 149.443C69.6639 153.92 69.0607 158.132 69.4455 160.612C69.8303 163.093 70.1319 164.502 72.7319 166.613C75.3319 168.724 77.6979 171.813 84.5151 168.75L83.5635 167.996L128.44 152.88L136.505 128.804Z" fill="black"/>
<path opacity="0.1" d="M134.576 119.08H125.985C125.178 119.081 124.396 119.369 123.781 119.891C123.165 120.414 122.754 121.138 122.621 121.935L118.388 147.415C118.388 147.415 112.559 147.898 108.43 150.909C104.301 153.92 94.1458 132.439 78.0986 132.428C78.0986 132.428 82.7162 142.984 83.7406 151.408C83.7406 151.408 73.7098 150.316 72.0458 154.242C70.3818 158.168 72.7998 165.526 77.043 162.677C81.2862 159.827 85.2798 155.074 88.1138 158.08C90.9478 161.086 103.61 162.703 103.61 162.703L123.094 152.88L130.65 149.328L134.576 119.08Z" fill="black"/>
<path opacity="0.4" d="M107.302 106.449C107.302 106.449 112.18 107.801 112.97 109.439C113.76 111.077 113.677 115.222 113.677 115.222C112.494 117.992 110.7 120.459 108.43 122.439L104.79 115.222L105.118 123.406C105.118 123.406 98.2124 122.257 95.2796 120.052L92.352 117.842C92.352 117.842 91.0884 113.682 91.2704 112.273C91.4524 110.864 96.72 108.004 96.72 108.004L107.302 106.449Z" fill="white"/>
<path d="M188.546 232.658C188.411 232.362 190.548 228.587 188.874 224.744C187.2 220.901 184.532 222.383 184.532 222.383C184.532 222.383 176.935 217.547 173.742 216.018C171.442 214.863 169.226 213.546 167.112 212.077L163.737 216.622L166.857 226.273L188.546 232.658Z" fill="#E9CB99"/>
<path d="M184.256 222.149L194.012 228.108C194.012 228.108 200.87 223.709 204.141 220.672C207.412 217.636 214.76 211.167 214.76 211.167L219.44 204.87C219.44 204.87 216.195 200.855 210.787 204.079C203.798 208.239 195.275 214.282 189.592 214.224C189.592 214.224 190.71 221.208 184.293 222.149" fill="#E9CB99"/>
<path d="M105.648 81.2396C105.648 81.2396 110.074 87.9372 110.88 90.1056C111.686 92.274 112.336 95.4824 112.174 97.0268C112.013 98.5712 110.391 106.844 109.574 107.084L108.789 107.973L109.309 111.478C109.309 111.478 105.846 117.463 95.6643 113.074C95.6643 113.074 95.2691 106.085 94.0315 103.891C92.7939 101.696 90.9427 104.307 89.0863 97.968C87.2299 91.6292 93.1423 84.968 93.1423 84.968L105.648 81.2396Z" fill="white"/>
<path opacity="0.5" d="M215.192 202.914C215.192 202.914 210.174 203.788 208.546 206.757C206.918 209.726 203.793 215.244 202.727 217.911C201.661 220.579 192.847 227.022 192.847 227.022L194.017 228.108C194.017 228.108 201.193 223.673 205.525 219.456C209.856 215.238 219.409 204.63 219.409 204.63C219.409 204.63 218.722 203.949 215.192 202.914Z" fill="white"/>
<path opacity="0.5" d="M164.98 214.952L163.737 216.622L167.554 224.536L188.546 232.081L189.519 229.008C189.519 229.008 189.841 225.888 182.473 223.517C175.104 221.146 170.612 219.58 168.516 217.953C166.421 216.325 164.98 214.952 164.98 214.952Z" fill="white"/>
<path d="M95.6798 156.172C95.6798 156.172 89.2526 155.204 86.2522 160.462C83.2518 165.719 83.5586 167.996 83.5586 167.996C83.5586 167.996 87.807 171.855 93.6466 171.636C99.4862 171.418 107.988 164.731 110.76 162.552C113.531 160.373 120.52 154.138 125.289 155.428L125.809 150.92C125.809 150.92 125.341 148.897 121.264 149.443C117.187 149.989 115.585 152.313 114.27 152.313C112.954 152.313 111.711 151.05 109.07 155.563C109.065 155.563 99.7931 157.206 95.6798 156.172Z" fill="white"/>
<path d="M104.031 90.87C104.168 91.7126 104.362 92.5449 104.613 93.3608C104.707 93.7591 104.884 94.133 105.133 94.458C105.622 94.978 106.412 95.1132 107.135 95.2224C107.255 95.2309 107.368 95.2784 107.458 95.3576C107.516 95.4507 107.543 95.56 107.536 95.6696C107.531 96.4886 107.285 97.2882 106.828 97.968" stroke="#263238" stroke-linecap="round" stroke-linejoin="round"/>
<path opacity="0.1" d="M169.291 209.56L164.98 214.932C164.98 214.932 169.712 219.305 174.61 220.927C179.509 222.55 188.084 225.607 189.519 227.963L188.968 225.16C188.968 225.16 175.557 216.934 172.478 214.968C171.568 214.371 170.807 213.573 170.255 212.635C169.702 211.698 169.372 210.645 169.291 209.56V209.56Z" fill="black"/>
<path opacity="0.1" d="M184.256 222.149L192.842 227.022C192.842 227.022 197.08 224.12 199.16 221.983C201.24 219.846 203.803 217.474 205.4 212.685C207.578 206.066 213.818 202.914 213.818 202.914C213.818 202.914 205.14 207.002 200.621 210.194C196.102 213.387 191.698 214.739 189.139 214.521C189.113 214.536 191.167 221.036 184.256 222.149Z" fill="black"/>
<path d="M101.004 99.1484C101.004 99.1484 104.379 101.795 107.884 100.802C107.884 100.802 104.577 107.354 101.004 99.1484Z" fill="white" stroke="#263238" stroke-linecap="round" stroke-linejoin="round"/>
<path d="M100.88 93.4284C100.979 94.1564 100.755 94.7856 100.391 94.8376C100.027 94.8896 99.6475 94.3176 99.5487 93.6052C99.4499 92.8928 99.6683 92.248 100.037 92.196C100.407 92.144 100.802 92.7004 100.88 93.4284Z" fill="#263238"/>
<path d="M108.227 92.1024C108.321 92.8356 108.102 93.4648 107.738 93.5116C107.374 93.5584 106.99 92.9916 106.896 92.2844C106.802 91.5772 107.016 90.922 107.385 90.8752C107.754 90.8284 108.128 91.3744 108.227 92.1024Z" fill="#263238"/>
<path d="M100.36 90.3396C100.36 90.3396 98.3944 89.3256 96.9956 91.4992" stroke="#263238" stroke-linecap="round" stroke-linejoin="round"/>
<path d="M105.399 88.9876C105.399 88.9876 107.479 87.204 108.68 88.9876" stroke="#263238" stroke-linecap="round" stroke-linejoin="round"/>
<path d="M93.6828 97.0321C93.6828 97.0321 92.4192 95.1652 91.0828 95.2224C89.7464 95.2796 89.216 97.1516 89.6944 98.9612C90.1728 100.771 92.1644 103.298 93.6724 103.059C94.523 102.949 95.2992 102.517 95.8408 101.852" stroke="#263238" stroke-linecap="round" stroke-linejoin="round"/>
<path d="M105.799 82.7476C107.219 83.928 108.721 85.2124 109.439 86.9492C110.073 88.426 110.214 90.0692 110.796 91.5616C111.415 93.158 112.091 94.8272 112.143 96.5692C112.116 98.1809 111.904 99.7842 111.514 101.348C111.298 102.704 110.976 104.041 110.552 105.347C109.85 107.214 108.555 108.363 106.818 109.247C105.555 109.892 103.449 110.807 102.081 109.944C101.285 109.424 100.089 107.936 99.0962 106.569" stroke="#263238" stroke-linecap="round" stroke-linejoin="round"/>
<path d="M93.6831 103.059C93.6831 103.059 95.9191 108.54 95.3783 112.393" stroke="#263238" stroke-linecap="round" stroke-linejoin="round"/>
<path d="M93.1108 96.1116C93.4085 95.8914 93.6443 95.5982 93.7955 95.2602C93.9467 94.9223 94.0082 94.5511 93.974 94.1824C93.8908 93.34 93.3084 92.56 93.4228 91.7176C93.5185 91.3142 93.669 90.9258 93.87 90.5632C94.1729 89.8636 94.3062 89.1025 94.2592 88.3416C94.2122 87.5808 93.9862 86.8418 93.5996 86.1848C93.5996 86.1848 100.703 86.5176 104.031 84.4012C107.359 82.2848 109.896 76.8716 107.884 74.2872C105.872 71.7028 101.951 75.2284 99.044 75.6184C96.1372 76.0084 85.7996 77.6568 84.1512 81.64C82.5028 85.6232 85.0144 87.0532 85.0924 90.8544C85.1704 94.6556 85.1704 101.858 90.854 101.197C90.854 101.197 88.7272 98.4464 90.204 95.6124C91.2076 94.4216 93.1108 96.1116 93.1108 96.1116Z" fill="#263238"/>
<path d="M107.042 78.78C108.006 79.5313 108.806 80.4729 109.391 81.5464C109.976 82.6199 110.334 83.8023 110.443 85.02C110.76 87.8696 115.814 93.4076 112.169 96.564C112.169 96.564 111.322 93.21 110.822 91.5564C110.323 89.9028 109.684 86.8764 108.846 85.8364C108.009 84.7964 103.568 81.1564 103.568 81.1564L107.042 78.78Z" fill="#263238"/>
<path d="M94.3384 112.273C94.3384 112.273 97.8432 114.582 104.354 114.676L105.118 123.406C105.118 123.406 97.7964 122.85 92.352 117.842C92.352 117.842 90.8804 113.948 91.2704 112.273C91.6604 110.599 95.16 108.94 95.16 108.94" stroke="#263238" stroke-linecap="round" stroke-linejoin="round"/>
<path d="M109.065 108.368L109.273 111.488C107.9 112.918 106.217 114.012 104.354 114.686L108.43 122.45C108.43 122.45 113.292 118.664 113.776 114.686C113.776 114.686 113.818 110.614 112.97 109.45C112.122 108.285 109.034 107.739 109.034 107.739" stroke="#263238" stroke-linecap="round" stroke-linejoin="round"/>
<path opacity="0.8" d="M89.3359 84.24C89.8559 82.9348 91.2807 82.16 92.6691 81.952C94.0575 81.744 95.4823 81.8896 96.8863 81.8532C98.8304 81.8376 100.734 81.2987 102.398 80.2932C103.225 79.7898 103.945 79.1283 104.516 78.3468C105.087 77.5652 105.498 76.6787 105.726 75.738" stroke="white" stroke-linecap="round" stroke-linejoin="round"/>
<path opacity="0.8" d="M85.9819 83.9852C86.8607 81.3176 89.7103 79.6692 92.5131 79.4352C93.9015 79.3156 95.3055 79.4768 96.6731 79.3156C98.0407 79.1544 99.4967 78.5824 100.22 77.3916" stroke="white" stroke-linecap="round" stroke-linejoin="round"/>
<path d="M84.5047 168.75C77.7447 172.255 75.3423 168.646 71.5775 165.662C67.8127 162.677 70.2827 157.342 69.4975 148.788C68.7123 140.234 70.6675 125.684 70.6675 125.684C70.6675 125.684 72.3523 125.299 77.0271 122.439C81.7019 119.579 91.5403 115.222 91.5403 115.222" stroke="#263238" stroke-linecap="round" stroke-linejoin="round"/>
<path d="M91.2027 155.802C91.2027 155.802 90.1315 152.407 87.1051 152.318C84.0787 152.23 79.3051 153.592 75.9043 160.025" stroke="#263238" stroke-linecap="round" stroke-linejoin="round"/>
<path d="M86.4134 152.116C86.2254 152.103 86.0408 152.059 85.8674 151.986C83.3726 151.088 80.6647 150.965 78.0986 151.632" stroke="#263238" stroke-linecap="round" stroke-linejoin="round"/>
<path d="M76.3564 130.328C81.8632 136.412 84.5464 144.461 87.0892 152.261" stroke="#263238" stroke-linecap="round" stroke-linejoin="round"/>
<path d="M113.776 113.88C113.776 113.88 123.76 116.262 128.637 116.828C133.515 117.395 134.305 118.076 134.305 118.076L135.215 121.477" stroke="#263238" stroke-linecap="round" stroke-linejoin="round"/>
<path d="M160.3 119.798L126.297 121.103L123.521 156.073H129.345L158.87 149.464L162.583 120.635L160.3 119.798Z" fill="white"/>
<path d="M125.289 157.108L162.479 121.462L158.87 149.464L125.289 157.108Z" fill="#E9CB99"/>
<path opacity="0.7" d="M125.289 157.108L162.479 121.462L158.87 149.464L125.289 157.108Z" fill="white"/>
<path d="M125.289 156.172L128.263 122.439L162.583 120.635L158.87 149.464L125.289 156.172Z" stroke="#263238" stroke-linecap="round" stroke-linejoin="round"/>
<path d="M148.116 136.978C147.888 139.032 146.79 140.592 145.667 140.468C144.544 140.343 143.826 138.57 144.055 136.516C144.284 134.462 145.386 132.902 146.51 133.026C147.633 133.151 148.35 134.924 148.116 136.978Z" fill="#263238"/>
<path d="M158.87 149.464C158.87 149.464 174.585 149.016 179.499 152.261C184.413 155.506 187.299 171.777 186.618 180.419C185.936 189.062 180.008 208.894 180.008 208.894L168.651 196.04C168.651 196.04 163.056 175.698 166.109 167.731C166.109 167.731 151.029 168.579 145.09 166.717C145.09 166.717 139.771 158.007 130.65 155.126L158.87 149.464Z" fill="#263238"/>
<path d="M182.405 209.232C178.372 205.467 174.749 201.283 171.6 196.752C166.103 188.261 158.506 180.112 150.691 173.753C144.393 168.646 142.968 160.326 135.2 156.151C122.33 149.25 111.202 162.963 107.042 165.74C102.882 168.516 95.6797 171.662 95.6797 171.662C95.6797 171.662 98.3109 181.542 106.038 182.712C113.765 183.882 121.581 178.552 125.278 181.126C128.975 183.7 131.71 195.192 143.92 201.926C153.899 207.428 167.497 212.794 174.512 216.414C176.072 217.225 177.237 218.078 178.121 218.561C180.544 219.882 183.133 221.437 185.577 222.976L193.996 228.103C193.996 228.103 202.446 223.106 205.691 218.499C206.123 217.88 207.022 216.232 207.865 214.64C209.7 211.162 212.025 208.042 215.243 206.32C217.469 205.119 219.45 204.76 219.403 204.636C219.19 204.24 215.155 202.176 212.415 203.304C206.611 205.702 195.01 214.911 189.535 214.224C186.988 212.818 184.598 211.145 182.405 209.232V209.232Z" stroke="#263238" stroke-miterlimit="10"/>
<path d="M182.405 209.232C177.346 211.276 175.307 214.432 174.527 216.419C167.512 212.779 153.914 207.433 143.936 201.932C131.726 195.172 129.012 183.7 125.294 181.132C121.576 178.563 113.755 183.908 106.054 182.718C98.3525 181.527 95.6797 171.657 95.6797 171.657C95.6797 171.657 102.887 168.537 107.047 165.76C111.207 162.984 120.801 149.266 135.2 156.172C143.15 159.983 144.393 168.652 150.69 173.774C158.49 180.112 166.103 188.282 171.6 196.773C174.742 201.304 178.365 205.481 182.405 209.232V209.232Z" fill="#263238"/>
<path d="M144.383 165.147C144.383 165.147 140.488 157.232 134.243 155.698" stroke="white" stroke-linecap="round" stroke-linejoin="round"/>
<path d="M123.968 149.391C119.672 148.455 114.956 153.202 112.97 152.313C111.493 151.653 109.064 155.563 109.064 155.563C105.067 156.14 101.025 156.344 96.99 156.172C91.2024 155.802 88.462 156.931 86.4132 160.025L83.5532 167.601C83.5532 167.601 91.0984 174.361 99.1532 170.425C107.208 166.488 117.91 154.612 125.283 154.653" stroke="#263238" stroke-linecap="round" stroke-linejoin="round"/>
<path d="M183.929 221.946C183.929 221.946 190.98 222.524 189.327 214.1" stroke="#263238" stroke-miterlimit="10"/>
<path d="M217.157 208.894C216.637 209.934 210.173 215.436 204.604 220.246C204.604 220.173 206.164 217.235 206.809 215.982C208.291 213.216 212.118 205.629 219.403 204.63C220.438 205.254 217.157 208.894 217.157 208.894Z" fill="#263238"/>
<path d="M214.386 202.972C207.017 204.438 205.343 213.892 202.727 217.911C200.112 221.931 192.847 227.396 192.847 227.396" stroke="#263238" stroke-miterlimit="10"/>
<path d="M188.874 224.983C190.075 227.178 189.509 229.726 188.874 231.322C188.563 232.115 188.177 232.876 187.72 233.594C177.289 231.878 166.857 226.273 166.857 226.273L164.169 217.953L163.737 216.622L167.788 211.167" stroke="#263238" stroke-miterlimit="10"/>
<path d="M188.874 231.322C188.563 232.115 188.177 232.876 187.72 233.594C177.289 231.878 166.857 226.273 166.857 226.273L164.169 217.953C165.516 219.71 168.012 222.284 171.756 223.34C176.836 224.78 186.212 226.465 188.874 231.322Z" fill="#263238"/>
<path d="M123.521 154.856L126.297 121.103L160.3 119.798L162.583 120.635" stroke="#263238" stroke-linecap="round" stroke-linejoin="round"/>
<path d="M189.28 217.911C189.28 217.911 193.929 218.743 197.501 215.831C201.073 212.919 206.83 206.331 206.83 206.331" stroke="#263238" stroke-miterlimit="10"/>
<path d="M194.012 213.72C194.012 213.72 192.889 215.41 194.012 218.8" stroke="#263238" stroke-linecap="round" stroke-linejoin="round"/>
<path d="M197.309 212.103C196.798 213.788 196.948 215.605 197.73 217.183" stroke="#263238" stroke-linecap="round" stroke-linejoin="round"/>
<path d="M201.24 209.825C201.24 209.825 200.298 212.649 201.24 215.14" stroke="#263238" stroke-linecap="round" stroke-linejoin="round"/>
<path d="M168.708 210.465L164.98 214.952C164.98 214.952 168.734 219.055 174.033 220.761C179.332 222.466 188.796 225.363 189.581 228.446" stroke="#263238" stroke-miterlimit="10"/>
</svg>
