<svg width="1213" height="1159" viewBox="0 0 1213 1159" fill="none" xmlns="http://www.w3.org/2000/svg">
<g opacity="0.07">
<path d="M806.669 147.958C753.734 176.887 716.398 225.542 671.153 264.6C614.878 312.99 546.384 346.543 472.415 361.956C411.765 374.496 348.398 374.682 289.955 394.408C175.933 432.632 97.8404 546.075 95.8753 661.418C93.9103 776.762 162.59 888.582 263.536 951.817C297.916 973.364 335.552 989.742 375.132 1000.38C449.368 1020.34 528.091 1019.46 604.802 1011.83C737.31 998.641 876.223 926.737 959.75 825.37C996.983 780.065 1028.45 730.693 1053.49 678.293C1094.86 592.132 1118.35 499.126 1122.68 404.422C1126.2 323.292 1122.68 233.353 1055.31 174.221C987.94 115.089 885.635 104.774 806.669 147.958Z" fill="#E9CB99"/>
<path opacity="0.7" d="M806.669 147.958C753.734 176.887 716.398 225.542 671.153 264.6C614.878 312.99 546.384 346.543 472.415 361.956C411.765 374.496 348.398 374.682 289.955 394.408C175.933 432.632 97.8404 546.075 95.8753 661.418C93.9103 776.762 162.59 888.582 263.536 951.817C297.916 973.364 335.552 989.742 375.132 1000.38C449.368 1020.34 528.091 1019.46 604.802 1011.83C737.31 998.641 876.223 926.737 959.75 825.37C996.983 780.065 1028.45 730.693 1053.49 678.293C1094.86 592.132 1118.35 499.126 1122.68 404.422C1126.2 323.292 1122.68 233.353 1055.31 174.221C987.94 115.089 885.635 104.774 806.669 147.958Z" fill="white"/>
<path d="M667.392 1076.83C907.666 1076.83 1102.45 1026.7 1102.45 964.867C1102.45 903.034 907.666 852.908 667.392 852.908C427.118 852.908 232.338 903.034 232.338 964.867C232.338 1026.7 427.118 1076.83 667.392 1076.83Z" fill="#E9CB99"/>
<path opacity="0.5" d="M667.392 1076.83C907.666 1076.83 1102.45 1026.7 1102.45 964.867C1102.45 903.034 907.666 852.908 667.392 852.908C427.118 852.908 232.338 903.034 232.338 964.867C232.338 1026.7 427.118 1076.83 667.392 1076.83Z" fill="white"/>
<path d="M720.425 158.319H208.951C196.959 158.319 187.238 167.608 187.238 179.065V453.03C187.238 464.488 196.959 473.776 208.951 473.776H720.425C732.416 473.776 742.137 464.488 742.137 453.03V179.065C742.137 167.608 732.416 158.319 720.425 158.319Z" fill="white"/>
<path d="M742.137 179.065V187.271H187.238V179.065C187.238 173.552 189.522 168.263 193.59 164.354C197.659 160.445 203.181 158.234 208.951 158.203H720.522C723.376 158.212 726.2 158.76 728.833 159.814C731.465 160.868 733.854 162.408 735.862 164.347C737.871 166.285 739.459 168.583 740.535 171.108C741.612 173.634 742.157 176.338 742.137 179.065V179.065Z" fill="#E9CB99"/>
<path d="M720.425 158.319H208.951C196.959 158.319 187.238 167.608 187.238 179.065V453.03C187.238 464.488 196.959 473.776 208.951 473.776H720.425C732.416 473.776 742.137 464.488 742.137 453.03V179.065C742.137 167.608 732.416 158.319 720.425 158.319Z" stroke="#263238" stroke-linecap="round" stroke-linejoin="round"/>
<path d="M742.137 179.065V187.271H187.238V179.065C187.238 173.552 189.522 168.263 193.59 164.354C197.659 160.445 203.181 158.234 208.951 158.203H720.522C723.376 158.212 726.2 158.76 728.833 159.814C731.465 160.868 733.854 162.408 735.862 164.347C737.871 166.285 739.459 168.583 740.535 171.108C741.612 173.634 742.157 176.338 742.137 179.065V179.065Z" stroke="#263238" stroke-linecap="round" stroke-linejoin="round"/>
<path d="M249.563 172.784C249.567 173.835 249.246 174.863 248.638 175.739C248.031 176.615 247.165 177.299 246.15 177.704C245.135 178.11 244.018 178.218 242.938 178.016C241.859 177.814 240.867 177.31 240.087 176.569C239.308 175.827 238.777 174.881 238.56 173.851C238.344 172.821 238.452 171.752 238.872 170.781C239.292 169.81 240.004 168.979 240.918 168.395C241.832 167.811 242.907 167.499 244.007 167.499C245.476 167.499 246.886 168.055 247.927 169.045C248.968 170.036 249.556 171.38 249.563 172.784Z" fill="#263238"/>
<path d="M278.553 172.784C278.557 173.835 278.236 174.863 277.628 175.739C277.021 176.615 276.155 177.299 275.14 177.704C274.125 178.11 273.007 178.218 271.928 178.016C270.849 177.814 269.857 177.31 269.077 176.569C268.298 175.827 267.767 174.881 267.55 173.851C267.334 172.821 267.442 171.752 267.862 170.781C268.282 169.81 268.994 168.979 269.908 168.395C270.822 167.811 271.897 167.499 272.997 167.499C274.466 167.499 275.876 168.055 276.917 169.045C277.958 170.036 278.546 171.38 278.553 172.784V172.784Z" fill="#263238"/>
<path d="M301.988 178.092C305.057 178.092 307.544 175.715 307.544 172.784C307.544 169.852 305.057 167.476 301.988 167.476C298.92 167.476 296.433 169.852 296.433 172.784C296.433 175.715 298.92 178.092 301.988 178.092Z" fill="#263238"/>
<path d="M385.976 210.242H229.087C224.143 210.242 220.135 214.072 220.135 218.796V290.909C220.135 295.633 224.143 299.462 229.087 299.462H385.976C390.92 299.462 394.928 295.633 394.928 290.909V218.796C394.928 214.072 390.92 210.242 385.976 210.242Z" stroke="#263238" stroke-linecap="round" stroke-linejoin="round"/>
<path d="M230.422 288.243H381.974" stroke="#263238" stroke-linecap="round" stroke-linejoin="round"/>
<path d="M259.267 271.206H241.678V288.011H259.267V271.206Z" fill="#E9CB99" stroke="#263238" stroke-miterlimit="10"/>
<path d="M285.006 249.115H267.418V288.243H285.006V249.115Z" fill="#E9CB99" stroke="#263238" stroke-miterlimit="10"/>
<path d="M313.996 255.837H296.408V288.637H313.996V255.837Z" fill="#E9CB99" stroke="#263238" stroke-miterlimit="10"/>
<path d="M344.467 223.177H326.879V287.501H344.467V223.177Z" fill="#E9CB99" stroke="#263238" stroke-miterlimit="10"/>
<path d="M374.914 223.687H357.325V288.012H374.914V223.687Z" fill="#E9CB99" stroke="#263238" stroke-miterlimit="10"/>
<path d="M611.643 304.075C638.802 304.075 660.818 283.039 660.818 257.089C660.818 231.14 638.802 210.103 611.643 210.103C584.484 210.103 562.468 231.14 562.468 257.089C562.468 283.039 584.484 304.075 611.643 304.075Z" fill="#E9CB99" stroke="#263238" stroke-miterlimit="10"/>
<path d="M615.67 286.389V291.21H607.421V286.389C604.034 285.606 601.037 283.719 598.948 281.054C596.858 278.389 595.805 275.112 595.971 271.785V269.606L605.311 268.633V270.951C605.311 275.425 607.737 278.137 611.545 278.137C612.372 278.202 613.204 278.096 613.984 277.825C614.763 277.555 615.472 277.126 616.062 276.569C616.652 276.012 617.109 275.34 617.402 274.598C617.694 273.856 617.815 273.063 617.756 272.272C617.756 267.984 613.559 264.298 608.61 260.381C602.739 255.745 596.892 250.228 596.892 242.439C596.892 234.651 600.725 229.389 607.421 227.813V222.968H615.67V227.766C622.438 229.273 626.368 234.72 626.368 242.486V244.062L617.028 245.012V243.39C617.028 238.754 615.112 236.204 611.715 236.204C608.319 236.204 606.402 238.221 606.402 242.068C606.402 246.357 610.721 249.95 615.573 253.96C621.347 258.596 627.29 264.113 627.29 271.901C627.433 275.233 626.348 278.508 624.225 281.155C622.102 283.802 619.074 285.654 615.67 286.389V286.389Z" fill="#263238"/>
<path d="M216.06 345.034H230.422" stroke="#263238" stroke-linecap="round" stroke-linejoin="round"/>
<path d="M216.06 371.552H230.422" stroke="#263238" stroke-linecap="round" stroke-linejoin="round"/>
<path d="M216.06 398.093H230.422" stroke="#263238" stroke-linecap="round" stroke-linejoin="round"/>
<path d="M216.06 424.611H230.422" stroke="#263238" stroke-linecap="round" stroke-linejoin="round"/>
<path d="M262.08 444.639V433.976" stroke="#263238" stroke-linecap="round" stroke-linejoin="round"/>
<path d="M284.837 444.639V433.976" stroke="#263238" stroke-linecap="round" stroke-linejoin="round"/>
<path d="M307.593 444.639V433.976" stroke="#263238" stroke-linecap="round" stroke-linejoin="round"/>
<path d="M330.372 444.639V433.976" stroke="#263238" stroke-linecap="round" stroke-linejoin="round"/>
<path d="M353.128 444.639V433.976" stroke="#263238" stroke-linecap="round" stroke-linejoin="round"/>
<path d="M375.885 444.639V433.976" stroke="#263238" stroke-linecap="round" stroke-linejoin="round"/>
<path d="M398.64 444.639V433.976" stroke="#263238" stroke-linecap="round" stroke-linejoin="round"/>
<path d="M421.42 444.639V433.976" stroke="#263238" stroke-linecap="round" stroke-linejoin="round"/>
<path d="M444.176 444.639V433.976" stroke="#263238" stroke-linecap="round" stroke-linejoin="round"/>
<path d="M466.932 444.639V433.976" stroke="#263238" stroke-linecap="round" stroke-linejoin="round"/>
<path d="M489.688 444.639V433.976" stroke="#263238" stroke-linecap="round" stroke-linejoin="round"/>
<path d="M512.468 444.639V433.976" stroke="#263238" stroke-linecap="round" stroke-linejoin="round"/>
<path d="M535.224 444.639V433.976" stroke="#263238" stroke-linecap="round" stroke-linejoin="round"/>
<path d="M557.979 444.639V433.976" stroke="#263238" stroke-linecap="round" stroke-linejoin="round"/>
<path d="M580.735 444.639V433.976" stroke="#263238" stroke-linecap="round" stroke-linejoin="round"/>
<path d="M602.642 444.639V433.976" stroke="#263238" stroke-linecap="round" stroke-linejoin="round"/>
<path d="M624.549 444.639V433.976" stroke="#263238" stroke-linecap="round" stroke-linejoin="round"/>
<path d="M646.431 444.639V433.976" stroke="#263238" stroke-linecap="round" stroke-linejoin="round"/>
<path d="M704.365 328.808V431.866C704.365 438.936 696.844 444.639 687.577 444.639H232.896C230.127 444.732 227.373 444.214 224.849 443.125C222.324 442.035 220.097 440.403 218.34 438.357C216.822 436.499 215.971 434.223 215.914 431.866V328.808C215.914 321.854 223.434 316.036 232.702 316.036H687.577C696.844 316.036 704.365 321.738 704.365 328.808Z" stroke="#E9CB99" stroke-linecap="round" stroke-linejoin="round"/>
<path d="M565.985 129.205L420.838 316.036L365.331 387.477L304.681 350.574L230.47 444.639H229.402C227.075 444.641 224.788 444.062 222.767 442.96C220.746 441.859 219.061 440.272 217.879 438.357L301.26 332.633L361.91 369.466L403.419 316.152L554.777 121.44L565.985 129.205Z" fill="#263238"/>
<path d="M529.159 131.57L582.506 100.671L567.756 154.124L558.343 129.391L529.159 131.57Z" fill="#263238"/>
<path d="M1034.03 719.785H180.834L85.2012 801.031" stroke="#263238" stroke-linecap="round" stroke-linejoin="round"/>
<path d="M181.368 662.902V504.93" stroke="#263238" stroke-linecap="round" stroke-linejoin="round"/>
<path d="M181.368 710.606V680.055" stroke="#263238" stroke-linecap="round" stroke-linejoin="round"/>
<path d="M982.676 335.461C982.676 335.461 982.676 325.911 968.678 312.559C954.68 299.207 945.704 291.558 945.704 291.558C945.704 291.558 938.693 313.509 951.696 326.884C961.247 336.306 971.61 344.944 982.676 352.707V335.461Z" fill="#E9CB99"/>
<path d="M962.371 395.103C962.371 395.103 962.371 385.553 948.373 372.178C934.375 358.803 925.398 351.177 925.398 351.177C925.398 351.177 918.411 373.128 931.391 386.503C940.954 395.92 951.316 404.565 962.371 412.349V395.103Z" fill="#E9CB99"/>
<path d="M981.778 351.733C981.778 351.733 982.845 342.229 998.226 330.338C1013.61 318.447 1023.41 311.794 1023.41 311.794C1023.41 311.794 1027.92 334.395 1013.53 346.309C1002.99 354.694 991.738 362.223 979.885 368.817L981.778 351.733Z" fill="#E9CB99"/>
<path d="M957.251 422.154C957.251 422.154 959.362 412.882 975.956 402.544C992.549 392.206 1003.01 386.596 1003.01 386.596C1003.01 386.596 1005.02 409.475 989.468 419.952C978.07 427.231 966.051 433.582 953.539 438.936L957.251 422.154Z" fill="#E9CB99"/>
<path d="M961.885 498.903C961.885 498.903 961.886 489.353 975.859 476.001C989.833 462.649 998.834 455 998.834 455C998.834 455 1005.84 476.975 992.841 490.326C983.305 499.761 972.949 508.407 961.885 516.172V498.903Z" fill="#E9CB99"/>
<path d="M961.643 517.656C961.643 517.656 963.05 508.198 951.187 493.085C939.323 477.972 931.585 469.163 931.585 469.163C931.585 469.163 921.444 490.025 932.288 504.953C940.35 515.556 949.325 525.496 959.12 534.67L961.643 517.656Z" fill="#E9CB99"/>
<path d="M947.838 573.172C947.838 573.172 947.838 563.645 961.836 550.27C975.834 536.895 984.81 529.408 984.81 529.408C984.81 529.408 991.821 551.36 978.818 564.711C969.268 574.141 958.905 582.786 947.838 590.557V573.172Z" fill="#E9CB99"/>
<path d="M957.179 623.542C957.179 623.542 954.753 614.27 964.675 598.044C974.598 581.818 981.342 572.198 981.342 572.198C981.342 572.198 993.908 591.762 984.908 607.826C978.156 619.242 970.414 630.097 961.764 640.278L957.179 623.542Z" fill="#E9CB99"/>
<path d="M983.937 333.097C983.231 343.031 981.951 352.921 980.104 362.721C974.573 390.027 960.696 407.643 955.213 432.261C949.73 456.878 965.572 488.704 961.327 520.345C957.081 551.985 944.151 569.625 947.79 590.766C951.429 611.906 970.837 669.114 970.837 669.114" stroke="#263238" stroke-width="1.17749" stroke-linecap="round" stroke-linejoin="round"/>
<path d="M981.656 358.084L996.722 347.004" stroke="#263238" stroke-width="1.17749" stroke-linecap="round" stroke-linejoin="round"/>
<path d="M982.336 345.359L976.053 334.626" stroke="#263238" stroke-width="1.17749" stroke-linecap="round" stroke-linejoin="round"/>
<path d="M956.063 431.148C956.063 431.148 968.678 422.085 981.657 413.044" stroke="#263238" stroke-width="1.17749" stroke-linecap="round" stroke-linejoin="round"/>
<path d="M962.369 412.233C962.369 412.233 951.841 392.53 939.929 379.456" stroke="#263238" stroke-width="1.17749" stroke-linecap="round" stroke-linejoin="round"/>
<path d="M962.37 512.486C969.598 499.803 978.709 488.185 989.42 477.995" stroke="#263238" stroke-width="1.17749" stroke-linecap="round" stroke-linejoin="round"/>
<path d="M959.92 525.885C956.051 517.26 951.442 508.957 946.14 501.059C938.862 490.674 937.698 489.33 937.698 489.33" stroke="#263238" stroke-width="1.17749" stroke-linecap="round" stroke-linejoin="round"/>
<path d="M947.838 590.742C951.042 583.152 954.845 575.806 959.216 568.768C963.58 562.214 968.497 556.012 973.917 550.224" stroke="#263238" stroke-width="1.17749" stroke-linecap="round" stroke-linejoin="round"/>
<path d="M961.74 640.162C961.008 632.919 962.314 625.62 965.524 619.022C970.789 609.309 976.732 596.56 979.207 591.553" stroke="#263238" stroke-width="1.17749" stroke-linecap="round" stroke-linejoin="round"/>
<path d="M891.07 462.997C891.07 462.997 889.978 457.04 897.232 447.188C904.486 437.337 909.362 431.611 909.362 431.611C909.362 431.611 916.228 444.639 909.605 454.374C904.684 461.264 899.166 467.747 893.108 473.753L891.07 462.997Z" fill="#E9CB99"/>
<path d="M910.575 498.37C910.575 498.37 909.483 492.366 916.737 482.538C923.991 472.71 928.867 466.984 928.867 466.984C928.867 466.984 935.732 480.034 929.109 489.747C924.195 496.641 918.676 503.124 912.613 509.125L910.575 498.37Z" fill="#E9CB99"/>
<path d="M893.472 473.104C893.472 473.104 891.773 467.262 880.735 461.514C869.697 455.765 862.831 452.473 862.831 452.473C862.831 452.473 862.564 467.007 872.972 473.104C880.531 477.27 888.443 480.821 896.625 483.72L893.472 473.104Z" fill="#E9CB99"/>
<path d="M916.858 514.712C916.858 514.712 914.432 509.079 902.885 504.374C891.337 499.668 884.083 497.188 884.083 497.188C884.083 497.188 885.418 511.722 896.407 516.682C904.386 520.063 912.647 522.8 921.104 524.865L916.858 514.712Z" fill="#E9CB99"/>
<path d="M922.681 563.274C922.681 563.274 921.589 557.294 911.303 550.363C901.017 543.432 894.491 539.561 894.491 539.561C894.491 539.561 892.598 554.095 902.278 561.095C909.333 565.992 916.807 570.311 924.622 574.006L922.681 563.274Z" fill="#E9CB99"/>
<path d="M924.937 575.073C924.937 575.073 922.972 569.301 928.697 558.592C934.423 547.883 938.401 541.554 938.401 541.554C938.401 541.554 947.135 553.515 942.04 564.062C938.155 571.547 933.627 578.711 928.503 585.481L924.937 575.073Z" fill="#E9CB99"/>
<path d="M942.502 623.357C942.502 623.357 943.23 617.33 953.079 609.843C962.929 602.355 969.212 598.253 969.212 598.253C969.212 598.253 971.978 612.624 962.735 620.181C955.984 625.456 948.787 630.185 941.216 634.321L942.502 623.357Z" fill="#E9CB99"/>
<path d="M939.905 608.475C939.905 608.475 938.814 602.471 928.527 595.54C918.241 588.61 911.739 584.762 911.739 584.762C911.739 584.762 909.847 599.296 919.502 606.296C926.568 611.189 934.05 615.508 941.87 619.207L939.905 608.475Z" fill="#E9CB99"/>
<path d="M939.76 641.02C939.76 641.02 940.318 634.946 932.191 625.767C924.064 616.588 918.799 611.233 918.799 611.233C918.799 611.233 913.123 624.794 920.619 633.95C926.156 640.407 932.241 646.415 938.814 651.914L939.76 641.02Z" fill="#E9CB99"/>
<path d="M889.978 461.607C891.557 467.77 893.492 473.845 895.776 479.803C902.326 496.33 913.001 505.95 919.26 520.831C925.519 535.713 919.26 557.294 925.446 576.695C931.632 596.097 941.822 605.763 941.894 619.462C941.967 633.162 936.436 671.015 936.436 671.015" stroke="#263238" stroke-width="1.17749" stroke-linecap="round" stroke-linejoin="round"/>
<path d="M894.272 477.068L883.573 471.713" stroke="#263238" stroke-width="1.17749" stroke-linecap="round" stroke-linejoin="round"/>
<path d="M892.38 469.163L895.121 461.792" stroke="#263238" stroke-width="1.17749" stroke-linecap="round" stroke-linejoin="round"/>
<path d="M918.63 520.206C918.63 520.206 909.678 515.848 900.531 511.513" stroke="#263238" stroke-width="1.17749" stroke-linecap="round" stroke-linejoin="round"/>
<path d="M912.515 509.125C915.147 501.19 918.618 493.532 922.874 486.27" stroke="#263238" stroke-width="1.17749" stroke-linecap="round" stroke-linejoin="round"/>
<path d="M923.918 571.897C917.949 564.696 910.922 558.356 903.055 553.075" stroke="#263238" stroke-width="1.17749" stroke-linecap="round" stroke-linejoin="round"/>
<path d="M926.975 580.056C928.392 574.264 930.315 568.596 932.724 563.112C936.097 555.81 936.679 554.859 936.679 554.859" stroke="#263238" stroke-width="1.17749" stroke-linecap="round" stroke-linejoin="round"/>
<path d="M941.434 629.801C944.905 625.681 948.753 621.864 952.933 618.396C955.594 616.512 958.093 614.427 960.405 612.161" stroke="#263238" stroke-width="1.17749" stroke-linecap="round" stroke-linejoin="round"/>
<path d="M941.894 619.462C938.995 615.04 935.751 610.833 932.19 606.876C928.707 603.24 924.918 599.884 920.861 596.839" stroke="#263238" stroke-width="1.17749" stroke-linecap="round" stroke-linejoin="round"/>
<path d="M938.863 651.914C938.477 647.274 936.802 642.817 934.011 639.003C929.596 633.44 924.307 626.068 922.318 623.171" stroke="#263238" stroke-width="1.17749" stroke-linecap="round" stroke-linejoin="round"/>
<path d="M985.393 736.29H921.686C920.42 736.29 919.204 735.817 918.297 734.973C917.391 734.128 916.866 732.979 916.834 731.769L907.688 664.408H999.197L990.051 731.769C990.021 732.947 989.523 734.07 988.658 734.91C987.792 735.75 986.625 736.243 985.393 736.29Z" fill="#263238"/>
<path d="M998.469 675.79H907.785C905.898 675.796 904.085 675.087 902.743 673.818C901.402 672.55 900.641 670.825 900.629 669.021V669.021C900.66 667.221 901.42 665.502 902.751 664.227C904.081 662.952 905.877 662.219 907.761 662.183H998.469C999.408 662.18 1000.34 662.354 1001.21 662.695C1002.07 663.036 1002.86 663.538 1003.53 664.171C1004.19 664.804 1004.72 665.556 1005.08 666.385C1005.44 667.213 1005.63 668.101 1005.63 668.998V668.998C1005.62 669.893 1005.44 670.779 1005.07 671.604C1004.71 672.43 1004.18 673.179 1003.52 673.81C1002.86 674.441 1002.07 674.94 1001.2 675.28C1000.33 675.619 999.406 675.793 998.469 675.79V675.79Z" fill="#263238"/>
<path d="M794.03 406.369C794.026 425.392 787.278 443.854 774.885 458.743C762.492 473.632 745.185 484.071 725.787 488.356H725.52C723.215 488.843 720.91 489.284 718.533 489.608C714.362 490.175 710.155 490.462 705.942 490.466C682.916 490.387 660.837 481.697 644.435 466.255C628.032 450.814 618.609 429.85 618.184 407.853C617.759 385.856 626.366 364.574 642.161 348.565C657.956 332.556 679.684 323.093 702.691 322.202C703.492 322.202 704.341 322.202 705.117 322.202C705.375 322.179 705.635 322.179 705.893 322.202C706.192 322.179 706.492 322.179 706.791 322.202C718.676 322.275 730.418 324.682 741.289 329.272C756.97 335.836 770.309 346.623 779.676 360.315C789.043 374.008 794.031 390.011 794.03 406.369Z" fill="#E9CB99"/>
<path opacity="0.4" d="M741.337 329.295C639.615 324.242 639.13 432.145 639.13 432.145C639.13 432.145 623.603 396.934 648.955 357.969C663.123 336.156 687.771 326.537 706.839 322.272C718.721 322.33 730.463 324.721 741.337 329.295V329.295Z" fill="white"/>
<path d="M794.03 406.369C794.029 425.439 787.25 443.944 774.803 458.852C762.356 473.76 744.979 484.187 725.52 488.426C719.099 489.838 712.53 490.546 705.942 490.535C682.579 490.947 660.003 482.475 643.178 466.982C626.354 451.489 616.659 430.244 616.228 407.922C615.797 385.599 624.665 364.028 640.879 347.952C657.094 331.877 679.329 322.614 702.691 322.202C703.758 322.202 704.85 322.202 705.942 322.202C729.302 322.208 751.704 331.078 768.222 346.861C784.741 362.644 794.023 384.048 794.03 406.369V406.369Z" stroke="#263238" stroke-linecap="round" stroke-linejoin="round"/>
<path d="M794.03 406.369C794.029 425.439 787.249 443.944 774.803 458.852C762.356 473.76 744.979 484.187 725.519 488.426C724.452 488.426 723.36 488.426 722.269 488.426C700.646 488.371 679.8 480.722 663.697 466.934C647.594 453.146 637.36 434.182 634.942 413.651C632.524 393.121 638.091 372.458 650.583 355.595C663.076 338.732 681.622 326.847 702.691 322.202C703.758 322.202 704.85 322.202 705.942 322.202C729.302 322.208 751.704 331.078 768.222 346.861C784.74 362.644 794.023 384.048 794.03 406.369V406.369Z" stroke="#263238" stroke-linecap="round" stroke-linejoin="round"/>
<path d="M736.291 458.964L738.571 467.865L723.336 471.412L721.056 462.534C707.422 462.534 696.48 454.073 692.987 440.49L691.944 436.456L708.756 430.638L709.823 434.834C711.934 443.086 717.635 447.05 724.743 445.381C726.303 445.149 727.792 444.596 729.107 443.761C730.422 442.926 731.532 441.828 732.36 440.543C733.188 439.258 733.715 437.817 733.903 436.319C734.092 434.822 733.938 433.302 733.452 431.867C731.415 423.939 721.905 418.979 710.891 413.856C697.863 407.829 684.423 400.18 680.736 385.785C677.145 371.738 681.657 360.032 693.278 354.237L690.997 345.336L706.209 341.789L708.489 350.667C721.711 350.482 731.56 358.803 735.175 373.175L735.927 376.096L719.139 381.914L718.29 378.692C716.058 369.953 711.352 366.267 705.093 367.728C698.834 369.188 696.238 373.754 698.057 380.848C700.095 388.775 709.726 393.55 720.619 398.882C733.501 405.117 747.087 412.558 750.774 426.929C754.486 440.768 748.566 453.1 736.291 458.964Z" stroke="#263238" stroke-miterlimit="10"/>
<path opacity="0.3" d="M736.291 458.964L738.571 467.865L723.336 471.412L721.056 462.534C707.422 462.534 696.48 454.073 692.987 440.49L691.944 436.456L708.756 430.638L709.823 434.834C711.934 443.086 717.635 447.05 724.743 445.381C726.303 445.149 727.792 444.596 729.107 443.761C730.422 442.926 731.532 441.828 732.36 440.543C733.188 439.258 733.715 437.817 733.903 436.319C734.092 434.822 733.938 433.302 733.452 431.867C731.415 423.939 721.905 418.979 710.891 413.856C697.863 407.829 684.423 400.18 680.736 385.785C677.145 371.738 681.657 360.032 693.278 354.237L690.997 345.336L706.209 341.789L708.489 350.667C721.711 350.482 731.56 358.803 735.175 373.175L735.927 376.096L719.139 381.914L718.29 378.692C716.058 369.953 711.352 366.267 705.093 367.728C698.834 369.188 696.238 373.754 698.057 380.848C700.095 388.775 709.726 393.55 720.619 398.882C733.501 405.117 747.087 412.558 750.774 426.929C754.486 440.768 748.566 453.1 736.291 458.964Z" fill="black"/>
<path d="M660.915 478.737L679.522 477.925" stroke="#263238" stroke-linecap="round" stroke-linejoin="round"/>
<path d="M651.963 472.826L668.193 471.504" stroke="#263238" stroke-linecap="round" stroke-linejoin="round"/>
<path d="M644.685 466.59L660.915 465.269" stroke="#263238" stroke-linecap="round" stroke-linejoin="round"/>
<path d="M642.454 348.001H656.355" stroke="#263238" stroke-linecap="round" stroke-linejoin="round"/>
<path d="M649.32 341.882L663.172 341.279" stroke="#263238" stroke-linecap="round" stroke-linejoin="round"/>
<path d="M658.005 335.739L672.609 334.418" stroke="#263238" stroke-linecap="round" stroke-linejoin="round"/>
<path opacity="0.3" d="M725.787 488.356H725.52C719.099 489.769 712.53 490.476 705.942 490.466C682.916 490.387 660.837 481.697 644.435 466.256C628.032 450.815 618.609 429.851 618.184 407.853C617.759 385.856 626.366 364.574 642.161 348.565C657.956 332.556 679.684 323.093 702.691 322.202C703.492 322.202 704.341 322.202 705.117 322.202C683.647 328.669 647.621 345.197 637.99 379.665C624.38 428.645 655.02 484.254 725.787 488.356Z" fill="black"/>
<path opacity="0.1" d="M794.03 406.369C794.026 425.392 787.278 443.854 774.885 458.743C762.491 473.632 745.185 484.07 725.787 488.356H725.52C723.215 488.843 720.91 489.283 718.533 489.608L741.337 329.226C757.017 335.799 770.351 346.597 779.709 360.298C789.068 373.998 794.044 390.008 794.03 406.369Z" fill="black"/>
<path d="M844.006 273.872C837.03 283.285 826.921 290.162 815.329 293.378C803.736 296.595 791.345 295.961 780.177 291.581L779.862 291.442C778.206 290.746 776.586 289.973 775.01 289.124C773.229 288.21 771.512 287.188 769.867 286.064C759.12 278.223 751.889 266.776 749.635 254.036C747.381 241.297 750.272 228.215 757.724 217.433C765.175 206.652 776.632 198.975 789.78 195.954C802.927 192.932 816.784 194.792 828.552 201.156L829.741 201.875C830.299 202.176 830.832 202.547 831.39 202.918C831.948 203.289 833.016 204.054 833.816 204.656C844.421 212.784 851.38 224.471 853.274 237.334C855.167 250.196 851.852 263.265 844.006 273.872Z" fill="#E9CB99"/>
<path opacity="0.4" d="M763.607 274.567C763.607 274.567 754.898 250.066 766.47 232.032C781.026 209.431 803.321 199.116 833.67 204.679C833.67 204.679 817.222 194.063 789.687 201.596C762.151 209.13 747.377 245.337 763.607 274.567Z" fill="white"/>
<path d="M844.006 273.895C837.024 283.301 826.912 290.168 815.32 293.376C803.728 296.583 791.34 295.943 780.178 291.558C776.494 290.12 772.994 288.285 769.746 286.088C758.932 278.161 751.701 266.583 749.537 253.726C747.372 240.868 750.437 227.707 758.103 216.94C765.77 206.173 777.457 198.617 790.768 195.82C804.079 193.023 818.006 195.197 829.693 201.898C830.226 202.199 830.784 202.547 831.318 202.918C842.833 210.736 850.634 222.597 853.012 235.901C855.391 249.206 852.152 262.868 844.006 273.895Z" stroke="#263238" stroke-linecap="round" stroke-linejoin="round"/>
<path d="M844.006 273.895C837.024 283.301 826.912 290.168 815.32 293.376C803.728 296.583 791.34 295.943 780.178 291.558L778.552 290.538C768.013 283.238 760.628 272.51 757.789 260.372C754.95 248.233 756.851 235.522 763.135 224.63C769.42 213.737 779.654 205.415 791.911 201.228C804.169 197.042 817.606 197.28 829.693 201.898C830.226 202.199 830.784 202.547 831.318 202.918C842.833 210.736 850.634 222.597 853.012 235.901C855.391 249.206 852.152 262.868 844.006 273.895Z" stroke="#263238" stroke-linecap="round" stroke-linejoin="round"/>
<path d="M796.237 280.663L794.126 285.809L785.296 282.495L787.406 277.325C784.13 275.121 781.757 271.897 780.695 268.206C779.633 264.514 779.947 260.584 781.584 257.089L782.554 254.771L792.986 257.483L791.991 259.94C790.026 264.716 791.361 268.563 795.485 270.116C796.341 270.524 797.279 270.748 798.235 270.774C799.191 270.801 800.141 270.628 801.02 270.269C801.899 269.909 802.686 269.372 803.326 268.693C803.967 268.014 804.445 267.211 804.728 266.338C806.62 261.702 803.733 256.116 800.167 249.927C795.946 242.602 792.113 234.35 795.533 226.005C798.954 217.66 805.407 213.58 813.243 214.6L815.378 209.454L824.184 212.769L822.074 217.892C828.672 222.203 830.492 229.482 827.071 237.943L826.368 239.612L815.936 236.9L816.712 235.022C818.799 229.969 817.828 226.561 814.286 225.194C810.744 223.826 807.712 225.194 806.014 229.343C804.121 233.979 807.154 239.496 810.574 245.754C814.674 253.149 818.653 261.354 815.232 269.676C813.935 273.357 811.316 276.48 807.839 278.491C804.362 280.502 800.251 281.272 796.237 280.663V280.663Z" stroke="#263238" stroke-miterlimit="10"/>
<path opacity="0.3" d="M796.237 280.663L794.126 285.809L785.296 282.495L787.406 277.325C784.13 275.121 781.757 271.897 780.695 268.206C779.633 264.514 779.947 260.584 781.584 257.089L782.554 254.771L792.986 257.483L791.991 259.94C790.026 264.716 791.361 268.563 795.485 270.116C796.341 270.524 797.279 270.748 798.235 270.774C799.191 270.801 800.141 270.628 801.02 270.269C801.899 269.909 802.686 269.372 803.326 268.693C803.967 268.014 804.445 267.211 804.728 266.338C806.62 261.702 803.733 256.116 800.167 249.927C795.946 242.602 792.113 234.35 795.533 226.005C798.954 217.66 805.407 213.58 813.243 214.6L815.378 209.454L824.184 212.769L822.074 217.892C828.672 222.203 830.492 229.482 827.071 237.943L826.368 239.612L815.936 236.9L816.712 235.022C818.799 229.969 817.828 226.561 814.286 225.194C810.744 223.826 807.712 225.194 806.014 229.343C804.121 233.979 807.154 239.496 810.574 245.754C814.674 253.149 818.653 261.354 815.232 269.676C813.935 273.357 811.316 276.48 807.839 278.491C804.362 280.502 800.251 281.272 796.237 280.663V280.663Z" fill="black"/>
<path opacity="0.3" d="M828.431 201.179C813.875 198.699 795.438 197.331 785.491 203.497C767.223 214.693 755.845 228.81 756.015 251.689C756.185 274.567 778.553 290.608 778.553 290.608L779.863 291.512C776.295 290.088 772.902 288.292 769.746 286.157C759 278.315 751.769 266.868 749.515 254.129C747.261 241.39 750.152 228.307 757.603 217.526C765.055 206.745 776.512 199.068 789.659 196.046C802.806 193.025 816.664 194.884 828.431 201.249V201.179Z" fill="black"/>
<path opacity="0.1" d="M844.006 273.872C837.031 283.285 826.922 290.162 815.329 293.378C803.737 296.595 791.345 295.961 780.178 291.581L779.862 291.442C778.206 290.746 776.587 289.973 775.01 289.124L833.671 204.679C844.292 212.786 851.275 224.46 853.196 237.318C855.116 250.176 851.829 263.25 844.006 273.872Z" fill="black"/>
<path d="M816.543 926.644C793.961 952.597 767.041 974.802 736.873 992.359C727.472 997.733 717.752 1002.58 707.761 1006.87C638.838 1036.47 560.284 1038.39 486.825 1021.38C332.361 985.614 250.411 855.342 240.004 710.722C237.214 671.641 230.955 629.43 247.524 592.249C264.094 555.068 297.597 531.981 335.491 515.94C363.002 504.235 392.72 496.377 419.722 489.956C468.587 478.422 520.13 483.503 565.5 504.327C597.257 518.722 619.867 543.733 646.577 564.804C649.407 567.029 652.254 569.247 655.117 571.457C682.098 592.207 710.461 611.263 740.027 628.503C784.932 654.673 830.905 679.36 859.604 723.309C905.383 793.359 866.761 869.621 816.543 926.644Z" fill="#E9CB99"/>
<path opacity="0.4" d="M816.543 926.644C793.961 952.597 767.041 974.802 736.873 992.359C727.472 997.733 717.752 1002.58 707.761 1006.87C638.838 1036.47 560.284 1038.39 486.825 1021.38C332.361 985.614 250.411 855.342 240.004 710.722C237.214 671.641 230.955 629.43 247.524 592.249C264.094 555.068 297.597 531.981 335.491 515.94C363.002 504.235 392.72 496.377 419.722 489.956C468.587 478.422 520.13 483.503 565.5 504.327C597.257 518.722 619.867 543.733 646.577 564.804C649.407 567.029 652.254 569.247 655.117 571.457C682.098 592.207 710.461 611.263 740.027 628.503C784.932 654.673 830.905 679.36 859.604 723.309C905.383 793.359 866.761 869.621 816.543 926.644Z" fill="white"/>
<path d="M655.019 571.457C652.157 569.262 649.31 567.037 646.48 564.781C619.794 543.664 597.135 518.722 565.403 504.328C520.029 483.515 468.49 478.434 419.625 489.956C355.408 505.185 275.763 528.643 247.379 592.272C230.809 629.36 237.068 671.641 239.882 710.722C250.411 855.342 332.361 985.614 486.825 1021.38C570.861 1040.85 661.497 1035.52 736.873 992.359C767.041 974.802 793.961 952.597 816.542 926.644C866.761 869.621 905.383 793.359 859.652 723.309C830.977 679.267 785.004 654.673 740.075 628.503C710.46 611.268 682.048 592.213 655.019 571.457V571.457Z" stroke="#263238" stroke-miterlimit="10"/>
<path d="M421.032 829.334C408.172 833.053 395.691 837.879 383.744 843.752" stroke="#263238" stroke-linecap="round" stroke-linejoin="round"/>
<path d="M499.756 815.009C480.97 816.562 462.324 819.39 443.958 823.47" stroke="#263238" stroke-linecap="round" stroke-linejoin="round"/>
<path d="M483.38 811.3C483.38 811.3 410.891 771.013 323.41 803.303" stroke="#263238" stroke-linecap="round" stroke-linejoin="round"/>
<path opacity="0.1" d="M816.542 926.644C793.961 952.597 767.04 974.802 736.872 992.359C727.472 997.733 717.751 1002.58 707.76 1006.87C699.873 1004.56 692.122 1001.85 684.544 998.733C639.274 980.189 601.283 948.827 564.165 917.905C541.773 899.361 519.018 880.353 492.21 868.137C455.959 851.759 414.718 848.514 376.15 859.004C396.097 837.493 423.216 823.235 452.909 818.648C433.744 801.982 407.082 794.981 381.172 794.541C355.263 794.1 340.998 797.137 315.67 802.561C324.137 787.68 346.602 774.212 364.336 774.606C347.477 774.393 330.646 773.255 313.924 771.199C291.046 767.675 280.809 741.945 277.388 720.064C267.927 659.796 277.509 595.61 311.934 544.382C318.75 534.164 326.634 524.635 335.466 515.94C362.977 504.235 392.696 496.377 419.697 489.956C468.562 478.422 520.105 483.503 565.475 504.327C597.232 518.722 619.842 543.733 646.552 564.804C649.383 567.029 652.229 569.247 655.092 571.457C682.073 592.207 710.436 611.263 740.002 628.503C784.907 654.673 830.88 679.359 859.579 723.309C905.382 793.359 866.76 869.621 816.542 926.644Z" fill="black"/>
<path d="M841.821 924.882C855.424 935.686 869.655 945.747 884.446 955.016C913.291 956.87 900.361 990.18 900.361 990.18L875.664 1005.36C875.664 1005.36 833.379 973.259 810.283 962.851C787.188 952.443 841.821 924.882 841.821 924.882Z" fill="white"/>
<path opacity="0.3" d="M636.848 574.169C636.848 574.169 632.894 536.779 626.586 526.279L530.808 507.642V500.549C530.808 500.549 533.016 488.217 511.667 480.498C490.318 472.779 445.825 482.816 434.35 491.115C422.875 499.413 427.072 513.692 427.072 513.692C427.072 513.692 388.499 532.306 371.177 539.399C356.998 545.65 343.174 552.614 329.765 560.261C329.765 560.261 321.905 646.212 323.458 666.17C325.01 686.128 322.196 704.904 323.991 715.961C325.787 727.018 327.194 733.3 339.324 742.711C351.454 752.122 362.492 765.891 394.297 752.238L389.857 748.876L599.221 681.492L636.848 574.169Z" fill="black"/>
<path d="M636.848 574.169C636.848 574.169 632.894 536.779 626.586 526.279L530.808 507.642V500.549C530.808 500.549 533.016 488.217 511.667 480.498C490.318 472.779 445.825 482.816 434.35 491.115C422.875 499.413 427.072 513.692 427.072 513.692C427.072 513.692 388.499 532.306 371.177 539.399C356.998 545.65 343.174 552.614 329.765 560.261C329.765 560.261 321.905 646.212 323.458 666.17C325.01 686.128 322.196 704.904 323.991 715.961C325.787 727.018 327.194 733.3 339.324 742.711C351.454 752.122 362.492 765.891 394.297 752.238L389.857 748.876L599.221 681.492L636.848 574.169Z" fill="#E9CB99"/>
<path opacity="0.05" d="M636.848 574.169C636.848 574.169 632.894 536.779 626.586 526.279L530.808 507.642V500.549C530.808 500.549 533.016 488.217 511.667 480.498C490.318 472.779 445.825 482.816 434.35 491.115C422.875 499.413 427.072 513.692 427.072 513.692C427.072 513.692 388.499 532.306 371.177 539.399C356.998 545.65 343.174 552.614 329.765 560.261C329.765 560.261 321.905 646.212 323.458 666.17C325.01 686.128 322.196 704.904 323.991 715.961C325.787 727.018 327.194 733.3 339.324 742.711C351.454 752.122 362.492 765.891 394.297 752.238L389.857 748.876L599.221 681.492L636.848 574.169Z" fill="black"/>
<path opacity="0.1" d="M627.848 530.822H587.771C584.002 530.828 580.358 532.109 577.484 534.439C574.611 536.769 572.694 539.996 572.075 543.548L552.327 657.13C552.327 657.13 525.131 659.286 505.869 672.707C486.607 686.128 439.227 590.372 364.36 590.325C364.36 590.325 385.903 637.381 390.682 674.932C390.682 674.932 343.885 670.064 336.122 687.565C328.359 705.066 339.639 737.866 359.436 725.163C379.232 712.461 397.863 691.274 411.085 704.672C424.307 718.07 483.38 725.279 483.38 725.279L574.282 681.492L609.532 665.66L627.848 530.822Z" fill="black"/>
<path opacity="0.4" d="M500.604 474.518C500.604 474.518 523.36 480.545 527.048 487.846C530.735 495.148 530.347 513.622 530.347 513.622C524.825 525.97 516.458 536.968 505.869 545.796L488.887 513.622L490.415 550.108C490.415 550.108 458.198 544.985 444.515 535.157L430.857 525.305C430.857 525.305 424.962 506.761 425.811 500.479C426.66 494.198 451.235 481.449 451.235 481.449L500.604 474.518Z" fill="white"/>
<path d="M879.643 1037.12C879.013 1035.8 888.984 1018.97 881.172 1001.84C873.36 984.71 860.915 991.316 860.915 991.316C860.915 991.316 825.471 969.759 810.575 962.944C799.843 957.793 789.506 951.922 779.644 945.373L763.899 965.633L778.455 1008.65L879.643 1037.12Z" fill="#E9CB99"/>
<path d="M859.628 990.273L905.14 1016.84C905.14 1016.84 937.139 997.227 952.398 983.69C967.658 970.152 1001.94 941.317 1001.94 941.317L1023.77 913.246C1023.77 913.246 1008.63 895.351 983.403 909.722C950.797 928.266 911.035 955.201 884.519 954.946C884.519 954.946 889.735 986.077 859.798 990.273" fill="#E9CB99"/>
<path d="M492.889 362.141C492.889 362.141 513.535 391.997 517.295 401.663C521.055 411.329 524.088 425.631 523.336 432.516C522.584 439.4 515.015 476.28 511.206 477.346L507.542 481.31L509.968 496.933C509.968 496.933 493.811 523.613 446.31 504.049C446.31 504.049 444.466 472.895 438.693 463.113C432.919 453.331 424.282 464.968 415.621 436.711C406.96 408.455 434.544 378.761 434.544 378.761L492.889 362.141Z" fill="white"/>
<path opacity="0.5" d="M1003.95 904.53C1003.95 904.53 980.54 908.424 972.946 921.66C965.353 934.896 950.773 959.49 945.799 971.381C940.826 983.273 899.705 1011.99 899.705 1011.99L905.164 1016.84C905.164 1016.84 938.643 997.065 958.851 978.266C979.06 959.467 1023.63 912.179 1023.63 912.179C1023.63 912.179 1020.42 909.143 1003.95 904.53Z" fill="white"/>
<path opacity="0.5" d="M769.697 958.192L763.899 965.633L781.706 1000.91L879.643 1034.55L884.18 1020.85C884.18 1020.85 885.684 1006.94 851.308 996.369C816.931 985.799 795.971 978.822 786.194 971.567C776.417 964.311 769.697 958.192 769.697 958.192Z" fill="white"/>
<path d="M446.383 696.165C446.383 696.165 416.397 691.853 402.399 715.288C388.401 738.723 389.833 748.876 389.833 748.876C389.833 748.876 409.653 766.076 436.897 765.102C464.141 764.129 503.806 734.319 516.737 724.607C529.667 714.894 562.273 687.102 584.519 692.85L586.945 672.753C586.945 672.753 584.762 663.736 565.742 666.17C546.722 668.604 539.25 678.965 533.112 678.965C526.974 678.965 521.176 673.333 508.852 693.453C508.828 693.453 465.572 700.778 446.383 696.165Z" fill="white"/>
<path d="M485.345 405.07C485.983 408.827 486.891 412.536 488.062 416.174C488.501 417.949 489.327 419.616 490.488 421.065C492.768 423.383 496.456 423.985 499.828 424.472C500.385 424.51 500.914 424.722 501.332 425.075C501.604 425.49 501.732 425.977 501.696 426.466C501.676 430.117 500.528 433.681 498.397 436.711" stroke="#263238" stroke-linecap="round" stroke-linejoin="round"/>
<path opacity="0.1" d="M789.808 934.154L769.697 958.099C769.697 958.099 791.773 977.593 814.626 984.826C837.479 992.058 877.484 1005.69 884.179 1016.19L881.608 1003.69C881.608 1003.69 819.041 967.023 804.679 958.261C800.433 955.6 796.884 952.042 794.305 947.863C791.727 943.683 790.188 938.992 789.808 934.154V934.154Z" fill="black"/>
<path opacity="0.1" d="M859.628 990.273L899.681 1011.99C899.681 1011.99 919.453 999.058 929.157 989.531C938.861 980.004 950.821 969.434 958.269 948.085C968.434 918.577 997.546 904.53 997.546 904.53C997.546 904.53 957.056 922.75 935.974 936.982C914.892 951.215 894.344 957.241 882.408 956.268C882.287 956.337 891.869 985.312 859.628 990.273Z" fill="black"/>
<path d="M471.225 441.973C471.225 441.973 486.97 453.772 503.321 449.344C503.321 449.344 487.891 478.551 471.225 441.973Z" fill="white" stroke="#263238" stroke-linecap="round" stroke-linejoin="round"/>
<path d="M470.644 416.475C471.105 419.72 470.061 422.525 468.363 422.757C466.665 422.989 464.894 420.439 464.433 417.263C463.972 414.088 464.991 411.213 466.714 410.982C468.436 410.75 470.28 413.23 470.644 416.475Z" fill="#263238"/>
<path d="M504.923 410.564C505.359 413.832 504.34 416.637 502.642 416.846C500.944 417.054 499.149 414.528 498.712 411.375C498.276 408.223 499.27 405.302 500.993 405.094C502.715 404.885 504.462 407.319 504.923 410.564Z" fill="#263238"/>
<path d="M468.217 402.706C468.217 402.706 459.047 398.186 452.521 407.875" stroke="#263238" stroke-linecap="round" stroke-linejoin="round"/>
<path d="M491.726 396.68C491.726 396.68 501.43 388.729 507.034 396.68" stroke="#263238" stroke-linecap="round" stroke-linejoin="round"/>
<path d="M437.068 432.539C437.068 432.539 431.173 424.217 424.938 424.472C418.703 424.727 416.229 433.072 418.46 441.139C420.692 449.206 429.984 460.471 437.019 459.405C440.988 458.916 444.609 456.991 447.136 454.027" stroke="#263238" stroke-linecap="round" stroke-linejoin="round"/>
<path d="M493.593 368.863C500.216 374.125 507.227 379.851 510.575 387.593C513.535 394.176 514.19 401.501 516.907 408.154C519.794 415.27 522.948 422.711 523.19 430.476C523.062 437.66 522.077 444.807 520.255 451.778C519.247 457.823 517.747 463.783 515.767 469.604C512.492 477.925 506.451 483.048 498.348 486.989C492.453 489.863 482.628 493.943 476.247 490.095C472.535 487.777 466.956 481.147 462.322 475.051" stroke="#263238" stroke-linecap="round" stroke-linejoin="round"/>
<path d="M437.068 459.405C437.068 459.405 447.5 483.836 444.977 501.013" stroke="#263238" stroke-linecap="round" stroke-linejoin="round"/>
<path d="M434.399 428.436C435.788 427.454 436.888 426.147 437.593 424.641C438.299 423.134 438.586 421.479 438.426 419.836C438.038 416.081 435.321 412.604 435.855 408.849C436.301 407.051 437.003 405.319 437.941 403.703C439.354 400.584 439.976 397.191 439.757 393.8C439.537 390.408 438.483 387.114 436.679 384.185C436.679 384.185 469.819 385.669 485.345 376.235C500.871 366.8 512.71 342.67 503.322 331.15C493.933 319.629 475.641 335.345 462.08 337.084C448.518 338.822 400.289 346.17 392.599 363.926C384.909 381.682 396.626 388.056 396.99 405.001C397.354 421.946 397.354 454.05 423.87 451.106C423.87 451.106 413.948 438.844 420.838 426.211C425.52 420.902 434.399 428.436 434.399 428.436Z" fill="#263238"/>
<path d="M499.392 351.177C503.892 354.526 507.623 358.724 510.352 363.509C513.082 368.294 514.752 373.565 515.258 378.993C516.738 391.696 540.319 416.382 523.313 430.453C523.313 430.453 519.358 415.502 517.029 408.13C514.7 400.759 511.716 387.268 507.81 382.632C503.905 377.996 483.187 361.77 483.187 361.77L499.392 351.177Z" fill="#263238"/>
<path d="M440.125 500.479C440.125 500.479 456.476 510.771 486.85 511.189L490.416 550.108C490.416 550.108 456.258 547.627 430.858 525.305C430.858 525.305 423.992 507.943 425.812 500.479C427.631 493.015 443.958 485.621 443.958 485.621" stroke="#263238" stroke-linecap="round" stroke-linejoin="round"/>
<path d="M508.828 483.071L509.799 496.979C503.395 503.352 495.543 508.23 486.849 511.235L505.868 545.843C505.868 545.843 528.552 528.968 530.808 511.235C530.808 511.235 531.002 493.085 527.047 487.893C523.093 482.7 508.683 480.266 508.683 480.266" stroke="#263238" stroke-linecap="round" stroke-linejoin="round"/>
<path opacity="0.8" d="M416.786 375.516C419.212 369.698 425.859 366.244 432.337 365.317C438.814 364.39 445.461 365.039 452.011 364.877C461.081 364.807 469.964 362.405 477.727 357.923C481.584 355.678 484.94 352.73 487.605 349.246C490.269 345.762 492.188 341.81 493.253 337.617" stroke="white" stroke-linecap="round" stroke-linejoin="round"/>
<path opacity="0.8" d="M401.138 374.38C405.238 362.489 418.533 355.141 431.609 354.098C438.086 353.565 444.636 354.283 451.017 353.565C457.397 352.846 464.19 350.296 467.562 344.988" stroke="white" stroke-linecap="round" stroke-linejoin="round"/>
<path d="M394.248 752.237C362.71 767.861 351.502 751.774 333.938 738.469C316.374 725.163 327.897 701.381 324.234 663.249C320.571 625.118 329.693 560.261 329.693 560.261C329.693 560.261 337.553 558.545 359.363 545.796C381.172 533.047 427.072 513.623 427.072 513.623" stroke="#263238" stroke-linecap="round" stroke-linejoin="round"/>
<path d="M425.495 694.519C425.495 694.519 420.497 679.383 406.378 678.989C392.259 678.595 369.988 684.668 354.122 713.342" stroke="#263238" stroke-linecap="round" stroke-linejoin="round"/>
<path d="M403.152 678.085C402.275 678.03 401.414 677.834 400.605 677.505C388.965 673.503 376.332 672.954 364.36 675.929" stroke="#263238" stroke-linecap="round" stroke-linejoin="round"/>
<path d="M356.233 580.961C381.924 608.081 394.442 643.964 406.305 678.734" stroke="#263238" stroke-linecap="round" stroke-linejoin="round"/>
<path d="M530.808 507.642C530.808 507.642 577.388 518.258 600.144 520.785C622.899 523.312 626.587 526.348 626.587 526.348L630.833 541.508" stroke="#263238" stroke-linecap="round" stroke-linejoin="round"/>
<path d="M747.862 534.021L589.226 539.839L576.271 695.725H603.442L741.191 666.263L758.512 537.753L747.862 534.021Z" fill="white"/>
<path d="M584.52 700.337L758.027 541.438L741.191 666.263L584.52 700.337Z" fill="#E9CB99"/>
<path opacity="0.7" d="M584.52 700.337L758.027 541.438L741.191 666.263L584.52 700.337Z" fill="white"/>
<path d="M584.52 696.165L598.396 545.796L758.513 537.753L741.191 666.263L584.52 696.165Z" stroke="#263238" stroke-linecap="round" stroke-linejoin="round"/>
<path d="M691.021 610.608C689.954 619.764 684.835 626.718 679.595 626.161C674.355 625.605 671.007 617.701 672.074 608.545C673.142 599.388 678.285 592.434 683.525 592.991C688.765 593.547 692.113 601.451 691.021 610.608Z" fill="#263238"/>
<path d="M741.191 666.263C741.191 666.263 814.505 664.269 837.431 678.734C860.356 693.198 873.821 765.728 870.643 804.253C867.465 842.778 839.808 931.187 839.808 931.187L786.824 873.886C786.824 873.886 760.721 783.206 774.961 747.694C774.961 747.694 704.607 751.472 676.902 743.174C676.902 743.174 652.084 704.348 609.532 691.506L741.191 666.263Z" fill="#263238"/>
<path d="M850.991 932.694C832.173 915.908 815.274 897.259 800.579 877.062C774.936 839.209 739.492 802.886 703.03 774.536C673.651 751.774 667.004 714.686 630.759 696.072C570.716 665.312 518.799 726.438 499.391 738.816C479.983 751.194 446.383 765.218 446.383 765.218C446.383 765.218 458.659 809.26 494.709 814.476C530.759 819.691 567.222 795.932 584.471 807.406C601.72 818.88 614.481 870.108 671.443 900.126C717.998 924.65 781.438 948.572 814.165 964.705C821.443 968.321 826.877 972.123 831.001 974.278C842.306 980.166 854.388 987.097 865.79 993.958L905.067 1016.81C905.067 1016.81 944.489 994.538 959.628 974C961.641 971.242 965.838 963.894 969.768 956.801C978.332 941.293 989.176 927.385 1004.19 919.713C1014.58 914.358 1023.82 912.759 1023.6 912.202C1022.61 910.441 1003.78 901.238 990.996 906.268C963.922 916.954 909.798 958.006 884.252 954.946C872.37 948.678 861.22 941.218 850.991 932.694V932.694Z" stroke="#263238" stroke-miterlimit="10"/>
<path d="M850.991 932.694C827.386 941.804 817.877 955.874 814.238 964.729C781.511 948.503 718.071 924.674 671.516 900.149C614.553 870.015 601.89 818.88 584.544 807.429C567.198 795.978 530.711 819.807 494.782 814.499C458.853 809.191 446.383 765.195 446.383 765.195C446.383 765.195 480.007 751.287 499.415 738.909C518.823 726.531 563.583 665.382 630.759 696.165C667.853 713.156 673.651 751.797 703.03 774.629C739.42 802.886 774.936 839.302 800.579 877.155C815.238 897.351 832.14 915.972 850.991 932.694V932.694Z" fill="#263238"/>
<path d="M673.602 736.174C673.602 736.174 655.432 700.894 626.295 694.056" stroke="white" stroke-linecap="round" stroke-linejoin="round"/>
<path d="M578.358 665.938C558.319 661.766 536.316 682.929 527.048 678.965C520.158 676.022 508.829 693.453 508.829 693.453C490.181 696.026 471.322 696.934 452.497 696.165C425.496 694.519 412.711 699.549 403.152 713.341L389.809 747.115C389.809 747.115 425.011 777.249 462.589 759.701C500.168 742.154 550.095 689.211 584.496 689.396" stroke="#263238" stroke-linecap="round" stroke-linejoin="round"/>
<path d="M858.1 989.369C858.1 989.369 890.996 991.942 883.282 954.39" stroke="#263238" stroke-miterlimit="10"/>
<path d="M1013.12 931.187C1010.69 935.823 980.539 960.348 954.557 981.789C954.557 981.465 961.835 968.368 964.843 962.782C971.757 950.45 989.613 916.63 1023.6 912.18C1028.43 914.961 1013.12 931.187 1013.12 931.187Z" fill="#263238"/>
<path d="M1000.19 904.785C965.814 911.322 958.002 953.463 945.8 971.381C933.597 989.299 899.706 1013.66 899.706 1013.66" stroke="#263238" stroke-miterlimit="10"/>
<path d="M881.172 1002.91C886.776 1012.69 884.132 1024.05 881.172 1031.16C879.722 1034.7 877.918 1038.09 875.786 1041.29C827.121 1033.64 778.455 1008.65 778.455 1008.65L765.912 971.566L763.899 965.632L782.798 941.316" stroke="#263238" stroke-miterlimit="10"/>
<path d="M881.172 1031.16C879.722 1034.7 877.918 1038.09 875.786 1041.29C827.121 1033.64 778.455 1008.65 778.455 1008.65L765.913 971.566C772.196 979.401 783.841 990.875 801.308 995.581C825.01 1002 868.751 1009.51 881.172 1031.16Z" fill="#263238"/>
<path d="M576.271 690.3L589.226 539.839L747.862 534.021L758.512 537.753" stroke="#263238" stroke-linecap="round" stroke-linejoin="round"/>
<path d="M883.063 971.381C883.063 971.381 904.752 975.09 921.418 962.109C938.085 949.129 964.941 919.76 964.941 919.76" stroke="#263238" stroke-miterlimit="10"/>
<path d="M905.14 952.698C905.14 952.698 899.901 960.231 905.14 975.345" stroke="#263238" stroke-linecap="round" stroke-linejoin="round"/>
<path d="M920.521 945.489C918.137 953.002 918.839 961.101 922.486 968.136" stroke="#263238" stroke-linecap="round" stroke-linejoin="round"/>
<path d="M938.862 935.336C938.862 935.336 934.47 947.923 938.862 959.026" stroke="#263238" stroke-linecap="round" stroke-linejoin="round"/>
<path d="M787.091 938.187L769.697 958.191C769.697 958.191 787.212 976.48 811.933 984.083C836.654 991.687 880.807 1004.6 884.471 1018.34" stroke="#263238" stroke-miterlimit="10"/>
</g>
</svg>
