<svg width="24" height="24" viewBox="0 0 24 24" fill="none" xmlns="http://www.w3.org/2000/svg">
<path d="M12 24C18.6274 24 24 18.6274 24 12C24 5.37258 18.6274 0 12 0C5.37258 0 0 5.37258 0 12C0 18.6274 5.37258 24 12 24Z" fill="#EA596E"/>
<path d="M17.4167 19.5074C17.398 19.5074 17.3787 19.5053 17.3607 19.5007C11.7447 18.206 6.69667 19.486 6.646 19.4994C6.572 19.518 6.492 19.5027 6.43 19.4554C6.36933 19.4074 6.33333 19.3347 6.33333 19.2574C6.33333 17.1387 8.80867 14.676 12 14.676C15.1913 14.676 17.6667 17.1387 17.6667 19.2574C17.6667 19.3334 17.632 19.406 17.572 19.4534C17.5273 19.488 17.4727 19.5074 17.4167 19.5074ZM19.3333 8.00002C15.6307 8.00002 14.132 5.08868 14.07 4.96468C13.9053 4.63535 14.0387 4.23468 14.368 4.07002C14.6967 3.90535 15.096 4.03802 15.2613 4.36535C15.3113 4.46268 16.4753 6.66668 19.3333 6.66668C19.702 6.66668 20 6.96535 20 7.33335C20 7.70135 19.702 8.00002 19.3333 8.00002ZM4.66667 8.00002C4.29867 8.00002 4 7.70135 4 7.33335C4 6.96535 4.29867 6.66668 4.66667 6.66668C8.05533 6.66668 8.664 4.58668 8.68867 4.49802C8.78533 4.14602 9.15 3.93268 9.50133 4.02535C9.85467 4.11802 10.0687 4.47402 9.98 4.82868C9.94733 4.95802 9.136 8.00002 4.66667 8.00002Z" fill="#292F33"/>
<path d="M7.99967 13.3334C8.92015 13.3334 9.66634 12.2887 9.66634 11.0001C9.66634 9.71142 8.92015 8.66675 7.99967 8.66675C7.0792 8.66675 6.33301 9.71142 6.33301 11.0001C6.33301 12.2887 7.0792 13.3334 7.99967 13.3334Z" fill="#292F33"/>
<path d="M15.9997 13.3334C16.9201 13.3334 17.6663 12.2887 17.6663 11.0001C17.6663 9.71142 16.9201 8.66675 15.9997 8.66675C15.0792 8.66675 14.333 9.71142 14.333 11.0001C14.333 12.2887 15.0792 13.3334 15.9997 13.3334Z" fill="#292F33"/>
<path d="M12.4197 15.3861V15.9375L11.6923 15.9381V15.3801C10.1743 15.4648 8.89833 16.1548 8.05566 17.0575L8.061 17.3648C8.11833 19.3195 9.44766 21.2328 12.0557 21.2328C14.655 21.2328 15.9837 19.3321 16.0497 17.3841L16.0557 17.1948C15.2363 16.2515 13.959 15.5035 12.4197 15.3861V15.3861Z" fill="#F4ABBA"/>
<path d="M12.0004 15.366C11.8957 15.366 11.795 15.3753 11.6924 15.3806V18.3453C11.6924 18.546 11.855 18.7086 12.0557 18.7086C12.2564 18.7086 12.419 18.546 12.419 18.3453V15.3866C12.281 15.3753 12.143 15.366 12.0004 15.366V15.366Z" fill="#EA596E"/>
<path d="M23.9378 8.04133C23.9378 9.91733 22.4178 11.4373 20.5418 11.4373C18.6658 11.4373 17.1458 9.91733 17.1458 8.04133C17.1458 6.16533 19.8625 1.24933 20.5418 1.24933C21.2212 1.24933 23.9378 6.16599 23.9378 8.04133V8.04133ZM5.71584 5.62533C5.71584 7.16733 4.46584 8.41733 2.92384 8.41733C1.38184 8.41733 0.131836 7.16733 0.131836 5.62533C0.131836 4.08333 2.36517 0.0419922 2.92384 0.0419922C3.4825 0.0419922 5.71584 4.08333 5.71584 5.62533Z" fill="#5DADEC"/>
</svg>
