<svg width="36" height="36" viewBox="0 0 36 36" fill="none" xmlns="http://www.w3.org/2000/svg">
<path d="M17 36C26.3888 36 34 28.3888 34 19C34 9.61116 26.3888 2 17 2C7.61116 2 0 9.61116 0 19C0 28.3888 7.61116 36 17 36Z" fill="#FFCC4D"/>
<path d="M17.999 28.5C19.1036 28.5 19.999 27.3807 19.999 26C19.999 24.6193 19.1036 23.5 17.999 23.5C16.8945 23.5 15.999 24.6193 15.999 26C15.999 27.3807 16.8945 28.5 17.999 28.5Z" fill="#664500"/>
<path d="M8.11112 21.3831C7.92912 21.3831 7.74412 21.3331 7.57912 21.2291C7.11212 20.9351 6.97212 20.3181 7.26612 19.8501C8.18212 18.3971 10.9671 15.9121 14.9561 16.8881C15.4921 17.0191 15.8201 17.5611 15.6891 18.0971C15.5571 18.6331 15.0131 18.9591 14.4801 18.8301C10.8761 17.9481 8.97812 20.8861 8.95912 20.9161C8.76812 21.2181 8.44312 21.3831 8.11112 21.3831ZM20.0841 17.6411C19.7941 17.6411 19.5081 17.5161 19.3101 17.2751C18.9601 16.8481 19.0221 16.2171 19.4501 15.8671C22.6261 13.2631 26.2121 14.3051 27.6651 15.2211C28.1321 15.5151 28.2721 16.1331 27.9771 16.6001C27.6841 17.0651 27.0691 17.2071 26.6011 16.9151C26.4631 16.8311 23.5491 15.0921 20.7171 17.4141C20.5311 17.5671 20.3071 17.6411 20.0841 17.6411Z" fill="#664500"/>
<path d="M13.3458 31.273C13.2778 31.273 13.2088 31.264 13.1408 31.245C12.7428 31.132 12.5108 30.718 12.6238 30.319C13.0608 28.779 12.8818 27.29 12.1338 26.233C11.6368 25.531 10.9288 25.102 10.1908 25.055C9.77681 25.03 9.46281 24.673 9.48881 24.26C9.51481 23.847 9.86981 23.509 10.2838 23.559C11.4768 23.633 12.5968 24.292 13.3568 25.366C14.3678 26.795 14.6268 28.749 14.0658 30.727C13.9728 31.058 13.6718 31.273 13.3458 31.273ZM24.3828 28.212C24.2408 28.212 24.0978 28.172 23.9708 28.088C22.8038 27.318 22.1508 25.971 22.1788 24.393C22.2078 22.758 22.9878 21.24 24.1628 20.524C24.5158 20.308 24.9768 20.42 25.1928 20.775C25.4088 21.129 25.2968 21.589 24.9418 21.805C24.2068 22.253 23.6978 23.304 23.6778 24.419C23.6578 25.474 24.0668 26.355 24.7958 26.836C25.1418 27.064 25.2368 27.529 25.0088 27.875C24.8648 28.094 24.6268 28.212 24.3828 28.212Z" fill="#E2A62D"/>
<path d="M17.1791 2.7201C17.1361 2.6711 17.0691 2.6441 16.9901 2.6291C16.9901 2.6291 1.06612 -0.393905 0.377122 0.214095C-0.310878 0.823095 0.740122 16.9981 0.740122 16.9981C0.745122 17.0791 0.763122 17.1481 0.807122 17.1971C1.41112 17.8811 5.56512 15.1931 10.0861 11.1961C14.6081 7.1981 17.7831 3.4041 17.1791 2.7201Z" fill="#DD2E44"/>
<path d="M0.348547 0.270881C0.333547 0.300881 0.320547 0.341881 0.310547 0.393881C0.469547 1.76488 2.00555 13.0459 2.96255 16.5719C4.39855 15.7689 5.85755 14.6779 7.57155 13.3189C6.11555 10.6539 1.15755 0.145881 0.348547 0.270881Z" fill="#EA596E"/>
<path d="M29.9023 29.2289L19.3293 27.9259C18.1993 27.8239 16.2123 27.8139 16.3143 26.0239C16.4073 24.4009 18.3543 24.6509 19.7933 24.8639L30.4313 26.6379L29.9023 29.2289Z" fill="#3B88C3"/>
<path d="M30.4297 26.639L26.2077 25.915C25.7137 25.826 25.2737 26.562 25.2517 27.341C25.2267 28.207 25.4787 28.645 25.9777 28.747L30.1217 29.259L30.4297 26.639Z" fill="#88C9F9"/>
<path d="M34.9184 26.341L32.2964 28.752L27.6094 23.655L30.2314 21.244C31.5924 19.992 33.7304 20.082 34.9824 21.443L35.1174 21.59C36.3684 22.952 36.2794 25.089 34.9184 26.341Z" fill="#3B88C3"/>
<path d="M32.2948 28.7534C33.421 27.7179 33.2848 25.7376 31.9907 24.3301C30.6966 22.9226 28.7346 22.621 27.6084 23.6564C26.4823 24.6919 26.6184 26.6722 27.9125 28.0797C29.2067 29.4872 31.1687 29.7888 32.2948 28.7534Z" fill="#88C9F9"/>
<path d="M31.3565 27.7338C31.9196 27.216 31.7467 26.1118 30.9703 25.2674C30.1939 24.423 29.108 24.1581 28.5449 24.6759C27.9819 25.1936 28.1548 26.2978 28.9312 27.1422C29.7076 27.9866 30.7934 28.2515 31.3565 27.7338Z" fill="#226699"/>
<path d="M2.5 35C3.32843 35 4 34.3284 4 33.5C4 32.6716 3.32843 32 2.5 32C1.67157 32 1 32.6716 1 33.5C1 34.3284 1.67157 35 2.5 35Z" fill="#55ACEE"/>
<path d="M29 4C30.1046 4 31 3.10457 31 2C31 0.89543 30.1046 0 29 0C27.8954 0 27 0.89543 27 2C27 3.10457 27.8954 4 29 4Z" fill="#55ACEE"/>
<path d="M4.86411 29.246L2.52611 23.63L0.412109 29.675L4.86411 29.246ZM26.0001 5L22.0001 6L23.0001 2L26.0001 5Z" fill="#EA596E"/>
<path d="M31.999 13L36 7.999L33 6L31.999 13Z" fill="#77B255"/>
</svg>
