<svg width="34" height="21" viewBox="0 0 34 21" fill="none" xmlns="http://www.w3.org/2000/svg">
<path d="M7.78889 13.2687C7.78889 13.2687 8.96489 13.1665 9.29598 12.3884C9.63836 11.5833 8.99043 11.2542 8.99043 11.2542C8.99043 11.2542 9.93064 11.2832 10.2784 10.3007C10.6066 9.37475 9.80783 8.94984 9.80783 8.94984C9.80783 8.94984 10.7269 8.79903 10.9951 7.82395C11.2206 7.00311 10.4219 6.39153 10.4219 6.39153H16.4188C16.8899 6.39153 17.6837 6.12529 17.6842 5.14234C17.6851 4.15989 16.8692 3.9354 16.4188 3.9354H6.34862C5.85739 3.9354 5.85739 3.44417 6.34862 3.44417H7.65823C9.52096 3.44417 10.6758 2.44305 10.9946 2.0928C11.3139 1.74256 11.4755 1.27393 11.3552 0.707545C11.1513 -0.253295 10.412 -0.0435407 9.78475 0.228599C8.27275 0.885369 6.11823 1.33582 5.09943 1.47288C2.22182 1.86144 0.00294847 4.32641 1.11106e-06 7.31062C-0.0019638 10.5655 2.60252 13.2662 5.85739 13.2687H7.78889Z" fill="#D5AB88"/>
<path d="M25.6164 20.4047C25.6164 20.4047 24.3282 20.3164 23.994 19.4571C23.6524 18.5798 24.3229 18.2361 24.3229 18.2361C24.3229 18.2361 23.3108 18.2673 22.9364 17.2097C22.5832 16.213 23.443 15.7556 23.443 15.7556C23.443 15.7556 22.4537 15.5932 22.1649 14.5436C21.9217 13.66 22.7815 13.0016 22.7815 13.0016H16.326C15.8189 13.0016 14.9644 12.715 14.9639 11.6569C14.9628 10.5993 15.8411 10.3577 16.326 10.3577H27.1662C27.695 10.3577 27.695 9.82888 27.1662 9.82888H25.7565C23.7513 9.82888 22.5081 8.75121 22.1649 8.37418C21.8212 7.99715 21.6467 7.49268 21.7768 6.88299C21.9963 5.84867 22.7921 6.07447 23.4674 6.36742C25.095 7.07441 27.4143 7.55931 28.511 7.70685C31.6086 8.12512 33.9972 10.7786 34.0003 13.991C34.0025 17.4948 31.1988 20.4021 27.695 20.4047H25.6164Z" fill="#7C533E"/>
</svg>
