<svg width="36" height="36" viewBox="0 0 36 36" fill="none" xmlns="http://www.w3.org/2000/svg">
<path d="M33.8232 16C33.8232 24.834 26.6572 32 17.8232 32C8.98724 32 1.82324 24.834 1.82324 16C1.82324 7.164 8.98724 0 17.8232 0C26.6572 0 33.8232 7.164 33.8232 16Z" fill="#FFCC4D"/>
<path d="M25.6839 16.1291C25.5339 15.9681 25.3099 15.9581 25.1489 16.1001C25.1159 16.1291 21.8459 19.0001 17.8229 19.0001C13.8099 19.0001 10.5299 16.1291 10.4969 16.1001C10.3349 15.9581 10.1119 15.9701 9.96188 16.1291C9.81288 16.2891 9.77988 16.5531 9.88288 16.7571C9.99088 16.9721 12.5919 22.0001 17.8229 22.0001C23.0539 22.0001 25.6559 16.9721 25.7629 16.7571C25.8659 16.5521 25.8329 16.2891 25.6839 16.1291Z" fill="#664500"/>
<path d="M13.2158 23.1539L11.6768 20.9349C11.6768 20.9349 11.1338 20.0679 10.2658 20.6099C9.39877 21.1509 9.94177 22.0189 9.94177 22.0189L11.6998 25.3989C11.6998 25.3989 11.8438 26.1669 10.7818 25.3079C10.3188 24.9339 10.5848 25.1449 10.5848 25.1449L10.1448 24.7839L4.65377 20.2759C4.65377 20.2759 3.94477 19.5279 3.29477 20.3179C2.64677 21.1089 3.51777 21.6589 3.51777 21.6589L8.71076 25.9249C8.59076 26.0449 8.22877 26.4589 8.11077 26.5879L2.55377 22.0279C2.55377 22.0279 1.84377 21.2789 1.19577 22.0689C0.545766 22.8599 1.41777 23.4099 1.41777 23.4099L6.97277 27.9719C6.86977 28.1119 6.60977 28.4479 6.51377 28.5859L1.72177 24.6519C1.72177 24.6519 1.01177 23.9039 0.363766 24.6939C-0.287234 25.4849 0.585766 26.0359 0.585766 26.0359L5.67977 30.2199C5.61577 30.3979 5.31677 30.8659 5.26977 31.0399L1.59777 28.0279C1.59777 28.0279 0.888766 27.2759 0.240766 28.0689C-0.409234 28.8599 0.462766 29.4099 0.462766 29.4099L6.39277 34.2779L6.78777 34.6039C9.40777 36.7549 13.2768 36.3749 15.4278 33.7549C17.3988 31.3519 17.2448 27.9019 15.1878 25.6859C14.4588 24.9039 13.8278 24.0329 13.2158 23.1539ZM35.4058 28.0699C34.7578 27.2769 34.0488 28.0289 34.0488 28.0289L30.3768 31.0409C30.3298 30.8669 30.0308 30.3979 29.9668 30.2209L35.0608 26.0369C35.0608 26.0369 35.9338 25.4859 35.2838 24.6949C34.6358 23.9049 33.9258 24.6529 33.9258 24.6529L29.1338 28.5869C29.0378 28.4479 28.7768 28.1119 28.6748 27.9729L34.2298 23.4109C34.2298 23.4109 35.1028 22.8609 34.4528 22.0699C33.8048 21.2799 33.0958 22.0289 33.0958 22.0289L27.5378 26.5889C27.4208 26.4599 27.0588 26.0459 26.9378 25.9259L32.1308 21.6599C32.1308 21.6599 33.0008 21.1099 32.3538 20.3189C31.7038 19.5289 30.9948 20.2769 30.9948 20.2769L25.5038 24.7849L25.0648 25.1459C25.0648 25.1459 26.0548 24.3049 24.8678 25.3089C23.6798 26.3129 23.9498 25.3999 23.9498 25.3999L25.7078 22.0199C25.7078 22.0199 26.2508 21.1519 25.3838 20.6109C24.5148 20.0689 23.9728 20.9359 23.9728 20.9359L22.4348 23.1549C21.8218 24.0339 21.1908 24.9049 20.4608 25.6879C18.4028 27.9049 18.2488 31.3539 20.2218 33.7569C22.3718 36.3769 26.2418 36.7569 28.8618 34.6059L29.2578 34.2799L35.1878 29.4119C35.1828 29.4109 36.0548 28.8609 35.4058 28.0699Z" fill="#F4900C"/>
<path d="M27.5001 10.983C27.4491 10.861 26.2151 8 23.6791 8C21.1451 8 19.9111 10.861 19.8601 10.983C19.7801 11.171 19.8321 11.389 19.9831 11.519C20.1321 11.647 20.3481 11.651 20.5061 11.531C20.5161 11.522 21.5871 10.715 23.6791 10.715C25.7581 10.715 26.8281 11.512 26.8531 11.531C26.9281 11.59 27.0181 11.62 27.1081 11.62C27.2031 11.62 27.2971 11.586 27.3751 11.521C27.5281 11.392 27.5801 11.171 27.5001 10.983ZM16.5001 10.983C16.4481 10.861 15.2151 8 12.6791 8C10.1451 8 8.91113 10.861 8.85913 10.983C8.78013 11.171 8.83113 11.389 8.98313 11.519C9.13313 11.647 9.34913 11.651 9.50613 11.531C9.51713 11.522 10.5871 10.715 12.6791 10.715C14.7591 10.715 15.8281 11.512 15.8521 11.531C15.9281 11.59 16.0171 11.62 16.1071 11.62C16.2021 11.62 16.2961 11.586 16.3741 11.521C16.5281 11.392 16.5791 11.171 16.5001 10.983Z" fill="#664500"/>
<path d="M11.0048 25.478C11.0048 25.478 8.41179 28.792 11.4888 32.938C11.7008 33.223 12.2388 33.084 12.0098 32.75C11.7598 32.386 9.25979 28.854 11.6098 25.693C11.6098 25.693 11.2288 25.646 11.0048 25.478ZM24.5878 25.576C24.5878 25.576 27.1818 28.89 24.1038 33.036C23.8918 33.321 23.3538 33.182 23.5828 32.848C23.8328 32.484 26.3328 28.952 23.9828 25.791C23.9818 25.792 24.3638 25.745 24.5878 25.576Z" fill="#B55005"/>
</svg>
