<svg width="22" height="35" viewBox="0 0 22 35" fill="none" xmlns="http://www.w3.org/2000/svg">
<path d="M22 10.92C22 17.359 17 18.359 17 24.36C17 27.458 13.877 27.719 11.5 27.719C9.447 27.719 4.914 26.94 4.914 24.358C4.914 18.36 0 17.36 0 10.92C0 4.889 5.285 0 11.083 0C16.883 0 22 4.889 22 10.92Z" fill="#FFD983"/>
<path d="M15.167 32.36C15.167 33.188 12.933 34.86 11 34.86C9.06701 34.86 6.83301 33.188 6.83301 32.36C6.83301 31.532 9.06601 31.86 11 31.86C12.933 31.86 15.167 31.532 15.167 32.36Z" fill="#CCD6DD"/>
<path d="M15.7073 10.1531C15.3163 9.76211 14.6842 9.76211 14.2932 10.1531L11.0002 13.4461L7.70725 10.1531C7.31625 9.76211 6.68425 9.76211 6.29325 10.1531C5.90225 10.5441 5.90225 11.1761 6.29325 11.5671L10.0002 15.2741V25.8601C10.0002 26.4131 10.4482 26.8601 11.0002 26.8601C11.5522 26.8601 12.0002 26.4131 12.0002 25.8601V15.2741L15.7073 11.5671C16.0983 11.1761 16.0983 10.5441 15.7073 10.1531V10.1531Z" fill="#FFCC4D"/>
<path d="M17 30.8601C17 31.9641 16.104 32.8601 15 32.8601H7C5.896 32.8601 5 31.9641 5 30.8601V24.8601H17V30.8601Z" fill="#99AAB5"/>
<path d="M4.99882 31.86C4.51882 31.86 4.09482 31.513 4.01382 31.024C3.92282 30.48 4.29082 29.964 4.83582 29.874L16.8358 27.874C17.3798 27.776 17.8958 28.151 17.9858 28.696C18.0768 29.24 17.7088 29.756 17.1638 29.846L5.16382 31.846C5.10882 31.856 5.05282 31.86 4.99882 31.86V31.86ZM4.99882 27.86C4.51882 27.86 4.09482 27.513 4.01382 27.024C3.92282 26.48 4.29082 25.964 4.83582 25.874L16.8358 23.874C17.3798 23.777 17.8958 24.151 17.9858 24.696C18.0768 25.24 17.7088 25.756 17.1638 25.846L5.16382 27.846C5.10882 27.856 5.05282 27.86 4.99882 27.86V27.86Z" fill="#CCD6DD"/>
</svg>
