<svg width="36" height="34" viewBox="0 0 36 34" fill="none" xmlns="http://www.w3.org/2000/svg">
<path d="M35.5565 16.0179C32.9745 12.2569 27.6365 17.7919 17.8945 18.9169C14.2875 19.3329 11.0375 22.3449 6.84748 22.0579C5.12948 21.9399 2.73048 16.9969 0.93448 17.7849C0.01048 18.1909 -0.41352 19.5459 0.53648 20.5639L11.0845 33.1499C11.0845 33.1499 11.6205 33.7679 13.4265 33.3399C13.8715 33.4709 20.5615 30.7899 24.4295 25.4229C25.3555 24.1379 26.4595 23.0679 27.6025 22.1739C31.3135 19.4299 35.3475 18.4739 35.3475 18.4739C35.8635 18.0479 35.9845 17.5949 35.9565 17.2019C35.9905 16.5459 35.5565 16.0179 35.5565 16.0179Z" fill="#5C913B"/>
<path d="M11.4309 10.0119C7.64789 15.2619 1.02289 17.7489 1.02289 17.7489C-0.213109 18.7959 0.830891 20.0299 0.830891 20.0299L11.2689 32.3889C11.2689 32.3889 11.7909 33.0059 13.5489 32.5779C13.5489 32.5779 20.1739 30.0959 23.9559 24.8459C27.8549 19.4359 34.8859 17.7279 34.8859 17.7279C36.1209 16.6809 35.0779 15.4449 35.0779 15.4449L24.6399 3.08789C24.6399 3.08789 24.1179 2.46989 22.3599 2.89589C22.3599 2.89589 15.3299 4.59989 11.4309 10.0119Z" fill="#A7D28B"/>
<path d="M21.9541 19.2378C24.9917 19.2378 27.4541 16.7754 27.4541 13.7378C27.4541 10.7002 24.9917 8.23779 21.9541 8.23779C18.9165 8.23779 16.4541 10.7002 16.4541 13.7378C16.4541 16.7754 18.9165 19.2378 21.9541 19.2378Z" fill="#77B255"/>
<path d="M12.8274 31.6669C11.9464 31.6669 11.6234 31.3389 11.5794 31.2889L2.1704 20.3059C2.1524 20.2849 1.6754 19.7389 1.7334 19.0449C1.7684 18.6239 1.9864 18.2489 2.3804 17.9299L2.4434 17.8919C2.5044 17.8679 8.6064 15.3599 12.0264 10.8269L12.2264 10.9769L12.0264 10.8269C15.6444 6.0309 21.8854 3.9729 21.9474 3.9529C23.6924 3.5469 24.2634 4.1269 24.3244 4.1949L33.6094 15.2389C33.6264 15.2569 34.1024 15.8049 34.0444 16.4999C34.0094 16.9199 33.7914 17.2949 33.3974 17.6139L33.2984 17.6629C33.2374 17.6779 27.1694 19.1859 23.6544 23.8439C20.1554 28.4839 14.0474 31.4859 13.9864 31.5149C13.5224 31.6249 13.1404 31.6669 12.8274 31.6669ZM11.9564 30.9599C11.9574 30.9599 12.4084 31.3759 13.8214 31.0479C13.8294 31.0369 19.8304 28.0859 23.2574 23.5439C26.6944 18.9889 32.4824 17.3619 33.1244 17.1929C33.3814 16.9719 33.5234 16.7269 33.5464 16.4639C33.5884 15.9839 33.2344 15.5709 33.2314 15.5669L23.9464 4.5219C23.9444 4.5219 23.4964 4.1069 22.0824 4.4349C22.0414 4.4489 15.9474 6.4609 12.4264 11.1279C9.0604 15.5889 3.1874 18.1229 2.6684 18.3409C2.4004 18.5659 2.2544 18.8169 2.2314 19.0859C2.1914 19.5619 2.5434 19.9729 2.5464 19.9769L11.9564 30.9599Z" fill="#5C913B"/>
<path d="M21.2306 21.9037L21.2246 27.8437L21.7216 28.4337C22.6906 27.5497 23.6216 26.5557 24.4266 25.4377C25.2616 24.2797 26.2316 23.2887 27.2546 22.4517L26.7716 21.8767L21.2306 21.9037Z" fill="#FFAC33"/>
<path d="M26.7525 21.8557L14.2465 7.04272C13.2305 7.87872 12.2545 8.85372 11.4245 10.0067C10.6135 11.1327 9.66945 12.1237 8.68945 12.9977L10.1515 14.7287L10.1505 14.7297L21.2255 27.8437C22.2055 26.9687 23.1385 25.9677 23.9505 24.8407C24.7805 23.6887 25.7555 22.7147 26.7705 21.8787L26.7515 21.8557H26.7525Z" fill="#FFE8B6"/>
<path d="M14.4339 22.2928C12.8769 20.4488 9.58086 23.4408 8.64086 22.3278C8.18586 21.7888 8.47886 21.0898 9.07686 20.5858C10.0819 19.7358 10.8069 20.2308 11.2619 19.8458C11.5849 19.5738 11.5679 19.2408 11.3759 19.0118C10.9299 18.4848 9.78986 18.7598 8.90386 19.2718L8.47286 18.7618C8.20386 18.4438 7.72786 18.4028 7.40986 18.6718C7.09186 18.9418 7.05186 19.4158 7.32086 19.7338L7.76686 20.2628C7.08986 21.1608 6.85986 22.3528 7.66086 23.2998C9.15686 25.0698 12.4939 22.1278 13.5439 23.3718C13.9079 23.8038 13.8059 24.6278 13.0399 25.2738C11.8919 26.2448 10.8519 25.7898 10.3849 26.1838C10.1569 26.3748 10.1159 26.7388 10.3589 27.0278C10.7459 27.4848 11.9789 27.3868 13.1639 26.6488C13.1659 26.6508 13.1659 26.6528 13.1659 26.6548L13.6529 27.2308C13.9219 27.5488 14.3989 27.5878 14.7169 27.3208C15.0359 27.0508 15.0749 26.5748 14.8059 26.2568L14.3189 25.6808C14.3139 25.6748 14.3059 25.6708 14.2999 25.6648C15.0989 24.6868 15.3689 23.3978 14.4339 22.2928Z" fill="#5C913B"/>
<path d="M32.4107 32.3258C32.4197 32.3178 32.4297 32.3118 32.4387 32.3048C32.5067 32.2368 32.5597 32.1588 32.6197 32.0838C32.6617 32.0318 32.7087 31.9818 32.7477 31.9288C32.7827 31.8788 32.8117 31.8278 32.8437 31.7768C34.2637 29.5898 33.3337 25.8818 30.5227 23.0698C27.7107 20.2578 24.0017 19.3278 21.8157 20.7488C21.7637 20.7798 21.7127 20.8088 21.6627 20.8448C21.6097 20.8838 21.5587 20.9308 21.5087 20.9718C21.4347 21.0328 21.3567 21.0848 21.2877 21.1538C21.2787 21.1628 21.2727 21.1728 21.2657 21.1818C21.2547 21.1928 21.2417 21.1998 21.2297 21.2118L21.2357 21.2168C20.2357 22.2788 20.2237 23.9218 21.2297 24.9288C22.2377 25.9368 23.8797 25.9228 24.9427 24.9228L24.9537 24.9348C24.9327 24.9548 24.9097 24.9678 24.8897 24.9878C23.8307 26.0468 23.8057 27.7358 24.8307 28.7628C25.8567 29.7878 27.5477 29.7628 28.6057 28.7038C28.6257 28.6838 28.6387 28.6608 28.6587 28.6398L28.6697 28.6518C27.6697 29.7138 27.6567 31.3568 28.6647 32.3648C29.6717 33.3708 31.3137 33.3588 32.3757 32.3588L32.3817 32.3648C32.3917 32.3508 32.3997 32.3378 32.4107 32.3258Z" fill="#E1E8ED"/>
<path d="M21.2312 24.9687C22.1372 25.8737 23.5521 25.9477 24.6011 25.2297C25.0401 24.4797 25.1662 23.7667 25.1662 23.5437C22.9592 25.1897 20.9892 23.5527 20.5482 22.5737C20.3652 23.4197 20.5872 24.3237 21.2312 24.9687ZM28.5302 28.8087C28.8282 28.3897 29.0591 27.9847 29.1671 27.7107C27.7621 28.9987 25.0762 28.0557 24.2622 26.0127C23.9042 26.9627 24.0871 28.0567 24.8331 28.8027C25.8351 29.8047 27.4672 29.7967 28.5302 28.8087ZM32.3842 32.4037L32.4131 32.3677C32.4232 32.3597 32.4331 32.3537 32.4411 32.3457C32.5101 32.2777 32.5631 32.1997 32.6221 32.1257C32.6651 32.0727 32.7112 32.0237 32.7502 31.9697C32.7862 31.9207 32.8152 31.8687 32.8472 31.8177C32.9122 31.7177 32.9472 31.5997 33.0022 31.4937C30.4742 32.6247 28.5872 30.7057 28.0582 29.7487C27.7632 30.6657 27.9551 31.6927 28.6671 32.4057C29.6731 33.4127 31.3152 33.4007 32.3781 32.3997L32.3842 32.4037Z" fill="#CCD6DD"/>
<path d="M13.9107 12.2358L13.9387 12.2138C14.0077 12.1458 14.0607 12.0678 14.1197 11.9938C14.1617 11.9418 14.2077 11.8928 14.2467 11.8388C14.2827 11.7888 14.3117 11.7378 14.3437 11.6868C15.7637 9.49983 14.8327 5.79083 12.0217 2.97983C9.20965 0.167828 5.50165 -0.763172 3.31465 0.656828C3.26365 0.688828 3.21165 0.717828 3.16165 0.753828C3.10765 0.792828 3.05865 0.838828 3.00665 0.880828C2.93265 0.940828 2.85465 0.992828 2.78665 1.06183C2.77765 1.07083 2.77165 1.08183 2.76465 1.08983C2.75365 1.09983 2.73965 1.10883 2.72865 1.11983L2.73365 1.12483C1.73365 2.18683 1.72165 3.82983 2.72865 4.83683C3.73565 5.84383 5.37865 5.83183 6.44065 4.83183L6.45165 4.84283C6.43065 4.86183 6.40765 4.87583 6.38765 4.89583C5.32865 5.95483 5.30365 7.64383 6.32965 8.67083C7.35565 9.69783 9.04565 9.67183 10.1047 8.61283C10.1247 8.59283 10.1377 8.56983 10.1577 8.54883L10.1687 8.55983C9.16865 9.62183 9.15565 11.2648 10.1637 12.2718C11.1707 13.2788 12.8127 13.2668 13.8747 12.2658L13.8797 12.2718C13.8907 12.2608 13.8997 12.2478 13.9107 12.2358Z" fill="#E1E8ED"/>
<path d="M2.72724 4.83792C3.63324 5.74392 5.04824 5.81792 6.09724 5.09792C6.53624 4.34792 6.66124 3.63592 6.66124 3.41292C4.45524 5.05792 2.48424 3.41992 2.04424 2.44092C1.86124 3.28792 2.08324 4.19292 2.72724 4.83792ZM10.0282 8.67592C10.3252 8.25692 10.5562 7.85392 10.6632 7.57992C9.25724 8.86792 6.57124 7.92392 5.75824 5.88092C5.40024 6.83092 5.58324 7.92492 6.32824 8.67092C7.33224 9.67392 8.96524 9.66492 10.0282 8.67592ZM13.8792 12.2729C13.8902 12.2619 13.8992 12.2489 13.9092 12.2369L13.9372 12.2149C14.0062 12.1469 14.0592 12.0689 14.1182 11.9949C14.1602 11.9429 14.2062 11.8939 14.2452 11.8399C14.2812 11.7899 14.3102 11.7389 14.3422 11.6879C14.4072 11.5879 14.4422 11.4689 14.4972 11.3629C11.9692 12.4939 10.0822 10.5759 9.55324 9.61892C9.25824 10.5359 9.45024 11.5629 10.1622 12.2749C11.1692 13.2819 12.8112 13.2699 13.8732 12.2689L13.8792 12.2729Z" fill="#CCD6DD"/>
</svg>
