<svg width="36" height="36" viewBox="0 0 36 36" fill="none" xmlns="http://www.w3.org/2000/svg">
<path d="M18 36C27.9411 36 36 27.9411 36 18C36 8.05887 27.9411 0 18 0C8.05887 0 0 8.05887 0 18C0 27.9411 8.05887 36 18 36Z" fill="#FFCC4D"/>
<path d="M10.5152 23.621C10.5602 23.8 11.6832 28 18.0002 28C24.3182 28 25.4402 23.8 25.4852 23.621C25.5402 23.404 25.4422 23.179 25.2482 23.067C25.0532 22.956 24.8092 22.989 24.6482 23.144C24.6292 23.163 22.6942 25 18.0002 25C13.3062 25 11.3702 23.163 11.3522 23.145C11.2562 23.05 11.1282 23 11.0002 23C10.9162 23 10.8312 23.021 10.7542 23.064C10.5582 23.176 10.4602 23.403 10.5152 23.621Z" fill="#664500"/>
<path d="M12 17C13.3807 17 14.5 15.433 14.5 13.5C14.5 11.567 13.3807 10 12 10C10.6193 10 9.5 11.567 9.5 13.5C9.5 15.433 10.6193 17 12 17Z" fill="#664500"/>
<path d="M24 17C25.3807 17 26.5 15.433 26.5 13.5C26.5 11.567 25.3807 10 24 10C22.6193 10 21.5 11.567 21.5 13.5C21.5 15.433 22.6193 17 24 17Z" fill="#664500"/>
</svg>
