<svg width="20" height="21" viewBox="0 0 20 21" fill="none" xmlns="http://www.w3.org/2000/svg">
<path d="M9.9219 19.8438C15.4016 19.8438 19.8438 15.4016 19.8438 9.9219C19.8438 4.44219 15.4016 0 9.9219 0C4.44219 0 0 4.44219 0 9.9219C0 15.4016 4.44219 19.8438 9.9219 19.8438Z" fill="#FFCB4C"/>
<path d="M7.89288 12.267C7.80825 12.1993 7.7423 12.107 7.71078 11.9961C7.63257 11.7277 7.78665 11.4604 8.05513 11.4003C10.6979 10.8044 12.4774 12.1958 12.5527 12.2553C12.7768 12.4339 12.8206 12.7485 12.6536 12.9586C12.4867 13.1675 12.1704 13.1926 11.9468 13.0152C11.8826 12.9662 10.4743 11.8928 8.33878 12.3743C8.17886 12.4099 8.01544 12.365 7.89288 12.267Z" fill="#65471B"/>
<path d="M7.07325 8.06124C7.75821 8.06124 8.31348 7.36721 8.31348 6.51109C8.31348 5.65496 7.75821 4.96094 7.07325 4.96094C6.38828 4.96094 5.83301 5.65496 5.83301 6.51109C5.83301 7.36721 6.38828 8.06124 7.07325 8.06124Z" fill="#65471B"/>
<path d="M13.6426 8.68111C14.3275 8.68111 14.8828 7.98709 14.8828 7.13096C14.8828 6.27484 14.3275 5.58081 13.6426 5.58081C12.9576 5.58081 12.4023 6.27484 12.4023 7.13096C12.4023 7.98709 12.9576 8.68111 13.6426 8.68111Z" fill="#65471B"/>
<path d="M9.49901 20.5038C9.49901 20.5038 10.2373 20.264 10.333 19.7148C10.434 19.1475 9.96884 19.0337 9.96884 19.0337C9.96884 19.0337 10.5764 18.9123 10.6529 18.2306C10.7247 17.588 10.1504 17.4351 10.1504 17.4351C10.1504 17.4351 10.7165 17.2016 10.7433 16.5368C10.7655 15.9771 10.1626 15.7034 10.1626 15.7034C10.1626 15.7034 13.103 14.9908 13.4053 14.9207C13.7065 14.8507 14.1757 14.5618 14.0292 13.932C13.8839 13.3017 13.3265 13.2795 13.0388 13.3467C12.7505 13.4138 9.10272 14.2606 7.84439 14.5536L7.00453 14.7486C6.68936 14.8227 6.54637 14.6844 6.76874 14.4497C7.06523 14.1369 7.25491 13.7908 7.32086 13.2165C7.39032 12.6124 7.18546 11.8665 7.06815 11.5771C6.84986 11.0395 6.48159 10.6146 6.05611 10.4687C5.39251 10.2411 4.92093 10.6561 5.15614 11.3798C5.50866 12.4619 5.27753 13.3496 4.66996 13.8854C3.24063 15.1443 2.57586 16.0419 3.01826 17.9551C3.50151 20.0416 5.57286 21.3846 7.65937 20.9013L9.49901 20.5038Z" fill="#F19020"/>
<path d="M4.84165 3.69642C4.74593 3.64506 4.66481 3.56569 4.61345 3.46355C4.48738 3.21375 4.5901 2.92251 4.84282 2.81454C7.33263 1.74589 9.33627 2.78944 9.42032 2.83438C9.67303 2.9692 9.77517 3.27036 9.64852 3.50791C9.52245 3.74428 9.21662 3.82657 8.96391 3.6935C8.89212 3.65673 7.31104 2.85773 5.29981 3.72093C5.14981 3.78455 4.98056 3.77054 4.84165 3.69642ZM11.9241 5.88508C11.8331 5.82788 11.7572 5.74325 11.7129 5.63761C11.6037 5.37964 11.7263 5.09658 11.986 5.00495C14.5429 4.10847 16.4713 5.28509 16.5518 5.33587C16.794 5.48762 16.8757 5.7952 16.7339 6.0234C16.5927 6.25102 16.281 6.3123 16.0388 6.16231C15.9688 6.12028 14.4472 5.21622 12.3811 5.94111C12.2259 5.99422 12.0584 5.96795 11.9241 5.88508Z" fill="#65471B"/>
</svg>
